<svg width="15" height="22" viewBox="0 0 15 22" fill="none" xmlns="http://www.w3.org/2000/svg">
<path d="M11.9473 13.9672H7.15972C7.20735 15.3677 7.57892 16.4205 8.27443 17.1255C8.97946 17.8306 10.0703 18.1831 11.5471 18.1831C12.5475 18.1831 13.4526 18.0354 14.2624 17.74L14.7769 21.1985C13.5955 21.4748 12.376 21.613 11.1184 21.613C8.61265 21.613 6.62618 20.9413 5.15895 19.5979C3.70126 18.245 2.9343 16.3681 2.85808 13.9672H0.442871V11.7949H2.85808V10.0228H0.442871V7.85057H2.88666C3.04863 5.44965 3.88228 3.58704 5.38761 2.26272C6.90247 0.928884 8.908 0.261963 11.4042 0.261963C12.4046 0.261963 13.5288 0.409638 14.7769 0.704989L14.2624 4.17774C13.3668 3.87286 12.4856 3.72042 11.6186 3.72042C8.92229 3.72042 7.44554 5.09714 7.1883 7.85057H11.9473V10.0228H7.15972V11.7949H11.9473V13.9672Z" fill="#CC316F"/>
</svg>
