<svg width="10" height="18" viewBox="0 0 10 18" fill="none" xmlns="http://www.w3.org/2000/svg">
<path d="M2.50668 10.2234L2.49331 17.9999L5.88491 18L5.89827 10.2236H8.58413C8.82566 10.2236 9.02907 10.0428 9.0575 9.80294L9.3546 7.29627C9.38825 7.01274 9.16673 6.76344 8.88124 6.76344H5.88491V4.66657C5.88491 3.71564 6.14895 3.06766 7.51257 3.06766L8.77525 3.06708C9.03839 3.06692 9.2517 2.85355 9.2517 2.59036V0.476719C9.2517 0.213419 9.03823 0 8.77498 0H6.71745C4.21003 0 2.49337 1.5305 2.49337 4.34131V6.76339H0.476722C0.21273 6.76339 -0.00100789 6.97793 3.57512e-06 7.24192L0.00969188 9.74859C0.0107033 10.0111 0.223803 10.2234 0.486358 10.2234H2.50668Z" fill="#425996"/>
</svg>
