<svg width="26" height="39" viewBox="0 0 26 39" fill="none" xmlns="http://www.w3.org/2000/svg">
<path d="M20.8674 24.8594H12.1834C12.2699 27.3998 12.9438 29.3094 14.2054 30.5882C15.4842 31.8671 17.4629 32.5065 20.1416 32.5065C21.9561 32.5065 23.5979 32.2386 25.0668 31.7029L26 37.9761C23.8571 38.4772 21.6451 38.7278 19.3639 38.7278C14.8189 38.7278 11.2157 37.5095 8.55434 35.0728C5.91027 32.6188 4.51911 29.2144 4.38086 24.8594H0V20.9192H4.38086V17.7049H0V13.7647H4.4327C4.72649 9.40977 6.23862 6.03124 8.96909 3.62911C11.7169 1.2097 15.3546 0 19.8824 0C21.6969 0 23.7361 0.267863 26 0.803589L25.0668 7.10269C23.4423 6.54968 21.8438 6.27318 20.2712 6.27318C15.3805 6.27318 12.7019 8.77036 12.2353 13.7647H20.8674V17.7049H12.1834V20.9192H20.8674V24.8594Z" fill="#8E31CC"/>
</svg>
