<svg width="18" height="18" viewBox="0 0 18 18" fill="none" xmlns="http://www.w3.org/2000/svg">
<path d="M13.0325 0H4.96724C2.22831 0 0 2.22841 0 4.96735V13.0327C0 15.7717 2.22831 18 4.96724 18H13.0325C15.7717 18 18 15.7716 18 13.0327V4.96735C18.0001 2.22841 15.7717 0 13.0325 0ZM16.4031 13.0327C16.4031 14.8911 14.8911 16.403 13.0327 16.403H4.96724C3.10892 16.4031 1.59705 14.8911 1.59705 13.0327V4.96735C1.59705 3.10903 3.10892 1.59705 4.96724 1.59705H13.0325C14.891 1.59705 16.403 3.10903 16.403 4.96735L16.4031 13.0327Z" fill="url(#paint0_linear)"/>
<path d="M8.99972 4.36201C6.44221 4.36201 4.36157 6.44265 4.36157 9.00016C4.36157 11.5576 6.44221 13.6381 8.99972 13.6381C11.5572 13.6381 13.6379 11.5576 13.6379 9.00016C13.6379 6.44265 11.5572 4.36201 8.99972 4.36201ZM8.99972 12.0409C7.32292 12.0409 5.95862 10.6768 5.95862 9.00005C5.95862 7.32315 7.32282 5.95895 8.99972 5.95895C10.6766 5.95895 12.0408 7.32315 12.0408 9.00005C12.0408 10.6768 10.6765 12.0409 8.99972 12.0409Z" fill="url(#paint1_linear)"/>
<path d="M13.8327 3.00784C13.525 3.00784 13.2227 3.13241 13.0054 3.35067C12.7871 3.56787 12.6615 3.87024 12.6615 4.179C12.6615 4.48681 12.7872 4.78908 13.0054 5.00734C13.2226 5.22454 13.525 5.35017 13.8327 5.35017C14.1415 5.35017 14.4428 5.22454 14.661 5.00734C14.8793 4.78908 15.0039 4.4867 15.0039 4.179C15.0039 3.87024 14.8793 3.56787 14.661 3.35067C14.4438 3.13241 14.1415 3.00784 13.8327 3.00784Z" fill="url(#paint2_linear)"/>
<defs>
<linearGradient id="paint0_linear" x1="9" y1="0" x2="9" y2="18" gradientUnits="userSpaceOnUse">
<stop stop-color="#626AA7"/>
<stop offset="0.473958" stop-color="#C04B65"/>
<stop offset="1" stop-color="#F3C887"/>
</linearGradient>
<linearGradient id="paint1_linear" x1="9" y1="0" x2="9" y2="18" gradientUnits="userSpaceOnUse">
<stop stop-color="#626AA7"/>
<stop offset="0.473958" stop-color="#C04B65"/>
<stop offset="1" stop-color="#F3C887"/>
</linearGradient>
<linearGradient id="paint2_linear" x1="9" y1="0" x2="9" y2="18" gradientUnits="userSpaceOnUse">
<stop stop-color="#626AA7"/>
<stop offset="0.473958" stop-color="#C04B65"/>
<stop offset="1" stop-color="#F3C887"/>
</linearGradient>
</defs>
</svg>
