<svg width="557" height="197" viewBox="0 0 557 197" fill="none" xmlns="http://www.w3.org/2000/svg">
<path d="M541.608 106.588C541.858 106.591 542.111 106.595 542.361 106.602C468.054 137.325 386.693 150.953 306.73 164.116C586.901 104.363 514.692 52.4206 248.447 169.502C164.57 206.387 128.534 212.733 56.2334 146.97C15.3946 109.824 -16.4031 64.9658 9.18909 44.9665C55.4645 8.80405 173.361 27.1756 265.5 11.6417C319.192 2.58962 347.272 -4.76505 404 3.79935C445.252 10.0273 503.484 2.64077 539.267 26.834C549.107 33.4831 556.761 44.1699 556.942 55.8857C557.116 67.3815 550.279 77.8838 542.307 86.3141C517.186 112.872 499.924 106.02 541.608 106.588Z" fill="#D5EBFD"/>
<path d="M556.942 57.7476C556.949 58.1876 556.945 58.6276 556.931 59.064C556.924 59.3266 556.913 59.5891 556.895 59.8517C556.62 59.8126 438.275 60.1674 438.275 60.1674C445.152 53.7809 456.009 53.0713 467.228 56.9742C466.106 54.5934 468.621 46.4931 471.296 46.5251C473.97 46.557 477.825 48.9307 479.895 50.5876C480.923 49.7751 477.832 47.7208 477.55 46.4576C477.296 45.3364 478.219 44.2188 479.319 43.8321C480.423 43.4453 481.639 43.6156 482.787 43.8285C487.339 44.6765 491.758 46.1809 495.866 48.2778C494.169 45.8545 492.41 43.2537 492.312 40.3195C492.218 37.3852 494.567 34.1742 497.549 34.4758C499.004 34.6212 500.245 35.5366 501.374 36.4556C505.326 39.6773 508.869 43.385 511.898 47.4582C514.852 44.79 518.938 43.3637 522.948 43.605C523.599 43.6405 524.29 43.7398 524.797 44.1266C524.786 43.2041 524.88 42.2815 525.079 41.3803C525.383 40.0179 525.951 38.659 527.008 37.7258C528.597 36.3279 531.018 36.1611 533.059 36.7785C535.108 37.3958 536.863 38.6731 538.575 39.9292C538.774 37.6655 540.558 35.7708 542.646 34.7844C543.497 34.3835 544.398 34.1032 545.317 33.9116C545.531 34.0039 545.744 34.0997 545.958 34.1955C549.754 37.9742 552.856 42.4199 554.785 47.256C556.113 50.5947 556.887 54.1215 556.942 57.7476Z" fill="white"/>
<path d="M220.201 85.3392C220.614 85.4765 221.02 85.6366 221.415 85.8227C223.503 86.809 225.287 88.7037 225.486 90.9674C227.198 89.7114 228.953 88.434 231.002 87.8167C233.043 87.1993 235.464 87.3661 237.053 88.764C238.109 89.6972 238.678 91.0561 238.982 92.4185C239.181 93.3198 239.275 94.2423 239.264 95.1648C239.771 94.778 240.462 94.6787 241.113 94.6432C245.123 94.4019 249.209 95.8283 252.162 98.4964C255.192 94.4232 258.735 90.7155 262.687 87.4938C263.816 86.5749 265.057 85.6594 266.512 85.514C269.494 85.2124 271.843 88.4234 271.749 91.3577C271.651 94.2919 269.892 96.8927 268.195 99.316C272.303 97.2191 276.722 95.7147 281.274 94.8667C282.422 94.6538 283.638 94.4835 284.741 94.8703C285.842 95.257 286.764 96.3747 286.511 97.4959C286.395 98.0154 285.804 98.6688 285.219 99.3146C284.383 100.239 283.561 101.148 284.166 101.626C286.236 99.9689 290.09 97.5952 292.765 97.5633C295.439 97.5313 297.955 105.632 296.833 108.012C308.052 104.109 318.909 104.819 325.785 111.206C325.785 111.206 249.191 110.976 219.099 110.907C189.007 110.976 112.413 111.206 112.413 111.206C119.289 104.819 130.147 104.109 141.366 108.012C140.244 105.632 142.759 97.5313 145.434 97.5633C148.108 97.5952 151.962 99.9689 154.033 101.626C154.638 101.148 153.815 100.239 152.979 99.3146C152.395 98.6688 151.804 98.0154 151.687 97.4959C151.434 96.3747 152.357 95.257 153.457 94.8703C154.561 94.4835 155.777 94.6538 156.924 94.8667C161.477 95.7147 165.896 97.2191 170.004 99.316C168.306 96.8927 166.547 94.2919 166.45 91.3577C166.356 88.4234 168.704 85.2124 171.686 85.514C173.141 85.6594 174.383 86.5749 175.512 87.4938C179.464 90.7155 183.007 94.4232 186.036 98.4964C188.989 95.8283 193.075 94.4019 197.085 94.6432C197.737 94.6787 198.428 94.778 198.935 95.1648C198.924 94.2423 199.018 93.3198 199.217 92.4185C199.521 91.0561 200.089 89.6972 201.146 88.764C202.735 87.3661 205.156 87.1993 207.197 87.8167C209.245 88.434 211.001 89.7114 212.712 90.9674C212.911 88.7037 214.696 86.809 216.784 85.8227C217.179 85.6366 217.584 85.4765 217.997 85.3392C218.033 85.304 218.068 85.2688 218.103 85.2337C218.216 85.1831 218.328 85.1326 218.441 85.0825C218.542 85.0378 218.643 84.9934 218.744 84.9498C218.863 84.9746 218.981 85.0008 219.099 85.0287C219.217 85.0008 219.336 84.9746 219.455 84.9498C219.668 85.0421 219.882 85.1379 220.095 85.2337C220.131 85.2688 220.166 85.304 220.201 85.3392Z" fill="white"/>
</svg>
