<svg width="223" height="162" viewBox="0 0 223 162" fill="none" xmlns="http://www.w3.org/2000/svg">
<g opacity="0.5">
<path d="M4.58219 152.83C7.11287 152.83 9.16438 154.883 9.16438 157.415C9.16438 159.947 7.11287 162 4.58219 162C2.05152 162 0 159.947 0 157.415C0 154.883 2.05152 152.83 4.58219 152.83Z" fill="#CAD65A"/>
<path d="M96.226 152.83C98.7567 152.83 100.808 154.883 100.808 157.415C100.808 159.947 98.7567 162 96.226 162C93.6954 162 91.6438 159.947 91.6438 157.415C91.6438 154.883 93.6954 152.83 96.226 152.83Z" fill="#CAD65A"/>
<path d="M35.1301 152.83C37.6608 152.83 39.7123 154.883 39.7123 157.415C39.7123 159.947 37.6608 162 35.1301 162C32.5995 162 30.5479 159.947 30.5479 157.415C30.5479 154.883 32.5995 152.83 35.1301 152.83Z" fill="#CAD65A"/>
<path d="M126.774 152.83C129.305 152.83 131.356 154.883 131.356 157.415C131.356 159.947 129.305 162 126.774 162C124.243 162 122.192 159.947 122.192 157.415C122.192 154.883 124.243 152.83 126.774 152.83Z" fill="#CAD65A"/>
<path d="M187.87 152.83C190.401 152.83 192.452 154.883 192.452 157.415C192.452 159.947 190.401 162 187.87 162C185.339 162 183.288 159.947 183.288 157.415C183.288 154.883 185.339 152.83 187.87 152.83Z" fill="#CAD65A"/>
<path d="M65.6781 152.83C68.2088 152.83 70.2603 154.883 70.2603 157.415C70.2603 159.947 68.2088 162 65.6781 162C63.1474 162 61.0959 159.947 61.0959 157.415C61.0959 154.883 63.1474 152.83 65.6781 152.83Z" fill="#CAD65A"/>
<path d="M157.322 152.83C159.853 152.83 161.904 154.883 161.904 157.415C161.904 159.947 159.853 162 157.322 162C154.791 162 152.74 159.947 152.74 157.415C152.74 154.883 154.791 152.83 157.322 152.83Z" fill="#CAD65A"/>
<path d="M218.418 152.83C220.948 152.83 223 154.883 223 157.415C223 159.947 220.948 162 218.418 162C215.887 162 213.836 159.947 213.836 157.415C213.836 154.883 215.887 152.83 218.418 152.83Z" fill="#CAD65A"/>
<path d="M4.58219 91.6981C7.11287 91.6981 9.16438 93.7508 9.16438 96.283C9.16438 98.8152 7.11287 100.868 4.58219 100.868C2.05152 100.868 0 98.8152 0 96.283C0 93.7508 2.05152 91.6981 4.58219 91.6981Z" fill="#CAD65A"/>
<path d="M96.226 91.6981C98.7567 91.6981 100.808 93.7508 100.808 96.283C100.808 98.8152 98.7567 100.868 96.226 100.868C93.6954 100.868 91.6438 98.8152 91.6438 96.283C91.6438 93.7508 93.6954 91.6981 96.226 91.6981Z" fill="#CAD65A"/>
<path d="M35.1301 91.6981C37.6608 91.6981 39.7123 93.7508 39.7123 96.283C39.7123 98.8152 37.6608 100.868 35.1301 100.868C32.5995 100.868 30.5479 98.8152 30.5479 96.283C30.5479 93.7508 32.5995 91.6981 35.1301 91.6981Z" fill="#CAD65A"/>
<path d="M126.774 91.6981C129.305 91.6981 131.356 93.7508 131.356 96.283C131.356 98.8152 129.305 100.868 126.774 100.868C124.243 100.868 122.192 98.8152 122.192 96.283C122.192 93.7508 124.243 91.6981 126.774 91.6981Z" fill="#CAD65A"/>
<path d="M187.87 91.6981C190.401 91.6981 192.452 93.7508 192.452 96.283C192.452 98.8152 190.401 100.868 187.87 100.868C185.339 100.868 183.288 98.8152 183.288 96.283C183.288 93.7508 185.339 91.6981 187.87 91.6981Z" fill="#CAD65A"/>
<path d="M65.6781 91.6981C68.2088 91.6981 70.2603 93.7508 70.2603 96.283C70.2603 98.8152 68.2088 100.868 65.6781 100.868C63.1474 100.868 61.0959 98.8152 61.0959 96.283C61.0959 93.7508 63.1474 91.6981 65.6781 91.6981Z" fill="#CAD65A"/>
<path d="M157.322 91.6981C159.853 91.6981 161.904 93.7508 161.904 96.283C161.904 98.8152 159.853 100.868 157.322 100.868C154.791 100.868 152.74 98.8152 152.74 96.283C152.74 93.7508 154.791 91.6981 157.322 91.6981Z" fill="#CAD65A"/>
<path d="M218.418 91.6981C220.948 91.6981 223 93.7508 223 96.283C223 98.8152 220.948 100.868 218.418 100.868C215.887 100.868 213.836 98.8152 213.836 96.283C213.836 93.7508 215.887 91.6981 218.418 91.6981Z" fill="#CAD65A"/>
<path d="M4.58219 30.566C7.11287 30.566 9.16438 32.6188 9.16438 35.1509C9.16438 37.6831 7.11287 39.7359 4.58219 39.7359C2.05152 39.7359 0 37.6831 0 35.1509C0 32.6188 2.05152 30.566 4.58219 30.566Z" fill="#CAD65A"/>
<path d="M96.226 30.566C98.7567 30.566 100.808 32.6188 100.808 35.1509C100.808 37.6831 98.7567 39.7359 96.226 39.7359C93.6954 39.7359 91.6438 37.6831 91.6438 35.1509C91.6438 32.6188 93.6954 30.566 96.226 30.566Z" fill="#CAD65A"/>
<path d="M35.1301 30.566C37.6608 30.566 39.7123 32.6188 39.7123 35.1509C39.7123 37.6831 37.6608 39.7359 35.1301 39.7359C32.5995 39.7359 30.5479 37.6831 30.5479 35.1509C30.5479 32.6188 32.5995 30.566 35.1301 30.566Z" fill="#CAD65A"/>
<path d="M126.774 30.566C129.305 30.566 131.356 32.6188 131.356 35.1509C131.356 37.6831 129.305 39.7359 126.774 39.7359C124.243 39.7359 122.192 37.6831 122.192 35.1509C122.192 32.6188 124.243 30.566 126.774 30.566Z" fill="#CAD65A"/>
<path d="M187.87 30.566C190.401 30.566 192.452 32.6188 192.452 35.1509C192.452 37.6831 190.401 39.7359 187.87 39.7359C185.339 39.7359 183.288 37.6831 183.288 35.1509C183.288 32.6188 185.339 30.566 187.87 30.566Z" fill="#CAD65A"/>
<path d="M65.6781 30.566C68.2088 30.566 70.2603 32.6188 70.2603 35.1509C70.2603 37.6831 68.2088 39.7359 65.6781 39.7359C63.1474 39.7359 61.0959 37.6831 61.0959 35.1509C61.0959 32.6188 63.1474 30.566 65.6781 30.566Z" fill="#CAD65A"/>
<path d="M157.322 30.566C159.853 30.566 161.904 32.6188 161.904 35.1509C161.904 37.6831 159.853 39.7359 157.322 39.7359C154.791 39.7359 152.74 37.6831 152.74 35.1509C152.74 32.6188 154.791 30.566 157.322 30.566Z" fill="#CAD65A"/>
<path d="M218.418 30.566C220.948 30.566 223 32.6188 223 35.1509C223 37.6831 220.948 39.7359 218.418 39.7359C215.887 39.7359 213.836 37.6831 213.836 35.1509C213.836 32.6188 215.887 30.566 218.418 30.566Z" fill="#CAD65A"/>
<path d="M4.58219 122.264C7.11287 122.264 9.16438 124.317 9.16438 126.849C9.16438 129.381 7.11287 131.434 4.58219 131.434C2.05152 131.434 0 129.381 0 126.849C0 124.317 2.05152 122.264 4.58219 122.264Z" fill="#CAD65A"/>
<path d="M96.226 122.264C98.7567 122.264 100.808 124.317 100.808 126.849C100.808 129.381 98.7567 131.434 96.226 131.434C93.6954 131.434 91.6438 129.381 91.6438 126.849C91.6438 124.317 93.6954 122.264 96.226 122.264Z" fill="#CAD65A"/>
<path d="M35.1301 122.264C37.6608 122.264 39.7123 124.317 39.7123 126.849C39.7123 129.381 37.6608 131.434 35.1301 131.434C32.5995 131.434 30.5479 129.381 30.5479 126.849C30.5479 124.317 32.5995 122.264 35.1301 122.264Z" fill="#CAD65A"/>
<path d="M126.774 122.264C129.305 122.264 131.356 124.317 131.356 126.849C131.356 129.381 129.305 131.434 126.774 131.434C124.243 131.434 122.192 129.381 122.192 126.849C122.192 124.317 124.243 122.264 126.774 122.264Z" fill="#CAD65A"/>
<path d="M187.87 122.264C190.401 122.264 192.452 124.317 192.452 126.849C192.452 129.381 190.401 131.434 187.87 131.434C185.339 131.434 183.288 129.381 183.288 126.849C183.288 124.317 185.339 122.264 187.87 122.264Z" fill="#CAD65A"/>
<path d="M65.6781 122.264C68.2088 122.264 70.2603 124.317 70.2603 126.849C70.2603 129.381 68.2088 131.434 65.6781 131.434C63.1474 131.434 61.0959 129.381 61.0959 126.849C61.0959 124.317 63.1474 122.264 65.6781 122.264Z" fill="#CAD65A"/>
<path d="M157.322 122.264C159.853 122.264 161.904 124.317 161.904 126.849C161.904 129.381 159.853 131.434 157.322 131.434C154.791 131.434 152.74 129.381 152.74 126.849C152.74 124.317 154.791 122.264 157.322 122.264Z" fill="#CAD65A"/>
<path d="M218.418 122.264C220.948 122.264 223 124.317 223 126.849C223 129.381 220.948 131.434 218.418 131.434C215.887 131.434 213.836 129.381 213.836 126.849C213.836 124.317 215.887 122.264 218.418 122.264Z" fill="#CAD65A"/>
<path d="M4.58219 61.1321C7.11287 61.1321 9.16438 63.1848 9.16438 65.717C9.16438 68.2492 7.11287 70.3019 4.58219 70.3019C2.05152 70.3019 0 68.2492 0 65.717C0 63.1848 2.05152 61.1321 4.58219 61.1321Z" fill="#CAD65A"/>
<path d="M96.226 61.1321C98.7567 61.1321 100.808 63.1848 100.808 65.717C100.808 68.2492 98.7567 70.3019 96.226 70.3019C93.6954 70.3019 91.6438 68.2492 91.6438 65.717C91.6438 63.1848 93.6954 61.1321 96.226 61.1321Z" fill="#CAD65A"/>
<path d="M35.1301 61.1321C37.6608 61.1321 39.7123 63.1848 39.7123 65.717C39.7123 68.2492 37.6608 70.3019 35.1301 70.3019C32.5995 70.3019 30.5479 68.2492 30.5479 65.717C30.5479 63.1848 32.5995 61.1321 35.1301 61.1321Z" fill="#CAD65A"/>
<path d="M126.774 61.1321C129.305 61.1321 131.356 63.1848 131.356 65.717C131.356 68.2492 129.305 70.3019 126.774 70.3019C124.243 70.3019 122.192 68.2492 122.192 65.717C122.192 63.1848 124.243 61.1321 126.774 61.1321Z" fill="#CAD65A"/>
<path d="M187.87 61.1321C190.401 61.1321 192.452 63.1848 192.452 65.717C192.452 68.2492 190.401 70.3019 187.87 70.3019C185.339 70.3019 183.288 68.2492 183.288 65.717C183.288 63.1848 185.339 61.1321 187.87 61.1321Z" fill="#CAD65A"/>
<path d="M65.6781 61.1321C68.2088 61.1321 70.2603 63.1848 70.2603 65.717C70.2603 68.2492 68.2088 70.3019 65.6781 70.3019C63.1474 70.3019 61.0959 68.2492 61.0959 65.717C61.0959 63.1848 63.1474 61.1321 65.6781 61.1321Z" fill="#CAD65A"/>
<path d="M157.322 61.1321C159.853 61.1321 161.904 63.1848 161.904 65.717C161.904 68.2492 159.853 70.3019 157.322 70.3019C154.791 70.3019 152.74 68.2492 152.74 65.717C152.74 63.1848 154.791 61.1321 157.322 61.1321Z" fill="#CAD65A"/>
<path d="M218.418 61.1321C220.948 61.1321 223 63.1848 223 65.717C223 68.2492 220.948 70.3019 218.418 70.3019C215.887 70.3019 213.836 68.2492 213.836 65.717C213.836 63.1848 215.887 61.1321 218.418 61.1321Z" fill="#CAD65A"/>
<path d="M4.58219 0C7.11287 0 9.16438 2.05273 9.16438 4.58492C9.16438 7.1171 7.11287 9.16982 4.58219 9.16982C2.05152 9.16982 0 7.1171 0 4.58492C0 2.05273 2.05152 0 4.58219 0Z" fill="#CAD65A"/>
<path d="M96.226 0C98.7567 0 100.808 2.05273 100.808 4.58492C100.808 7.1171 98.7567 9.16982 96.226 9.16982C93.6954 9.16982 91.6438 7.1171 91.6438 4.58492C91.6438 2.05273 93.6954 0 96.226 0Z" fill="#CAD65A"/>
<path d="M35.1301 0C37.6608 0 39.7123 2.05273 39.7123 4.58492C39.7123 7.1171 37.6608 9.16982 35.1301 9.16982C32.5995 9.16982 30.5479 7.1171 30.5479 4.58492C30.5479 2.05273 32.5995 0 35.1301 0Z" fill="#CAD65A"/>
<path d="M126.774 0C129.305 0 131.356 2.05273 131.356 4.58492C131.356 7.1171 129.305 9.16982 126.774 9.16982C124.243 9.16982 122.192 7.1171 122.192 4.58492C122.192 2.05273 124.243 0 126.774 0Z" fill="#CAD65A"/>
<path d="M187.87 0C190.401 0 192.452 2.05273 192.452 4.58492C192.452 7.1171 190.401 9.16982 187.87 9.16982C185.339 9.16982 183.288 7.1171 183.288 4.58492C183.288 2.05273 185.339 0 187.87 0Z" fill="#CAD65A"/>
<path d="M65.6781 0C68.2088 0 70.2603 2.05273 70.2603 4.58492C70.2603 7.1171 68.2088 9.16982 65.6781 9.16982C63.1474 9.16982 61.0959 7.1171 61.0959 4.58492C61.0959 2.05273 63.1474 0 65.6781 0Z" fill="#CAD65A"/>
<path d="M157.322 0C159.853 0 161.904 2.05273 161.904 4.58492C161.904 7.1171 159.853 9.16982 157.322 9.16982C154.791 9.16982 152.74 7.1171 152.74 4.58492C152.74 2.05273 154.791 0 157.322 0Z" fill="#CAD65A"/>
<path d="M218.418 0C220.948 0 223 2.05273 223 4.58492C223 7.1171 220.948 9.16982 218.418 9.16982C215.887 9.16982 213.836 7.1171 213.836 4.58492C213.836 2.05273 215.887 0 218.418 0Z" fill="#CAD65A"/>
</g>
</svg>
