<svg width="31" height="37" viewBox="0 0 31 37" fill="none" xmlns="http://www.w3.org/2000/svg">
<path d="M1.6435 16.7148V33.25C1.6435 35.0168 3.08088 36.4542 4.84763 36.4542H10.4953V16.7148H1.6435Z" fill="#BDCC31"/>
<path d="M17.7684 16.7148H12.6311V36.4543H17.7684V16.7148Z" fill="#BDCC31"/>
<path d="M27.1959 8.09786H22.2742C22.5714 7.86995 22.8554 7.62203 23.1234 7.3541C23.1803 7.29721 23.2362 7.23976 23.2913 7.18166C25.1344 5.23499 24.6315 2.74919 23.1821 1.29978C21.7327 -0.149563 19.2469 -0.652447 17.3002 1.1907C17.2421 1.24574 17.1845 1.30177 17.1278 1.35852C16.2807 2.20565 15.6307 3.21049 15.2001 4.29964C14.7695 3.21056 14.1195 2.20579 13.2726 1.3588C13.2155 1.3017 13.1579 1.24574 13.0998 1.1907C11.1532 -0.652518 8.66743 -0.149563 7.21801 1.29978C5.7686 2.74919 5.26565 5.23506 7.10879 7.18166C7.16376 7.23969 7.21979 7.29721 7.27668 7.3541C7.54468 7.6221 7.82862 7.86995 8.12588 8.09786H3.20413C1.43738 8.09786 0 9.53524 0 11.302V11.9557C0 13.1364 0.643005 14.1682 1.59623 14.7241H28.8038C29.757 14.1683 30.4 13.1364 30.4 11.9557V11.302C30.4 9.53524 28.9627 8.09786 27.1959 8.09786ZM13.6718 7.7536C11.861 7.82409 10.0802 7.1368 8.78697 5.84367L8.78676 5.84339C8.74375 5.80038 8.70139 5.75688 8.65981 5.71295C7.64236 4.6384 8.06088 3.47771 8.72837 2.81021C9.10808 2.43043 9.64742 2.13139 10.2398 2.13139C10.6886 2.13139 11.168 2.3032 11.631 2.74164C11.675 2.78322 11.7185 2.82559 11.7618 2.86888C13.0548 4.16201 13.7406 5.94264 13.6718 7.7536ZM21.6132 5.84332L21.613 5.8436C20.379 7.07756 18.7015 7.75845 16.9769 7.7583C16.8941 7.7583 16.8113 7.75681 16.7283 7.7536C16.6595 5.94264 17.3452 4.16201 18.6386 2.86866C18.6816 2.82566 18.7251 2.7833 18.7691 2.74171C19.8436 1.72441 21.0043 2.14285 21.6718 2.81028C22.3393 3.47771 22.7577 4.63847 21.7403 5.71302C21.6986 5.75681 21.6563 5.80031 21.6132 5.84332Z" fill="#BDCC31"/>
<path d="M19.9047 16.7148V36.4542H25.5524C27.3191 36.4542 28.7565 35.0168 28.7565 33.2501V16.7148H19.9047Z" fill="#BDCC31"/>
</svg>
