<svg width="55" height="40" viewBox="0 0 55 40" fill="none" xmlns="http://www.w3.org/2000/svg">
<path d="M22.8803 33.3203H23.8403V34.2803H22.8803V33.3203Z" fill="#CC316F"/>
<path d="M38.7203 38.1202V20.701L27.2003 12.8804L15.6803 20.701V25.8241C16.3686 25.8241 16.9792 26.2364 17.2374 26.8748C18.4336 29.8326 19.0403 31.8399 19.0403 32.8403C19.0403 34.8419 17.8312 36.3889 16.1603 36.6404V35.6674C17.2557 35.4241 18.0803 34.3494 18.0803 32.8403C18.0803 31.7151 17.0574 28.9907 16.347 27.2343C16.1041 26.6339 15.256 26.6339 15.0131 27.2343C14.3032 28.9907 13.2803 31.7151 13.2803 32.8403C13.2803 34.3498 14.1049 35.4241 15.2003 35.6674V38.1202H12.8003V39.0802H41.6003V38.1202H38.7203ZM32.0003 31.8802L32.9603 30.4403L33.9203 31.8802V33.3202H35.8403V31.8802L36.8003 30.4403L37.7603 31.8802V38.1202H35.8403V35.2402H33.9203V38.1202H32.0003V35.2402H30.0803V38.1202H28.1603V31.8802L29.1203 30.4403L30.0803 31.8802V33.3202H32.0003V31.8802ZM27.6803 22.2802H30.0803V23.2402C30.0803 24.0356 29.4357 24.6803 28.6403 24.6803H27.6803V22.2802ZM28.6403 18.9202C29.4357 18.9202 30.0803 19.5649 30.0803 20.3603V21.3202H27.6803V18.9202H28.6403ZM24.3203 20.3603C24.3203 19.5649 24.9649 18.9202 25.7603 18.9202H26.7203V21.3202H24.3203V20.3603ZM24.3203 22.2802H26.7203V24.6803H25.7603C24.9649 24.6803 24.3203 24.0356 24.3203 23.2402V22.2802ZM25.2803 29.0002V38.1202H20.0003V29.0002H25.2803Z" fill="#CC316F"/>
<path d="M27.2003 11.9204L40.1013 20.6747L41.1793 19.0854L27.2003 9.6001L13.2213 19.0854L14.2993 20.6747L27.2003 11.9204Z" fill="#CC316F"/>
<path d="M12.8003 4L13.6983 6.76393H16.6045L14.2534 8.47214L15.1514 11.2361L12.8003 9.52786L10.4492 11.2361L11.3472 8.47214L8.99607 6.76393H11.9022L12.8003 4Z" fill="#CC316F"/>
<path d="M42.4 0L42.9388 1.65836H44.6825L43.2719 2.68328L43.8107 4.34164L42.4 3.31672L40.9893 4.34164L41.5281 2.68328L40.1175 1.65836H41.8612L42.4 0Z" fill="#CC316F"/>
<path d="M50.4004 24L51.2984 26.7639H54.2046L51.8535 28.4721L52.7515 31.2361L50.4004 29.5279L48.0492 31.2361L48.9473 28.4721L46.5962 26.7639H49.5023L50.4004 24Z" fill="#CC316F"/>
<path d="M2.4 21.6001L2.93883 23.2585H4.68254L3.27185 24.2834L3.81068 25.9417L2.4 24.9168L0.989315 25.9417L1.52815 24.2834L0.117464 23.2585H1.86117L2.4 21.6001Z" fill="#CC316F"/>
</svg>
