<svg width="975" height="657" viewBox="0 0 975 657" fill="none" xmlns="http://www.w3.org/2000/svg">
<path d="M792.302 567.528C810.097 574.047 831.526 572.603 850.206 577.118C848.14 582.625 838.786 582.151 832.812 583.11C822.804 584.715 812.752 586.138 802.673 587.436C789.983 589.069 777.26 590.513 764.581 591.887C763.773 591.973 762.959 592.065 762.152 592.162C741.696 594.592 721.037 599.586 700.351 602.431C693.118 603.428 685.88 604.166 678.648 604.436C674.911 604.576 671.179 604.592 667.447 604.457C669.915 605.179 674.388 606.16 679.642 607.415C699.867 612.248 731.606 621.171 704.418 635.169C702.577 636.117 700.692 637.022 698.763 637.89C696.212 639.038 693.596 640.11 690.909 641.117C648.739 656.964 590.857 656.473 549.056 656.425H549.001C522.23 656.392 495.466 654.873 468.728 653.036C467.014 652.917 465.304 652.799 463.595 652.68C448.476 651.629 433.374 650.498 418.287 649.507C394.051 647.917 369.743 646.381 345.555 644.237C339.73 643.72 316.735 643.558 313.405 637.858C306.766 626.489 336.113 618.407 363.362 613.832C381.113 610.853 397.969 609.36 403.416 609.414C383.251 602.367 354.931 605.556 334.064 605.691C300.401 605.912 264.997 610.061 231.44 605.594C245.35 591.65 286.717 589.047 304.754 586.327C313.19 585.05 321.802 584.074 330.266 582.797C334.575 582.151 338.845 581.423 343.033 580.545C342.302 580.13 341.549 579.753 340.768 579.408C331.882 575.443 319.972 575.54 310.596 574.742C305.172 574.284 299.742 573.864 294.307 573.476C288.349 573.05 282.386 572.652 276.423 572.264C263.755 571.439 251.087 570.642 238.441 569.629C227.373 568.745 215.848 568.39 204.268 567.84C186.517 567 168.649 565.706 152.14 561.358C144.308 559.289 128.315 554.235 126.298 544.957C118.384 508.577 218.623 506.449 239.073 510.722L272.202 473.431C371.534 473.544 468.558 476.276 567.604 484.525C648.047 491.228 728.028 499.547 808.152 508.906C821.782 510.501 883.121 511.885 884.759 531.061C886.984 557.14 810.081 565.437 792.302 567.528Z" fill="#D6EB82"/>
<path d="M544.686 610.082C557.068 616.089 570.775 618.454 584.46 616.116C594.611 614.381 604.014 610.356 613.467 606.472C590.621 608.805 567.543 610.954 544.686 610.082Z" fill="#BDD269"/>
<path d="M951.148 477.078C933.028 501.717 907.637 519.816 879.614 533.302H133.817C109.25 516.335 89.7069 492.477 80.9135 464.497C79.9188 461.329 79.0834 458.117 78.4074 454.879C78.215 453.979 78.0392 453.08 77.8853 452.174C69.1359 404 94.3673 349.683 140.89 331.881C108.975 330.47 70.5703 321.321 61.4307 291.309C56.2866 274.423 63.085 255.565 75.3902 242.726C83.1668 234.617 92.823 228.614 103.249 224.094C109.327 221.454 115.664 219.32 122.039 217.569C146.957 210.715 173.348 209.083 198.942 212.811C193.584 207.601 191.616 199.993 192.287 192.525C192.589 189.179 193.425 185.86 194.711 182.8C195.255 181.507 195.87 180.251 196.541 179.028C198.799 174.896 201.729 171.146 204.999 167.654C208.17 164.254 211.671 161.102 215.199 158.08C221.662 152.535 228.351 147.271 235.242 142.276C235.297 142.233 235.352 142.19 235.407 142.153C235.319 142.072 235.231 141.991 235.143 141.91C233.396 140.278 232.093 138.316 231.582 135.967C231.077 133.672 231.423 131.339 232.148 129.076C232.632 127.556 233.286 126.075 233.978 124.652C237.1 118.192 241.008 112.109 245.569 106.532C252.774 97.7013 261.611 90.1527 271.564 84.4306C258.078 91.004 242.508 93.3855 227.62 91.144C225.399 90.81 223.146 90.3628 221.217 89.2313C218.639 87.7227 216.881 85.1364 215.732 82.4154C211.627 72.7062 214.688 61.1489 221.157 52.7597C227.625 44.376 237.023 38.6593 246.569 33.8693C275.038 19.591 324.715 -17.6241 369.231 9.85484C381.707 9.88717 392.292 16.2343 393.754 17.0964C401.294 21.5469 405.746 31.2669 402.52 39.295C400.959 43.1798 397.898 46.2725 394.803 49.1444C387.824 55.61 380.278 61.4883 372.276 66.6932C378.552 64.5972 385.746 69.1663 387.857 75.3302C388.544 77.3399 388.78 79.4305 388.659 81.5156C419.04 77.4638 449.998 77.5016 480.33 81.9628C505.457 85.659 532.255 93.6064 546.769 114.049C551.616 120.875 554.645 128.682 556.024 136.835C556.288 138.37 556.491 139.917 556.634 141.468C557.777 153.791 555.326 166.609 549.836 177.794C542.829 192.083 531.48 203.872 518.147 212.994C512.382 216.119 506.688 219.385 501.082 222.784C506.99 219.966 512.733 216.701 518.147 212.994C590.554 173.683 674.883 155.822 757.408 161.803C771.132 162.794 784.8 164.448 798.358 166.776C802.035 167.401 805.706 168.085 809.366 168.813C821.627 171.259 833.96 174.314 845.336 179.287C847.821 180.37 850.261 181.544 852.646 182.827C855.18 184.19 857.647 185.666 860.038 187.283C863.66 189.729 867.084 192.536 870.2 195.634C875.965 201.372 880.675 208.124 883.604 215.467C885.621 220.538 886.797 225.893 886.88 231.4C886.891 232.068 886.885 232.736 886.863 233.399C886.852 233.798 886.836 234.196 886.808 234.595C886.451 240.705 884.83 246.61 882.34 252.246C878.229 261.557 871.738 270.124 864.654 277.608C850.42 292.656 833.202 304.925 814.318 313.767C796.061 317.641 778.051 323.174 760.283 328.848C779.002 326.903 797.336 321.725 814.318 313.767C830.553 310.313 846.98 308.169 863.594 308.395C863.973 308.4 864.358 308.406 864.737 308.416C899.679 309.149 935.936 321.951 956.93 349.312C962.689 356.817 966.987 365.082 969.938 373.795C970.136 374.36 970.323 374.926 970.499 375.497C981.056 408.747 972.411 448.171 951.148 477.078Z" fill="#C4E2FC"/>
<path d="M969.94 373.795C948.072 377.529 926.33 382.066 904.765 387.351C874.878 394.668 845.31 403.381 816.248 413.553L805.372 417.438C803.564 418.095 801.745 418.726 799.942 419.394L794.545 421.441L783.746 425.536C781.938 426.204 780.157 426.932 778.371 427.648L773.018 429.814L762.318 434.157L751.7 438.694C744.594 441.668 737.597 444.879 730.585 448.053C728.831 448.856 727.073 449.631 725.331 450.45L720.121 452.94L709.7 457.918C707.958 458.732 706.243 459.61 704.523 460.467L699.363 463.058L689.053 468.242C682.26 471.755 675.67 475.165 669.026 477.735C666.525 478.705 664.013 479.556 661.513 480.235C659.902 484.487 658.039 488.533 656.099 492.45L649.208 482.089C653.264 482.03 657.38 481.356 661.513 480.235C662.26 478.247 662.953 476.216 663.574 474.136C664.063 472.498 664.503 470.828 664.871 469.114C665.239 467.401 665.552 465.65 665.756 463.85C666.179 460.267 666.228 456.474 665.613 452.6C665.299 450.666 664.821 448.721 664.151 446.803C663.469 444.89 662.59 443.026 661.54 441.258C660.507 439.48 659.238 437.869 657.88 436.307C656.468 434.814 654.978 433.386 653.368 432.201C650.18 429.755 646.734 428.004 643.327 426.625C639.903 425.24 636.496 424.297 633.154 423.51C631.483 423.117 629.824 422.783 628.191 422.476L623.339 421.635C621.723 421.36 620.091 421.161 618.464 420.919C616.843 420.671 615.21 420.498 613.578 420.321C607.049 419.604 600.487 419.157 593.919 419.108C587.352 419.044 580.779 419.275 574.233 419.83C567.688 420.412 561.175 421.333 554.717 422.54C541.813 424.895 529.079 428.85 517.126 433.403C505.112 437.918 493.609 442.972 482.101 447.304C476.352 449.47 470.615 451.496 464.855 453.166C461.975 454.028 459.095 454.745 456.21 455.429C453.325 456.059 450.439 456.657 447.559 457.061C441.794 457.956 436.035 458.295 430.346 458.042C429.632 458.031 428.923 457.972 428.22 457.913L426.093 457.74L423.982 457.482L422.927 457.352L421.899 457.191C419.179 456.744 416.607 456.119 414.293 455.267C411.979 454.411 409.962 453.317 408.319 452.002C406.681 450.709 405.219 448.963 403.812 446.846C402.411 444.691 401.109 442.207 399.724 439.464C399.037 438.106 398.306 436.662 397.547 435.218C396.75 433.747 395.959 432.26 395.008 430.736C393.112 427.708 390.969 424.787 388.54 422.125C386.094 419.48 383.412 417.061 380.56 414.895C377.702 412.729 374.646 410.881 371.519 409.237C368.386 407.594 365.138 406.247 361.846 405.11C360.208 404.512 358.538 404.049 356.878 403.553C355.207 403.122 353.536 402.68 351.855 402.341C348.491 401.635 345.111 401.101 341.731 400.773C338.351 400.433 334.966 400.239 331.597 400.229C328.228 400.207 324.87 400.309 321.529 400.584C318.187 400.843 314.862 401.225 311.565 401.764C308.267 402.281 304.992 402.928 301.749 403.725C300.122 404.097 298.507 404.555 296.907 404.992L292.219 406.409L291.049 406.764L289.9 407.152L287.597 407.928L285.295 408.709C284.525 408.973 283.778 409.259 283.019 409.528C270.884 413.903 259.327 419.033 247.807 423.683C244.922 424.863 242.053 425.983 239.173 427.109C236.294 428.171 233.414 429.281 230.517 430.235C227.632 431.264 224.719 432.115 221.812 433.015L217.432 434.2L216.333 434.496L215.233 434.744L213.03 435.245L210.82 435.741C210.084 435.897 209.347 436.01 208.605 436.151L206.391 436.544L205.28 436.743L204.731 436.835L204.22 436.91C201.505 437.293 198.845 437.379 196.828 436.948C195.822 436.743 195.047 436.409 194.487 436.032C194.421 435.983 194.349 435.94 194.278 435.897C194.206 435.849 194.157 435.784 194.096 435.736C194.036 435.682 193.965 435.639 193.91 435.579C193.86 435.515 193.805 435.455 193.75 435.396C193.519 435.17 193.349 434.911 193.179 434.572C192.838 433.898 192.558 432.939 192.415 431.738C192.261 430.547 192.217 429.168 192.184 427.627L191.354 390.573L191.2 383.66L185.012 386.618C172.707 392.491 160.627 398.795 148.772 405.466C136.907 412.12 125.31 419.211 113.945 426.619C102.602 434.055 91.5054 441.84 80.7116 449.998L77.8867 452.175C78.0406 453.08 78.2165 453.98 78.4088 454.879L82.3548 452.228C93.5939 444.782 105.042 437.654 116.693 430.892C128.322 424.103 140.188 417.718 152.196 411.635C162.116 406.63 172.168 401.883 182.319 397.384L182.429 390.6L188.771 394.555C186.617 395.487 184.468 396.43 182.319 397.384L181.824 427.659C181.802 429.205 181.775 430.924 181.945 432.799C182.11 434.669 182.489 436.77 183.451 438.92C183.924 439.987 184.567 441.07 185.353 442.018L185.946 442.729C186.155 442.956 186.386 443.171 186.606 443.387C186.831 443.597 187.051 443.818 187.287 444.017L188.013 444.577C189.98 446.048 192.173 446.943 194.223 447.449C196.289 447.966 198.268 448.155 200.158 448.204C202.049 448.247 203.868 448.134 205.627 447.945L206.286 447.87L206.902 447.783L208.122 447.6L210.567 447.239C211.381 447.115 212.2 447.013 213.008 446.862L215.426 446.393L217.839 445.919L219.048 445.682L220.24 445.396L225.005 444.26C228.132 443.397 231.287 442.568 234.354 441.576C237.459 440.65 240.481 439.583 243.526 438.559C246.538 437.481 249.555 436.42 252.517 435.283C264.41 430.806 275.952 426.021 287.586 422.152C288.312 421.91 289.037 421.651 289.763 421.42L291.944 420.741L294.126 420.062L295.22 419.722L296.314 419.421L300.683 418.192C302.128 417.831 303.546 417.454 304.992 417.152C307.877 416.5 310.795 415.983 313.719 415.579C316.648 415.153 319.594 414.873 322.534 414.701C334.285 414.011 346.156 415.25 356.73 419.044C359.362 419.992 361.923 421.091 364.319 422.4C366.727 423.704 369.029 425.143 371.134 426.792C373.239 428.435 375.179 430.245 376.938 432.196C378.685 434.162 380.197 436.301 381.571 438.548C382.252 439.664 382.906 440.924 383.566 442.196L385.577 446.253C386.946 449.06 388.485 452.099 390.441 455.176C392.436 458.247 394.931 461.404 398.179 464.034C401.394 466.652 404.989 468.549 408.55 469.901C412.122 471.259 415.695 472.116 419.179 472.724L420.481 472.935L421.767 473.107L424.345 473.446L426.928 473.678C427.791 473.754 428.648 473.834 429.511 473.861C436.408 474.222 443.295 473.856 449.978 472.87C453.336 472.401 456.622 471.733 459.887 471.033C463.129 470.273 466.355 469.47 469.504 468.538C475.836 466.717 481.963 464.567 487.981 462.32C500.006 457.8 511.553 452.837 523.056 448.462C528.805 446.275 534.537 444.238 540.302 442.552C543.176 441.673 546.094 440.935 549.007 440.186L553.404 439.179C554.871 438.839 556.355 438.586 557.834 438.284C563.747 437.164 569.716 436.301 575.723 435.746C581.724 435.208 587.753 434.933 593.782 434.949C599.816 434.938 605.845 435.305 611.841 435.913C613.342 436.064 614.842 436.21 616.331 436.431C617.826 436.641 619.327 436.802 620.811 437.05L625.268 437.783C626.735 438.042 628.164 438.322 629.56 438.64C632.346 439.265 635.017 440.008 637.435 440.951C639.859 441.894 642.063 443.004 643.855 444.351C644.789 445.003 645.547 445.752 646.3 446.501C646.982 447.282 647.68 448.101 648.213 449.006C648.757 449.906 649.224 450.844 649.603 451.84C649.966 452.848 650.246 453.904 650.45 455.014C651.236 459.475 650.549 464.772 649.048 470.09C647.537 475.424 645.273 480.823 642.734 486.232L637.666 497.014L649.62 496.588C654.044 496.432 658.38 495.758 662.524 494.724C666.673 493.695 670.636 492.321 674.428 490.769C682.018 487.66 688.948 483.872 695.658 480.241L705.71 474.874L710.739 472.202C712.415 471.307 714.081 470.402 715.784 469.556L725.941 464.4L731.024 461.819C732.717 460.968 734.437 460.16 736.146 459.324C742.994 456.032 749.793 452.622 756.723 449.491L767.077 444.701L777.525 440.1L782.746 437.799C784.488 437.029 786.225 436.253 787.983 435.531L798.519 431.113L803.784 428.898C805.548 428.176 807.323 427.487 809.093 426.781L819.711 422.562C823.239 421.123 826.828 419.825 830.389 418.467L841.09 414.426L851.862 410.579L857.253 408.661C859.05 408.009 860.847 407.368 862.661 406.77L873.51 403.111L878.94 401.285L884.397 399.555L895.323 396.085L898.054 395.212L900.797 394.393L906.292 392.755C927.501 386.414 948.913 380.67 970.5 375.498C970.325 374.926 970.138 374.361 969.94 373.795Z" fill="#D5EBFD"/>
<path d="M182.427 390.6L188.77 394.555C186.615 395.487 184.466 396.43 182.317 397.384L182.427 390.6Z" fill="white"/>
<path d="M661.513 480.235C659.902 484.486 658.039 488.532 656.099 492.45L649.207 482.088C653.263 482.029 657.38 481.356 661.513 480.235Z" fill="white"/>
<path d="M863.592 308.395C863.972 308.401 864.356 308.406 864.736 308.417C751.895 355.072 628.343 375.767 506.912 395.757C630.904 369.312 723.531 263.389 845.627 229.509C718.249 247.414 600.688 306.418 475.217 334.43C355.793 361.09 231.916 359.134 109.452 357.044C317.767 342.238 519.393 275.566 707.725 187.035C724.388 179.201 741.403 171.221 757.407 161.803C771.13 162.795 784.799 164.449 798.357 166.776C779.935 182.887 758.067 196.567 739.425 203.41C775.555 190.139 814.069 183.237 852.645 182.827C855.178 184.19 857.646 185.667 860.037 187.283C874.98 197.38 886.604 213.609 886.878 231.4C887.142 248.858 876.76 264.806 864.653 277.608C850.419 292.657 833.2 304.925 814.317 313.767C830.551 310.313 846.979 308.169 863.592 308.395Z" fill="#D5EBFD"/>
<path d="M192.286 192.526C255.989 195.274 319.691 198.016 383.399 200.759C290.013 208.539 196.634 216.314 103.248 224.094C109.326 221.454 115.663 219.32 122.038 217.569C146.957 210.716 173.348 209.083 198.942 212.812C193.583 207.602 191.616 199.994 192.286 192.526Z" fill="#D5EBFD"/>
<path d="M556.634 141.469C525.572 147.697 493.239 150.106 461.611 152.616C373.084 159.648 284.776 169.05 196.541 179.029C198.799 174.896 201.729 171.146 204.999 167.654C231.967 166.442 259.017 163.398 285.914 161.173C375.925 153.705 468.382 155.041 556.024 136.835C556.288 138.371 556.491 139.917 556.634 141.469Z" fill="#D5EBFD"/>
<path d="M500.534 225.479C506.139 222.079 511.833 218.814 517.598 215.688C512.185 219.395 506.442 222.661 500.534 225.479Z" fill="#D7F1F4"/>
<path d="M819.617 546.232H739.651L740.751 347.144L819.617 410.453V546.232Z" fill="#446782"/>
<path d="M819.891 535.188H739.651V546.503H819.891V535.188Z" fill="#CCCCCC"/>
<path d="M740.477 309.677H234.309V556.47H740.477V309.677Z" fill="#446782"/>
<path d="M298.593 337.862L327.688 350.858L409.972 416.775L409.956 424.857L391.819 424.82L391.506 556.74L331.761 556.606L298.593 337.862Z" fill="#3B5C72"/>
<path d="M740.201 318.05H489.59V556.74H740.201V318.05Z" fill="#507493"/>
<path d="M740.75 537.881H489.59V556.739H740.75V537.881Z" fill="#F3F0ED"/>
<path d="M829.772 482.779C840.231 486.712 848.898 495.015 853.14 505.177C856.119 503.065 860.444 503.533 863.495 505.548C866.545 507.569 868.496 510.84 869.837 514.202C872.969 510.743 878.548 509.972 882.835 511.896C887.121 513.825 890.062 518.07 890.996 522.602C894.662 521.551 901.779 520.096 904.527 524.407C910.022 520.635 917.096 520.7 921.564 523.329C924.312 524.945 925.96 529.256 925.96 532.489C925.96 532.489 902.878 532.489 891.886 532.489C880.894 532.489 815.494 532.489 815.494 532.489C808.965 533.049 808.866 528.868 802.985 526.028C801.166 525.15 799.441 523.879 798.578 522.074C797.968 520.797 797.836 519.353 797.715 517.946C797.248 512.515 796.786 507.084 796.319 501.648C795.951 497.321 794.516 491.895 795.473 487.612C796.946 480.99 808.525 480.3 813.906 480.155C819.577 480.009 824.381 481.459 829.772 482.779Z" fill="#8C9754"/>
<path d="M801.205 425.342H749.544V499.288H801.205V425.342Z" fill="#EAEAEA"/>
<path d="M795.984 432.814H754.765V491.813H795.984V432.814Z" fill="#9EC1E5"/>
<path d="M825.441 420.377L740.212 348.698V339.536L825.441 411.215V420.377Z" fill="#EAEAEA"/>
<path d="M738.002 302.425L234.704 300.011L243.722 290.841L244.25 290.302L253.521 280.873L254.055 280.334L263.326 270.905L263.854 270.366L273.125 260.937L273.658 260.398L282.93 250.969L283.457 250.43L292.729 241.001L293.256 240.462L302.528 231.033L303.061 230.495L312.332 221.065L312.86 220.527L322.132 211.098L322.665 210.559L331.936 201.13L332.464 200.591L341.735 191.162L342.268 190.623L349.88 182.881L621.369 181.124L630.503 190.623L631.02 191.162L640.088 200.591L640.605 201.13L649.673 210.559L650.19 211.098L659.258 220.527L659.774 221.065L668.843 230.495L669.359 231.033L678.422 240.462L678.944 241.001L688.007 250.43L688.529 250.969L697.591 260.398L698.113 260.937L707.176 270.366L707.693 270.905L716.761 280.334L717.277 280.873L726.346 290.302L726.862 290.841L738.002 302.425Z" fill="#C9B9C9"/>
<g opacity="0.42">
<path opacity="0.42" d="M631.022 191.163H341.737L342.27 190.624H630.506L631.022 191.163Z" fill="#EAEAEA"/>
<path opacity="0.42" d="M640.607 201.131H331.938L332.466 200.592H640.09L640.607 201.131Z" fill="#EAEAEA"/>
<path opacity="0.42" d="M650.191 211.099H322.133L322.666 210.559H649.675L650.191 211.099Z" fill="#EAEAEA"/>
<path opacity="0.42" d="M659.776 221.067H312.334L312.862 220.527H659.259L659.776 221.067Z" fill="#EAEAEA"/>
<path opacity="0.42" d="M669.361 231.034H302.53L303.063 230.495H668.845L669.361 231.034Z" fill="#EAEAEA"/>
<path opacity="0.42" d="M678.947 241.002H292.731L293.259 240.463H678.425L678.947 241.002Z" fill="#EAEAEA"/>
<path opacity="0.42" d="M688.531 250.97H282.932L283.459 250.431H688.009L688.531 250.97Z" fill="#EAEAEA"/>
<path opacity="0.42" d="M698.114 260.939H273.126L273.659 260.399H697.592L698.114 260.939Z" fill="#EAEAEA"/>
<path opacity="0.42" d="M707.694 270.906H263.328L263.855 270.366H707.178L707.694 270.906Z" fill="#EAEAEA"/>
<path opacity="0.42" d="M717.281 280.874H253.524L254.057 280.334H716.764L717.281 280.874Z" fill="#EAEAEA"/>
<path opacity="0.42" d="M726.864 290.842H243.724L244.251 290.303H726.347L726.864 290.842Z" fill="#EAEAEA"/>
</g>
<path d="M754.765 298.384H217.271V318.32H754.765V298.384Z" fill="#EAEAEA"/>
<path d="M489.59 321.282H657.07L574.226 263.092L489.59 321.282Z" fill="#507493"/>
<path d="M626.712 172.842H344.225V183.618H626.712V172.842Z" fill="#507493"/>
<path d="M478.598 424.733H406.053V556.471H478.598V424.733Z" fill="#F3F0ED"/>
<path d="M474.478 429.313H410.176V556.47H474.478V429.313Z" fill="#70AAA8"/>
<path d="M378.849 413.149H217.271V556.74H378.849V413.149Z" fill="#507493"/>
<path d="M378.849 544.347H217.271V556.74H378.849V544.347Z" fill="#CCCCCC"/>
<path d="M356.591 417.302H239.529V503.01H356.591V417.302Z" fill="#EAEAEA"/>
<path d="M349.173 424.733H246.949V495.586H349.173V424.733Z" fill="#9EC1E5"/>
<path d="M349.173 425.073V441.129C348.969 441.258 348.76 441.388 348.557 441.517C337.791 448.236 327.695 455.995 318.473 464.648C317.907 458.651 325.947 454.809 326.42 448.807C320.523 451.189 314.818 454.044 309.388 457.326C309.866 456.313 309.08 455.068 308.019 454.658C306.964 454.249 305.772 454.459 304.678 454.772C294.675 457.622 288.745 467.579 280.045 473.193C279.903 469.648 280.529 466.076 281.876 462.778C277.633 463.118 273.918 465.726 270.988 468.748C268.059 471.771 265.679 475.284 262.645 478.21C261.458 479.357 259.397 480.381 258.315 479.136C257.848 478.603 257.798 477.843 257.787 477.143C257.716 471.933 258.568 466.712 260.288 461.787C255.413 464.659 250.917 468.15 246.949 472.143V424.733H311.57C307.844 429.286 302.875 433.171 301.578 438.812C307.525 437.923 313.328 436.108 318.709 433.462C320.303 432.675 322.017 431.792 323.776 432.093C325.535 432.39 326.969 434.594 325.821 435.93C334.213 434.394 341.533 428.801 349.173 425.073Z" fill="#B9D5EF"/>
<path d="M276.351 424.733H270.855V495.317H276.351V424.733Z" fill="#EAEAEA"/>
<path d="M325.265 424.733H319.769V495.317H325.265V424.733Z" fill="#EAEAEA"/>
<path d="M468.157 377.636C468.168 379.005 468.074 380.347 467.865 381.656C466.189 392.583 457.379 401.241 446.201 402.895C445.014 403.073 443.794 403.17 442.551 403.181C441.155 403.192 439.787 403.1 438.452 402.895C427.306 401.252 418.474 392.615 416.787 381.656C416.605 380.492 416.506 379.296 416.495 378.078C416.485 376.71 416.578 375.368 416.787 374.059C418.463 363.132 427.273 354.473 438.452 352.819C439.639 352.641 440.859 352.544 442.101 352.534C443.497 352.523 444.865 352.614 446.201 352.819C457.346 354.462 466.178 363.099 467.865 374.059C468.047 375.223 468.14 376.419 468.157 377.636Z" fill="#F3F0ED"/>
<path d="M464.31 377.669C464.321 378.832 464.239 379.975 464.063 381.09C462.634 390.39 455.138 397.761 445.624 399.167C444.613 399.318 443.574 399.399 442.519 399.409C441.332 399.42 440.167 399.339 439.029 399.167C429.543 397.766 422.025 390.417 420.591 381.09C420.437 380.099 420.354 379.08 420.343 378.046C420.332 376.882 420.415 375.74 420.591 374.624C422.02 365.325 429.516 357.954 439.029 356.548C440.04 356.397 441.079 356.316 442.134 356.305C443.322 356.294 444.487 356.375 445.624 356.548C455.11 357.949 462.629 365.298 464.063 374.624C464.217 375.616 464.299 376.634 464.31 377.669Z" fill="#9EC1E5"/>
<path d="M464.31 377.669C464.321 378.832 464.239 379.975 464.063 381.09H445.624V399.167C444.613 399.318 443.574 399.399 442.519 399.409C441.332 399.42 440.167 399.339 439.029 399.167V381.09H420.591C420.437 380.099 420.354 379.08 420.343 378.046C420.332 376.882 420.415 375.74 420.591 374.624H439.029V356.548C440.04 356.397 441.079 356.316 442.134 356.305C443.322 356.294 444.487 356.375 445.624 356.548V374.624H464.063C464.217 375.616 464.299 376.634 464.31 377.669Z" fill="#F3F0ED"/>
<path d="M226.076 390.153C223.806 399.696 219.327 408.958 211.995 415.617C204.658 422.277 194.238 426.027 184.434 424.093C187.863 441.447 143.121 459.26 137.406 442.493C136.306 439.26 130.107 434.675 125.309 438.193C119.214 442.665 111.383 447.724 94.5435 448.457C81.903 449.007 70.9828 445.003 62.2444 439.809C48.9994 431.954 42.3989 414.755 47.0758 400.283C45.3336 400.515 43.6684 400.719 42.0636 400.876C33.0449 401.748 25.9388 401.08 18.1072 395.18C10.6658 389.571 5.9284 380.401 7.58265 371.198C7.67058 370.681 7.78599 370.158 7.91789 369.641C8.35756 367.955 9.01157 366.274 9.91838 364.619C9.03355 363.768 8.20917 362.863 7.44525 361.92C-0.166501 352.593 -2.22745 339.069 2.59241 328.067C5.07654 322.383 9.32482 317.544 14.5239 314.047C18.7997 311.176 23.713 309.22 28.8241 308.449C30.7531 308.158 32.7097 308.034 34.6717 308.099C34.7541 305.384 35.0839 302.517 36.7216 300.324C38.3649 298.126 41.6954 296.935 44.0146 298.433C39.3706 287.829 42.7945 274.925 50.5327 266.223C58.2763 257.522 69.6418 252.575 81.1776 250.253C81.4194 246.034 83.0242 242.026 85.4918 238.545C84.519 236.767 83.9145 234.779 83.6342 232.774C82.5515 225.113 85.6567 217.149 90.9547 211.416C105.019 196.206 123.996 193.911 137.296 200.204C138.631 200.834 139.912 201.556 141.121 202.354C146.617 205.985 148.436 213.787 146.853 220.102C146.204 222.683 144.951 225.016 143.33 227.139C144.451 227.537 145.556 227.974 146.65 228.453C154.096 231.708 160.768 236.885 165.39 243.421C165.676 243.831 165.957 244.24 166.22 244.66C167.446 246.541 168.507 248.529 169.364 250.603C170.738 253.922 171.458 257.699 171.315 261.326C171.309 261.45 171.304 261.579 171.298 261.703C171.013 266.627 169.095 271.229 164.989 273.966C175.613 268.966 189.561 272.096 196.915 281.121C200.855 285.96 202.691 292.237 202.411 298.417C202.18 303.762 200.361 309.031 196.959 313.234C205.208 312.55 213.567 318.051 216.057 325.783C218.541 333.525 214.914 342.723 207.752 346.801C216.189 349.269 222.657 356.462 225.548 364.614C228.428 372.766 228.071 381.748 226.076 390.153Z" fill="#B3C663"/>
<path d="M226.022 390.244C223.746 399.786 219.256 409.042 211.919 415.697C204.577 422.351 194.151 426.09 184.352 424.15C187.765 441.511 143.012 459.286 137.308 442.513C136.208 439.28 130.015 434.689 125.217 438.202C119.116 442.669 111.285 447.723 94.44 448.44C81.7996 448.978 70.8848 444.964 62.1464 439.765C48.9069 431.898 42.3229 414.694 47.0109 400.228C45.2687 400.459 43.6034 400.659 41.9986 400.815C32.9799 401.682 25.8738 401.009 18.0477 395.098C10.6119 389.484 5.87993 380.308 7.54517 371.105C9.70504 369.403 12.2111 368.115 14.8437 367.393C23.2798 365.092 32.4249 367.56 40.0311 371.811C47.6429 376.062 54.106 381.984 60.9923 387.291C67.8731 392.603 75.5013 397.442 84.1243 398.924C94.6763 400.745 106.058 397.006 113.357 389.317C122.227 379.979 125.118 365.701 135.659 358.217C138.489 356.202 142.127 354.774 145.463 355.798C149.393 357.01 151.492 361.062 154.378 363.945C158.225 367.792 164.006 369.688 169.442 368.885C174.877 368.083 179.834 364.607 182.363 359.823C184.319 356.121 184.83 351.865 185.149 347.705C186.045 336.056 185.759 324.008 190.255 313.195C192.689 307.338 197.064 301.907 202.428 298.48C202.192 303.825 200.367 309.094 196.965 313.292C205.214 312.613 213.568 318.119 216.052 325.857C218.531 333.599 214.892 342.797 207.731 346.87C216.168 349.343 222.631 356.541 225.51 364.699C228.385 372.856 228.022 381.838 226.022 390.244Z" fill="#8C9754"/>
<path d="M28.61 345.998C30.3082 348.724 34.1663 349.214 37.3814 348.702C41.5528 348.04 45.4439 346.219 49.0931 344.128C55.4299 340.502 61.25 335.998 66.3227 330.803C71.0547 325.954 73.2036 318.54 65.328 315.426C60.1344 313.373 51.9455 315.598 47.1366 318.163C39.5193 322.226 22.625 336.391 28.61 345.998Z" fill="#D6EB82"/>
<path d="M116.159 544.38C93.5926 545.457 70.9937 545.705 48.4003 545.953C43.1572 546.012 37.9142 546.066 32.6711 546.125C31.5445 546.136 30.3794 546.158 29.3406 546.594C28.6537 546.885 28.0546 547.348 27.3841 547.677C25.1583 548.776 22.1961 548.151 20.6297 546.249C20.4868 546.077 20.3495 545.883 20.3165 545.662C20.1956 544.875 21.2728 544.514 22.0806 544.455C25.0484 544.239 28.4174 543.76 30.0881 541.346C30.852 540.242 31.1653 538.824 32.1655 537.919C33.545 536.669 35.7158 536.831 37.5075 537.391C39.2991 537.952 41.0523 538.824 42.9264 538.76C43.1572 537.133 43.4155 535.452 44.3388 534.083C45.2621 532.714 47.0593 531.766 48.6311 532.321C50.0985 532.844 51.302 534.552 52.7859 534.088C52.1649 532.801 52.5881 531.114 53.7477 530.252C54.9073 529.39 56.677 529.455 57.7707 530.392C58.3697 530.909 58.7544 531.626 59.3205 532.176C59.8866 532.731 60.7824 533.102 61.4749 532.714C62.0244 532.407 62.2333 531.745 62.3817 531.141C63.0027 528.593 63.2995 525.963 64.0689 523.452C64.8383 520.942 66.1573 518.479 68.3557 516.981C70.5485 515.484 73.7526 515.209 75.8355 516.852C78.5669 519.007 78.2921 523.097 77.7591 526.497C77.3743 528.975 76.9841 531.454 76.5994 533.932C77.5667 532.79 78.534 531.648 79.5012 530.511C81.6391 527.989 83.9694 525.338 87.1844 524.411C90.394 523.485 94.6148 525.236 94.8896 528.506C93.3508 524.821 93.2244 520.5 94.9611 516.901C96.6977 513.301 100.396 510.57 104.447 510.338C108.497 510.106 112.68 512.606 113.949 516.389C113.35 514.368 113.037 512.262 113.02 510.16C113.015 509.282 113.086 508.334 113.658 507.655C114.142 507.084 114.889 506.814 115.598 506.572C118.709 505.51 121.979 504.476 125.232 504.945C128.491 505.413 131.695 507.881 131.811 511.103C131.921 514.12 129.469 516.593 128.513 519.465C127.628 522.127 128.063 525.058 127.381 527.779C126.232 532.38 122.165 535.629 118.34 538.523" fill="#8C9754"/>
<path d="M197.668 370.761C196.805 374.711 192.299 376.591 188.386 377.847C175.097 382.13 161.802 386.414 148.513 390.697C147.04 391.171 145.474 391.705 144.518 392.901C143.715 393.903 143.474 395.212 143.248 396.468C142.682 399.652 140.88 424.464 139.78 429.313C138.681 434.162 140.88 444.4 140.88 449.249C140.88 454.098 143.627 471.34 144.177 481.577C144.727 491.814 156.268 546.233 156.268 546.233L121.347 547.413L108.454 547.85C108.454 547.85 113.4 517.677 114.499 511.211C115.599 504.746 115.049 472.956 117.797 461.641C120.545 450.326 120.545 420.153 121.094 408.839C121.644 397.524 121.094 392.136 121.094 392.136L121.281 392.265C121.1 391.225 120.853 390.174 120.501 389.091C119.055 384.646 117.159 380.352 114.939 376.23C112.378 371.473 109.383 366.947 106.096 362.647C97.792 351.785 87.7236 342.356 77.7047 332.981C73.8631 329.387 69.9336 325.734 65.1302 323.519C61.9756 322.064 58.5187 321.272 55.485 319.591C52.4513 317.916 49.7583 314.995 49.7968 311.579C56.106 313.982 62.4153 316.38 68.73 318.783C67.5704 315.89 66.1964 313.077 64.6356 310.372C65.6578 309.57 66.6745 308.772 67.6968 307.975C70.1864 311.321 70.5326 315.739 72.3243 319.489C73.9346 322.867 76.6495 325.594 79.3205 328.25C89.5153 338.412 99.7101 348.568 109.905 358.725C108.608 351.596 106.607 344.586 103.942 337.83C102.255 333.546 100.287 329.311 99.5232 324.785C98.8637 320.895 99.1165 316.924 99.0176 312.986C98.7868 304.025 96.6874 295.113 92.8897 286.967C91.3784 283.718 89.5758 280.528 88.9932 277.01C88.4106 273.491 89.3394 269.445 92.3237 267.408C97.0941 280.625 100.952 294.165 103.854 307.894C107.822 293.158 120.556 282.538 132.608 272.909C133.911 274.704 132.064 277.026 130.41 278.518C123.419 284.817 117.396 292.15 112.609 300.189C110.768 303.292 109.086 306.531 108.218 310.011C106.563 316.622 107.921 323.573 109.614 330.173C111.658 338.115 114.181 345.923 116.709 353.73C123.864 346.801 131.02 339.872 138.176 332.943C140.33 330.852 142.506 328.746 144.243 326.31C146.634 322.959 148.14 319.09 149.612 315.265C151.552 310.243 153.492 305.221 155.427 300.205C156.021 298.675 156.642 297.102 157.818 295.954C158.999 294.801 160.901 294.197 162.368 294.973C158.142 302.851 154.729 311.148 152.201 319.699C160.736 314.015 169.271 308.325 177.806 302.641C179.197 301.714 180.664 300.76 182.335 300.561C183.637 304.041 180.565 307.527 177.663 309.909C172.404 314.23 166.781 318.136 160.884 321.574C156.059 324.387 151.019 326.908 146.617 330.33C141.281 334.478 137.054 339.823 132.883 345.109C128.805 350.276 124.727 355.443 120.649 360.616C119.968 361.478 119.259 362.415 119.198 363.504C119.143 364.49 119.633 365.411 120.105 366.284C121.908 369.587 123.705 372.895 125.508 376.203C133.856 365.961 142.198 355.723 150.541 345.481C152.476 343.105 155.185 340.465 158.169 341.289C150.75 349.98 143.792 359.048 137.335 368.445C136.186 370.12 135.032 371.839 134.416 373.768C132.916 378.488 134.829 383.531 136.719 388.111C140.803 383.827 144.864 379.528 148.903 375.201C163.517 359.554 177.839 343.649 191.848 327.479C193.31 328.007 193.887 329.845 193.508 331.326C193.129 332.803 192.051 333.999 191.018 335.141C177.971 349.533 165.963 364.829 155.114 380.886C168.969 376.327 183.225 372.938 197.668 370.761Z" fill="#A06056"/>
<path d="M481.35 575.398H404.957L410.475 558.895H475.832L481.35 575.398Z" fill="#EAEDEF"/>
<path d="M481.347 575.399H404.954V577.974H481.347V575.399Z" fill="#B3B9BC"/>
<path d="M690.909 641.116C648.739 656.962 590.857 656.472 549.056 656.423H549.001C522.23 656.391 495.466 654.872 468.728 653.034C467.014 652.916 465.304 652.797 463.595 652.679L495.636 559.972H662.71L678.648 604.434C674.91 604.574 671.179 604.591 667.447 604.456C669.915 605.178 674.388 606.158 679.642 607.414L690.909 641.116Z" fill="#EAEDEF"/>
<path d="M676.68 325.863H623.139V312.932H635.549L574.226 269.962L512.909 312.932H526.412V325.863H471.767L574.226 254.067L676.68 325.863Z" fill="#F3F0ED"/>
<path d="M623.139 312.931H635.549L574.226 269.961L512.909 312.931H526.412V325.862H491.376L574.226 267.806L657.071 325.862H623.139V312.931Z" fill="#B1B1AF"/>
<path d="M133.185 237.887C125.007 228.857 129.195 214.617 135.158 204.045C135.883 202.757 136.631 201.481 137.394 200.22C138.73 200.85 140.011 201.572 141.22 202.375C146.71 206.012 148.524 213.814 146.935 220.128C146.287 222.709 145.028 225.042 143.407 227.16C144.528 227.559 145.633 227.995 146.727 228.475C154.173 231.734 160.84 236.918 165.456 243.459C164.863 243.556 164.275 243.642 163.692 243.717C152.975 245.129 140.368 245.813 133.185 237.887Z" fill="#D6EB82"/>
<path d="M65.9324 280.996C61.9477 282.974 59.9087 288.06 61.4476 292.171C65.4927 292.031 69.4609 290.296 72.2694 287.435C73.7808 285.899 74.9954 283.954 75.1218 281.821C75.2483 279.687 74.0501 277.397 71.9891 276.708C68.521 277.85 65.5531 280.382 63.9153 283.588" fill="#D6EB82"/>
<path d="M99.7209 281.783C100.43 283.776 101.315 285.969 103.271 286.853C106.074 288.119 109.256 285.926 111.064 283.475C115.258 277.801 116.148 269.94 113.329 263.507C112.405 261.4 111.009 259.358 108.894 258.388C107.008 257.521 99.1878 265.29 98.3469 267.23C96.4399 271.616 98.2315 277.591 99.7209 281.783Z" fill="#D6EB82"/>
<path d="M86.8228 413.876C86.1193 413.1 84.8112 413.547 83.9428 414.151C81.8378 415.611 80.1835 417.691 79.2437 420.046C83.2448 420.601 87.4493 417.901 88.5375 414.086C87.6857 413.698 86.6249 413.795 85.8664 414.34" fill="#B3C663"/>
<path d="M175.277 397.594C174.86 400.977 175.003 404.426 175.706 407.761C176.025 409.275 177.064 411.15 178.591 410.773C179.498 406.748 178.894 402.411 176.915 398.774C176.442 397.906 175.602 396.953 174.634 397.217" fill="#B3C663"/>
<path d="M188.824 386.145C190.709 389.555 194.579 391.818 198.536 391.829C199.096 391.829 199.685 391.78 200.146 391.479C200.954 390.951 201.114 389.781 200.718 388.909C200.322 388.036 199.52 387.416 198.69 386.915C195.804 385.175 192.259 384.512 188.923 385.088" fill="#B3C663"/>
<path d="M197.668 370.761C196.805 374.71 192.298 376.591 188.385 377.846C175.096 382.13 161.801 386.413 148.512 390.697C147.04 391.171 145.473 391.704 144.517 392.9C143.715 393.903 143.473 395.212 143.247 396.467C142.681 399.652 140.879 424.464 139.779 429.313C138.68 434.162 140.879 444.399 140.879 449.248C140.879 454.098 143.627 471.339 144.176 481.577C144.726 491.814 156.267 546.233 156.267 546.233L121.346 547.413C121.203 546.761 121.077 546.088 120.962 545.392C119.39 535.78 118.538 526.055 118.4 516.319C118.274 507.299 121.621 495.855 120.148 487.191C122.27 499.659 124.391 512.132 126.518 524.6C126.996 509.961 127.474 495.327 127.958 480.693C129.98 495.569 133.465 510.252 138.34 524.476C133.871 495.084 131.437 465.402 131.057 435.692C130.228 443.3 128.997 450.87 127.381 458.354C126.853 442.734 127.87 427.066 130.403 411.635C130.09 415.164 130.508 418.758 131.624 422.131C130.211 412.33 131.365 402.179 134.954 392.927C136.13 395.185 137.306 397.448 138.482 399.711C136.801 391.451 142.33 383.606 147.556 376.92C148.007 376.348 148.452 375.772 148.903 375.201C163.516 359.554 177.838 343.648 191.847 327.479C193.309 328.007 193.886 329.844 193.507 331.326C193.128 332.802 192.051 333.999 191.018 335.141C177.97 349.532 165.962 364.829 155.113 380.885C168.968 376.327 183.224 372.938 197.668 370.761Z" fill="#44213D"/>
<path d="M138.268 550.259C136.691 547.473 137.229 543.696 139.521 541.438C141.813 539.181 145.665 538.642 148.512 540.178C148.463 538.809 148.534 537.381 149.194 536.174C149.853 534.967 151.238 534.046 152.612 534.299C150.375 532.365 150.458 528.432 152.771 526.584C155.085 524.736 159.026 525.458 160.51 527.995C162.263 531.007 160.554 534.967 161.84 538.195C163.159 536.465 166.231 537.306 167.308 539.192C168.385 541.077 168.083 543.389 167.753 545.523C169.358 544.413 171.6 544.267 173.337 545.156C175.074 546.045 176.239 547.931 176.233 549.854C175.678 549.865 175.123 549.876 174.563 549.892L138.268 550.259Z" fill="#8C9754"/>
<path d="M126.43 416.921C127.424 408.434 128.7 399.986 130.249 391.581C130.898 392.82 131.552 394.059 132.2 395.298C132.156 388.418 131.684 381.543 130.793 374.721C130.898 376.074 130.755 377.448 130.381 378.757C124.407 376.979 121.753 370.077 116.537 366.715C117.906 370.589 119.961 374.231 122.583 377.426C127.364 383.267 126.105 387.82 126.188 395.121C126.265 402.195 127.254 409.9 126.43 416.921Z" fill="#C38266"/>
<path d="M121.342 468.754C120.803 472.423 120.171 476.259 121.397 479.767C122.161 476.055 123.568 472.466 125.53 469.201C126.041 471.782 126.552 474.363 127.063 476.938C126.706 473.129 126.349 469.32 125.991 465.516C125.634 461.69 126.547 446.803 123.419 445.17C122.15 452.854 122.479 460.963 121.342 468.754Z" fill="#C38266"/>
<path d="M375.277 406.413H221.942L298.884 344.99L375.277 406.413Z" fill="#325268"/>
<path d="M359.812 406.414H244.141L302.182 360.077L359.812 406.414Z" fill="#446782"/>
<path d="M298.335 340.143L202.157 415.306H393.962L298.335 340.143ZM301.973 356.123L337.168 383.786H301.973V356.123ZM294.279 383.786H259.243L294.279 356.409V383.786ZM294.279 391.329V405.031L261.611 391.329H294.279ZM301.973 405.068V391.329H334.975L302.22 405.068H301.973ZM349.468 393.452L364.246 405.068H321.78L349.468 393.452ZM246.959 393.387L274.812 405.068H232.016L246.959 393.387Z" fill="#F3F0ED"/>
<path d="M348.897 469.993H246.674V472.687H348.897V469.993Z" fill="#EAEAEA"/>
<path d="M348.897 436.586H246.674V437.707H348.897V436.586Z" fill="#EAEAEA"/>
<path d="M348.897 454.905H246.674V456.026H348.897V454.905Z" fill="#EAEAEA"/>
<path d="M291.213 424.733H290.07V472.17H291.213V424.733Z" fill="#EAEAEA"/>
<path d="M306.052 424.733H304.908V472.17H306.052V424.733Z" fill="#EAEAEA"/>
<path d="M251.091 424.733H249.949V472.17H251.091V424.733Z" fill="#EAEAEA"/>
<path d="M265.931 424.733H264.788V472.17H265.931V424.733Z" fill="#EAEAEA"/>
<path d="M329.133 424.733H327.99V472.17H329.133V424.733Z" fill="#EAEAEA"/>
<path d="M343.972 424.733H342.829V472.17H343.972V424.733Z" fill="#EAEAEA"/>
<path d="M886.879 231.4C886.89 232.069 886.885 232.737 886.863 233.399C886.852 233.798 886.835 234.197 886.808 234.596C886.39 234.536 706.676 235.075 706.676 235.075C717.118 225.377 733.605 224.299 750.643 230.226C748.939 226.61 752.759 214.31 756.82 214.358C760.881 214.407 766.734 218.011 769.878 220.527C771.439 219.294 766.745 216.174 766.317 214.256C765.932 212.553 767.334 210.856 769.004 210.269C770.681 209.681 772.527 209.94 774.269 210.263C781.183 211.551 787.894 213.835 794.131 217.02C791.554 213.34 788.883 209.39 788.734 204.934C788.592 200.478 792.158 195.602 796.687 196.06C798.896 196.281 800.781 197.671 802.496 199.067C808.497 203.959 813.878 209.59 818.478 215.775C822.963 211.723 829.167 209.557 835.257 209.924C836.246 209.978 837.296 210.128 838.065 210.716C838.049 209.315 838.192 207.914 838.494 206.545C838.955 204.476 839.818 202.413 841.423 200.996C843.836 198.873 847.513 198.62 850.612 199.557C853.723 200.495 856.388 202.434 858.988 204.342C859.29 200.904 862 198.027 865.171 196.529C866.462 195.92 867.831 195.495 869.227 195.204C869.551 195.344 869.875 195.489 870.199 195.635C875.965 201.373 880.675 208.124 883.604 215.468C885.621 220.538 886.797 225.894 886.879 231.4Z" fill="white"/>
<path d="M796.166 432.999L796.067 443.694C792.193 448.285 786.966 451.582 781.822 454.799C780.986 455.327 779.975 455.866 779.057 455.505C778.37 455.241 777.98 454.546 777.634 453.91C776.546 451.873 775.463 449.842 774.375 447.811C772.457 450.726 771.484 454.223 771.632 457.687C767.626 456.27 764.263 453.21 762.537 449.4C759.52 456.868 756.86 464.481 754.59 472.202L754.953 432.644L796.166 432.999Z" fill="#B9D5EF"/>
<path d="M238.441 569.627C227.372 568.744 215.847 568.388 204.268 567.838C212.803 566.949 220.717 566.632 226.334 566.357C249.828 565.215 271.971 568.668 294.307 573.474C275.692 572.138 257.039 571.114 238.441 569.627Z" fill="#B3C663"/>
<path d="M639.902 376.51H514.597V556.47H639.902V376.51Z" fill="#E4E4DD"/>
<path d="M514.323 391.597H639.629" stroke="#A7A0A0" stroke-miterlimit="10"/>
<path d="M514.323 406.684H639.628" stroke="#A7A0A0" stroke-miterlimit="10"/>
<path d="M514.323 421.77H639.628" stroke="#A7A0A0" stroke-miterlimit="10"/>
<path d="M514.323 436.856H639.628" stroke="#A7A0A0" stroke-miterlimit="10"/>
<path d="M514.323 451.942H639.628" stroke="#A7A0A0" stroke-miterlimit="10"/>
<path d="M514.323 467.029H639.628" stroke="#A7A0A0" stroke-miterlimit="10"/>
<path d="M514.323 482.116H639.628" stroke="#A7A0A0" stroke-miterlimit="10"/>
<path d="M514.323 497.202H639.628" stroke="#A7A0A0" stroke-miterlimit="10"/>
<path d="M514.323 512.288H639.628" stroke="#A7A0A0" stroke-miterlimit="10"/>
<path d="M514.323 527.375H639.628" stroke="#A7A0A0" stroke-miterlimit="10"/>
<path d="M514.323 542.461H639.628" stroke="#A7A0A0" stroke-miterlimit="10"/>
<path d="M457.715 440.359H427.488V452.751H457.715V440.359Z" fill="#D1BD59"/>
<path d="M585.356 549.736H567.77V551.891H585.356V549.736Z" fill="#446782"/>
</svg>
