<svg width="800" height="536" viewBox="0 0 800 536" fill="none" xmlns="http://www.w3.org/2000/svg">
<path d="M21.0449 395.303H786.671C789.687 391.124 792.33 386.545 794.497 381.306C805.838 353.865 798.377 326.412 783.696 302.597C767.791 276.802 727.74 256.232 701.237 272.157C719.696 252.946 742.958 216.54 736.846 185.785C730.84 155.579 692.947 149.351 670.865 149.436C657.147 149.484 644.653 152.499 631.723 155.834C640.033 144.993 649.863 134.82 651.884 119.392C654.354 100.552 634.552 85.2777 619.698 88.5072C620.046 75.5326 615.309 61.3494 605.079 55.5936C581.607 42.3886 561.28 65.6177 543.54 79.4816C550.508 59.9751 539.878 39.4016 528.314 25.8044C499.98 -7.50932 441.513 -3.92411 407.552 10.6431C369.671 26.8917 341.212 60.6016 343.479 110.148C344.26 127.193 348.843 144.08 353.382 160.163C334.858 142.94 314.377 153.142 306.019 175.971C304.838 151.909 276.702 135.632 259.415 131.91C243.676 128.519 228.724 130.438 217.019 143.74C218.919 133.385 217.476 119.133 208.005 111.558C195.88 101.858 184.966 104.283 179.712 108.325C179.712 108.325 175.266 77.6061 128.379 78.4145C76.2054 79.3158 90.8535 132.112 90.8535 132.112C90.8535 132.112 22.8073 138.874 31.5621 225.226C38.2556 291.251 26.8047 364.488 21.0449 395.303Z" fill="#DAE8EF"/>
<path d="M1.0011 391.868C1.43762 394.766 28.1347 414.725 43.7285 414.98C44.3025 430.763 76.0278 432.412 86.8885 433.273C87.5554 443.403 103.319 450.678 117.062 442.594C140.178 482.387 188.604 492.31 227.827 483.77C225.527 509.028 269.148 520.838 286.246 524.803C332.692 535.567 388.794 539.504 435.822 531.206C470.094 525.159 513.658 512.791 536.455 484.202C542.809 476.231 550.759 464.485 551.111 453.839C572.59 480.588 638.372 479.267 669.079 451.935C676.221 445.577 679.673 437.716 684.814 430.048C700.315 436.531 711.633 428.447 713.654 418.342C727.396 429.66 751.244 436.531 769.837 421.98C779.833 414.159 780.496 400.057 779.95 391.868H1.0011Z" fill="#D9B98E"/>
<path d="M280.356 371.86H288.238V391.665H280.356V371.86Z" fill="#834B3B"/>
<path d="M311.479 371.86H319.361V391.665H311.479V371.86Z" fill="#834B3B"/>
<path d="M341.794 371.86H349.676V391.665H341.794V371.86Z" fill="#834B3B"/>
<path d="M280.639 380.348H357.679C363.863 380.348 368.875 375.336 368.875 369.152V295.75C368.875 289.566 363.863 284.554 357.679 284.554H280.639C274.455 284.554 269.443 289.566 269.443 295.75V369.152C269.443 375.336 274.455 380.348 280.639 380.348Z" fill="#784237"/>
<path d="M651.407 391.666H659.896V360.139H642.111L651.407 391.666Z" fill="#606B6D"/>
<path d="M590.779 391.666H599.267V360.139H581.482L590.779 391.666Z" fill="#606B6D"/>
<path d="M421.825 391.666H413.337V360.139H431.121L421.825 391.666Z" fill="#606B6D"/>
<path d="M362.004 391.666H353.516V360.139H371.301L362.004 391.666Z" fill="#606B6D"/>
<path d="M584.715 210.99H596.033V258.281H584.715V210.99Z" fill="#784237"/>
<path d="M332.497 305.762V356.109C332.497 360.567 336.111 364.18 340.569 364.18H668.517C674.471 364.18 679.297 359.354 679.297 353.4V258.807C679.297 252.934 674.54 248.176 668.667 248.176H401.146C397.072 248.176 393.446 250.759 392.12 254.611L378.446 294.255H344.005C337.647 294.255 332.497 299.404 332.497 305.762Z" fill="#39707A"/>
<path opacity="0.25" d="M642.111 248.176C642.111 248.176 634.835 248.985 631.602 256.664C628.368 264.344 605.329 322.548 605.329 322.548H385.043L409.994 256.968C412.007 251.677 417.079 248.176 422.742 248.176" stroke="white" stroke-width="4" stroke-miterlimit="10"/>
<path opacity="0.25" d="M569.355 248.176C569.355 248.176 562.08 248.985 558.846 256.664C555.613 264.344 532.574 322.548 532.574 322.548H455.777L480.728 256.968C482.74 251.677 487.813 248.176 493.476 248.176" stroke="white" stroke-width="4" stroke-miterlimit="10"/>
<path d="M583.098 294.255V364.18H668.517C674.471 364.18 679.297 359.354 679.297 353.4V258.807C679.297 252.934 674.54 248.176 668.667 248.176H666.294C661.941 248.176 658.02 250.82 656.391 254.862L640.494 294.255H583.098Z" fill="#77A9A6"/>
<path d="M627.18 363.218C627.135 363.558 627.123 363.877 627.148 364.18H668.517C674.471 364.18 679.297 359.354 679.297 353.4V301.958C673.497 303.256 668.513 309.776 666.351 316.101C666.043 317.003 665.91 318.272 665.239 319.028C662.838 321.732 658.622 318.486 655.272 318.842C655.397 321.934 659.944 327.96 652.588 326.36C648.534 325.479 644.617 323.813 640.365 323.215C638.501 322.952 636.521 322.791 634.787 322.459C637.649 324.747 641.727 325.458 644.868 327.39C646.371 328.316 647.802 329.456 649.261 330.418C650.389 331.162 651.027 331.525 651.65 332.568C651.985 333.138 651.294 333.93 652.313 334.601C648.004 336.63 640.757 334.015 636.165 333.72C633.275 333.534 627.794 332.706 625.264 334.132C629.714 335.652 634.019 337.495 638.574 338.773C641.856 339.694 646.901 339.896 649.625 342.034C648.671 343.227 646.597 345.62 645.316 346.351C642.083 348.194 638.776 345.971 635.838 349.439C634.71 350.769 634.043 352.503 633.122 353.97C632.281 355.308 631.254 355.628 630.325 356.646C629.148 357.94 627.422 361.391 627.18 363.218Z" fill="#93BCB8"/>
<path d="M353.516 332.253V344.779H577.036V320.123H365.646C358.948 320.123 353.516 325.556 353.516 332.253Z" fill="#77A9A6"/>
<path d="M332.498 305.762V356.108C332.498 360.567 336.111 364.18 340.569 364.18H590.374V344.779H353.516L353.455 303.692C353.447 298.478 349.219 294.254 344.005 294.254C337.651 294.254 332.498 299.408 332.498 305.762Z" fill="#5C958C"/>
<path d="M585.282 294.254H580.92C576.32 294.254 572.594 297.981 572.594 302.581V355.85C572.594 360.449 576.32 364.176 580.92 364.176H585.282C589.881 364.176 593.608 360.449 593.608 355.85V302.581C593.608 297.981 589.881 294.254 585.282 294.254Z" fill="#5C958C"/>
<path d="M43.7279 414.98C46.7311 430.468 74.6205 439.361 86.8879 433.274C87.5548 443.403 103.318 450.678 117.061 442.594" fill="#D9B98E"/>
<path d="M1.00076 391.868C-5.81397 410.259 23.6923 426.022 43.7282 414.98C44.3022 430.763 76.0275 432.412 86.8882 433.273" fill="#D9B98E"/>
<path d="M437.834 94.3251L532.426 115.822L510.929 210.413L416.338 188.916L437.834 94.3251Z" fill="#A1674E"/>
<path d="M442.135 101.155L525.596 120.122L506.629 203.583L423.168 184.616L442.135 101.155Z" fill="white"/>
<path d="M445.365 153.538L440.83 173.501L495.49 185.922L507.911 131.263L491.545 127.544L483.663 162.24L445.365 153.538Z" fill="#CD4739"/>
<path d="M463.129 141.481C457.569 141.481 453.061 136.973 453.061 131.412C453.061 125.852 457.569 121.344 463.129 121.344C468.69 121.344 473.198 125.852 473.198 131.412C473.198 136.973 468.69 141.481 463.129 141.481Z" fill="#F7CE49"/>
<path d="M552.38 215.437C559.611 226.56 584.259 233.67 605.119 233.464C612.73 233.387 619.84 232.34 625.414 230.157C626.764 229.628 628.021 229.034 629.177 228.371L620.689 167.337L581.482 161.274L552.38 215.437Z" fill="#F4B742"/>
<path d="M616.748 168.861C608.361 167.224 599.95 165.939 591.437 165.086C589.457 164.888 587.436 164.633 585.492 164.35C584.538 164.209 583.406 163.813 582.468 164.229C581.389 169.965 601.991 170.373 605.431 170.664C608.612 170.935 612.011 171.205 615.172 170.737C616.174 170.591 618.078 169.888 616.748 168.861Z" fill="#CD4739"/>
<path d="M1.05737 185.93H141.717V392.07H1.05737V185.93Z" fill="#CD4739"/>
<path d="M121.912 337.504H141.718V350.438H121.912V337.504Z" fill="#AE3B33"/>
<path d="M96.4479 353.671H122.316V366.605H96.4479V353.671Z" fill="#AE3B33"/>
<path d="M96.4479 319.315H122.316V332.249H96.4479V319.315Z" fill="#AE3B33"/>
<path d="M131.209 303.147H141.718V316.081H131.209V303.147Z" fill="#AE3B33"/>
<path d="M99.6818 303.147H125.55V316.081H99.6818V303.147Z" fill="#AE3B33"/>
<path d="M118.274 246.559H141.718V259.494H118.274V246.559Z" fill="#AE3B33"/>
<path d="M96.4479 226.754H122.316V239.688H96.4479V226.754Z" fill="#AE3B33"/>
<path d="M128.784 206.949H141.718V219.883H128.784V206.949Z" fill="#AE3B33"/>
<path d="M96.4479 206.948H122.316V219.883H96.4479V206.948Z" fill="#AE3B33"/>
<path d="M1.05764 206.948H12.7793V219.883H1.05764V206.948Z" fill="#AE3B33"/>
<path d="M17.6296 206.948H43.498V219.883H17.6296V206.948Z" fill="#AE3B33"/>
<path d="M86.7472 284.554H112.616V297.488H86.7472V284.554Z" fill="#AE3B33"/>
<path d="M104.128 265.557H129.996V278.491H104.128V265.557Z" fill="#AE3B33"/>
<path d="M118.274 284.554H141.718V297.488H118.274V284.554Z" fill="#AE3B33"/>
<path d="M1.05753 224.329H99.6812V392.07H1.05753V224.329Z" fill="#4B364F"/>
<path d="M1.05753 224.329V241.018C2.49242 242.603 3.82225 244.235 4.92166 245.969C14.3111 260.751 6.60711 279.469 9.57391 296.765C10.8673 304.303 11.8132 313.482 18.834 305.916C25.1637 299.097 18.6643 289.053 19.5899 281.393C28.6843 283.895 27.7829 292.42 33.7529 296.805C39.4844 301.017 37.2936 295.075 42.9362 296.175C47.9563 297.157 51.202 301.073 53.5059 306.259C54.5447 310.564 55.3692 314.78 55.5632 318.781C55.7977 323.623 55.9796 368.125 68.2024 350.923C77.794 361.387 81.6702 383.857 91.5285 361.117C95.4492 352.075 95.8938 351.367 99.6812 357.653V224.329H1.05753Z" fill="#402C42"/>
<path d="M211.644 236.859L168.799 233.221L163.949 251.006V256.665L161.726 306.178L159.3 314.262L155.663 384.592H169.001L180.319 316.283L179.106 306.178L189.211 265.759L198.911 316.283L198.507 337.706L204.166 384.592H215.888V320.325L213.867 314.262L215.888 291.223L211.644 236.859Z" fill="#282626"/>
<path d="M199.542 244.813C199.194 246.119 195.273 261.313 190.968 261.507" stroke="#525354" stroke-width="3" stroke-miterlimit="10"/>
<path d="M255.069 232.744C255.631 233.961 257.017 235.173 257.83 236.248C258.764 237.481 259.503 238.738 260.304 240.056C260.991 241.184 262.377 242.687 262.417 244.001C259.794 243.956 257.842 238.593 255.696 237.154C255.736 240.145 260.764 243.516 259.435 246.717C256.225 245.634 255.813 240.311 252.697 238.924C253.044 240.513 254.37 242.154 255.029 243.754C255.328 244.474 256.767 247.505 256.132 248.245C254.827 249.761 250.983 241.353 250.247 240.299C250.077 241.495 251.795 248.184 250.651 247.17C249.095 245.792 244.495 236.16 243.497 234.733C242.252 232.954 240.724 231.115 242.576 229.3C243.732 228.165 245.93 227.554 247.551 227.647C251.44 227.87 252.47 230.97 255.069 232.744Z" fill="#F6C5B4"/>
<path d="M253.781 230.193C255.191 230.513 256.61 231.552 257.879 232.255C258.882 232.809 260.862 233.601 261.57 234.555C263.324 236.927 259.201 235.44 258.227 234.955C256.477 234.082 255.305 234.486 253.397 234.26C251.966 234.09 250.119 233.613 249.557 232.138C248.947 230.521 249.997 229.555 251.517 229.288L253.781 230.193Z" fill="#F6C5B4"/>
<path d="M255.32 234.716C253.627 235.096 251.868 235.104 250.175 234.712C248.792 234.393 246.998 233.847 246.436 232.392C246.246 231.907 247.03 231.697 247.216 232.178C247.447 232.772 248.061 233.112 248.615 233.354C249.273 233.645 249.977 233.851 250.684 233.993C252.143 234.288 253.659 234.259 255.11 233.932C255.611 233.823 255.826 234.603 255.32 234.716Z" fill="#ED6F6A"/>
<path d="M249.641 235.412C249.964 236.127 250.166 236.867 250.251 237.651C250.271 237.861 250.049 238.063 249.847 238.055C249.608 238.043 249.467 237.877 249.443 237.651C249.439 237.603 249.431 237.554 249.427 237.501C249.41 237.38 249.439 237.582 249.423 237.461C249.41 237.376 249.394 237.291 249.378 237.206C249.346 237.041 249.309 236.879 249.265 236.717C249.22 236.556 249.172 236.398 249.115 236.24C249.087 236.16 249.055 236.079 249.022 235.998C249.018 235.994 248.974 235.881 249.006 235.957C248.986 235.913 248.966 235.869 248.946 235.82C248.857 235.63 248.885 235.375 249.091 235.266C249.265 235.173 249.548 235.206 249.641 235.412Z" fill="#ED6F6A"/>
<path d="M202.751 167.54C203.35 169.213 203.996 170.987 204.433 173.138C206.228 182.046 209.4 190.647 210.985 199.625C211.595 203.072 211.486 209.786 213.463 212.001C215.625 214.422 222.711 220.586 229.659 226.213C235.427 230.881 241.097 235.182 243.777 236.657C245.341 235.323 251.053 228.169 251.053 228.169C251.053 228.169 241.768 220.012 240.026 217.906C236.587 213.751 228.014 204.321 228.014 204.321C228.014 204.321 227.092 188.044 225.318 179.993C224.4 175.822 221.13 166.683 218.313 163.902C216.066 161.683 202.105 157.677 201.337 158.647C200.84 162.18 201.729 164.71 202.751 167.54Z" fill="#4294F4"/>
<path d="M202.75 167.539C203.349 169.213 203.995 170.987 204.432 173.138C206.227 182.046 209.399 190.647 210.984 199.625C211.594 203.072 211.485 209.786 213.462 212.001C215.624 214.422 222.71 220.586 229.658 226.212C229.629 226.132 229.601 226.051 229.573 225.974C227.851 221.079 225.03 216.516 222.984 211.734C221.909 209.22 221.02 207.979 221.048 205.493C221.133 198.032 221.428 190.348 220.418 182.955C219.642 177.301 218.999 171.444 215.927 166.46C215.224 165.316 211.946 160.317 209.921 161.19C206.986 157.483 205.131 163.057 203.963 165.033C203.47 165.874 203.058 166.687 202.75 167.539Z" fill="#368CE0"/>
<path d="M211.643 236.859C211.643 236.859 216.089 234.03 216.089 229.583C216.089 225.137 216.089 208.161 216.089 196.439C216.089 184.718 216.869 162.038 209.157 159.35C201.336 156.626 174.861 156.424 174.861 156.424L168.382 159.286L163.948 228.371C163.948 228.371 165.565 230.796 168.798 233.221L211.643 236.859Z" fill="#4294F4"/>
<path d="M171.83 158.647C164.958 159.86 160.512 160.668 159.3 165.923C158.087 171.177 150.003 205.13 150.003 205.13C150.003 205.13 152.024 216.851 157.279 217.256C162.533 217.66 199.719 207.151 199.719 207.151L196.89 198.258L169.809 198.663C169.809 198.663 177.489 171.65 177.489 166.731C177.489 158.647 171.83 158.647 171.83 158.647Z" fill="#55A7F9"/>
<path d="M184.699 157.487C187.003 159.262 190.811 162.612 193.07 163.7C197.278 165.721 199.537 162.883 201.098 158.793C199.869 157.127 198.883 154.828 198.422 152.799C197.573 149.072 197.415 144.719 197.339 140.608C197.318 139.205 197.298 137.827 197.27 136.518C197.238 136.36 197.205 136.21 197.173 136.065C196.55 133.353 195.637 132.896 194.319 133.094C193.806 133.175 193.232 133.353 192.589 133.543C188.487 134.739 187.48 135.547 187.113 139.61C186.846 142.56 187.137 145.709 187.137 148.656C187.133 149.755 186.684 152.265 185.92 154.589C185.573 155.644 185.164 156.659 184.699 157.487Z" fill="#F6C5B4"/>
<path d="M185.912 154.581C187.464 154.452 189.012 154.237 190.302 153.3C192.848 151.456 194.59 148.526 195.758 145.689C196.454 143.995 197.015 142.326 197.351 140.616C197.65 139.124 197.771 137.601 197.662 136L197.189 136.073L194.655 136.453C194.792 135.317 194.675 134.173 194.34 133.098C193.826 133.179 193.252 133.357 192.61 133.543C188.507 134.735 187.497 135.539 187.125 139.601C186.854 142.552 187.141 145.701 187.137 148.647C187.133 149.747 186.68 152.257 185.912 154.581Z" fill="#ED6F6A"/>
<path d="M197.739 133.143C200.997 130.099 202.177 136.558 201.134 139.044C199.982 141.797 197.496 142.278 196.49 140.58C195.88 142.278 193.661 145.988 192.727 147.419C191.741 148.935 190.928 150.273 189.178 150.798C186.583 151.578 183.527 151.166 182.945 150.366C181.345 148.146 179.3 146.748 178.095 144.303C176.114 140.277 176.478 124.901 176.478 124.901C176.478 124.901 185.88 123.571 188.814 123.721C190.92 123.826 193.657 123.822 195.649 124.744C197.824 125.746 197.286 125.956 197.286 128.725C197.286 130.144 197.185 131.611 197.739 133.143Z" fill="#F6C5B4"/>
<path d="M201.134 122.472C205.269 120.495 204.772 132.172 201.538 135.81C201.134 134.597 200.326 131.768 198.45 133.175C198.305 134.011 198.24 134.731 198.155 135.588C195.661 136.711 195.674 133.862 194.675 132.492C193.014 130.208 191.438 129.044 192.917 126.081C190.427 124.877 186.741 126.004 184.033 125.871C181.131 125.729 178.378 126.433 175.516 125.919C172.032 125.297 168.524 117.686 172.663 114.258C172.99 118.389 176.094 115.815 178.903 114.792C183.774 113.013 197.496 113.579 200.326 115.6C202.141 116.898 202.347 119.238 201.134 122.472Z" fill="#282626"/>
<path d="M194.631 205.704C196.87 207.288 200.823 206.621 202.694 204.725C203.907 203.501 203.543 201.981 205.043 201.455C206.089 201.088 207.985 201.455 208.757 202.276C208.26 202.583 207.577 202.806 207.217 203.367C208.195 204.944 210.2 204.645 211.219 203.23C212.225 201.831 211.679 199.713 211.481 198.121C211.332 196.904 211.085 195.587 210.265 194.685C209.557 193.913 207.068 192.013 206.009 191.993C204.869 191.969 201.465 193.153 200.516 193.659C194.99 196.605 196.603 199.212 196.098 200.655C195.908 201.197 196.029 200.938 195.73 201.391C195.467 201.787 195.746 201.338 195.362 201.524C194.38 202.001 194.234 201.779 194.206 203.218C194.19 204.313 194.554 205.683 194.631 205.704Z" fill="#F6C5B4"/>
<path d="M167.586 384.39V391.666L141.717 392.07C141.717 392.07 142.324 387.826 155.46 387.22L157.885 382.773L167.586 384.39Z" fill="#663E34"/>
<path d="M205.782 383.38L205.184 391.868L224.779 391.464C224.779 391.464 222.354 387.422 215.483 386.209L213.462 382.976L205.782 383.38Z" fill="#663E34"/>
<path d="M3.1917 130.657C6.85775 135.879 10.8875 140.842 15.2326 145.511C19.5656 150.167 24.2139 154.532 29.1248 158.57C34.052 162.624 39.254 166.343 44.6743 169.71C50.0783 173.065 55.7047 176.064 61.5049 178.671C67.2971 181.278 73.267 183.489 79.3623 185.279C80.1302 185.506 80.8982 185.724 81.6662 185.934C82.1674 186.072 81.9532 186.852 81.452 186.714C75.2839 185.013 69.2412 182.887 63.3642 180.364C57.4711 177.834 51.7477 174.908 46.2466 171.614C40.7334 168.315 35.4465 164.645 30.4183 160.648C25.3982 156.658 20.6408 152.329 16.1987 147.705C11.7687 143.094 7.64996 138.183 3.8869 133.013C3.41804 132.366 2.95323 131.716 2.49245 131.065C2.19334 130.636 2.89664 130.232 3.1917 130.657Z" fill="#BFBFBF"/>
<path d="M7.14073 135.701C7.59747 138.789 7.1569 141.865 6.63144 144.913C6.08982 148.045 5.57246 151.178 5.11976 154.323C4.22244 160.583 3.54338 166.873 3.0826 173.178C2.81987 176.747 2.62988 180.32 2.50458 183.893C2.48841 184.411 1.68002 184.415 1.69619 183.893C2.13272 171.343 3.41807 158.825 5.54818 146.449C6.14639 142.981 6.88607 139.44 6.36466 135.911C6.28382 135.406 7.06394 135.188 7.14073 135.701Z" fill="#BFBFBF"/>
<path d="M14.8406 148.842C12.6984 158.648 10.0994 168.352 7.04769 177.911C6.17463 180.644 5.26924 183.364 4.32342 186.072C4.15366 186.561 3.37359 186.351 3.54335 185.858C6.84563 176.38 9.70731 166.752 12.1123 157.006C12.7994 154.222 13.4461 151.429 14.0605 148.628C14.1737 148.118 14.9497 148.336 14.8406 148.842Z" fill="#BFBFBF"/>
<path d="M20.92 154.262C18.5474 162.245 15.3987 169.997 11.5306 177.374C10.4392 179.455 9.28727 181.509 8.07873 183.53C7.81196 183.974 7.11271 183.57 7.37948 183.121C11.6114 176.028 15.1602 168.53 17.9451 160.753C18.7374 158.538 19.4689 156.303 20.1399 154.048C20.2894 153.551 21.0696 153.765 20.92 154.262Z" fill="#BFBFBF"/>
<path d="M26.9788 158.587C27.6861 158.793 27.7185 159.581 27.5164 160.179C27.2092 161.085 26.7808 161.97 26.3927 162.843C25.5722 164.694 24.6749 166.509 23.7129 168.288C21.7809 171.844 19.5739 175.252 17.1124 178.465C15.7341 180.264 14.283 181.998 12.7551 183.671C12.4035 184.055 11.8336 183.481 12.1853 183.101C17.169 177.645 21.3564 171.477 24.5859 164.832C25.0346 163.91 25.4631 162.976 25.8754 162.035C25.9764 161.8 27.092 159.464 26.7686 159.367C26.2634 159.221 26.4776 158.441 26.9788 158.587Z" fill="#BFBFBF"/>
<path d="M38.0049 168.32C33.6355 173.599 27.8838 177.54 22.2453 181.339C20.6811 182.394 19.0319 183.38 17.1484 183.712C16.6391 183.8 16.4208 183.02 16.9342 182.931C18.6075 182.636 20.0748 181.812 21.4733 180.886C22.8677 179.965 24.238 179.007 25.6082 178.049C28.3446 176.133 31.0325 174.132 33.4981 171.873C34.9006 170.587 36.2223 169.217 37.4349 167.754C37.7664 167.35 38.3363 167.924 38.0049 168.32Z" fill="#BFBFBF"/>
<path d="M46.5172 173.109C41.8972 177.96 35.8707 181.42 29.3672 183.004C27.5402 183.449 25.6769 183.74 23.8014 183.885C23.284 183.926 23.284 183.117 23.8014 183.077C30.2887 182.576 36.578 180.163 41.78 176.262C43.2715 175.142 44.6619 173.894 45.9513 172.544C46.3029 172.16 46.8769 172.733 46.5172 173.109Z" fill="#BFBFBF"/>
<path d="M59.2129 178.529C52.7256 181.375 45.9432 183.542 38.995 184.94C37.0226 185.34 35.0339 185.676 33.0413 185.951C32.532 186.023 32.3137 185.243 32.827 185.17C39.7792 184.204 46.6222 182.499 53.2106 180.082C55.0982 179.39 56.9615 178.639 58.8046 177.83C59.2776 177.624 59.6898 178.319 59.2129 178.529Z" fill="#BFBFBF"/>
<path d="M7.89219 144.658C13.3448 150.705 19.2258 156.356 25.4828 161.558C31.7599 166.776 38.413 171.537 45.3732 175.801C49.2777 178.19 53.2752 180.421 57.3576 182.487C57.8224 182.721 57.4142 183.421 56.9493 183.186C49.6617 179.496 42.6408 175.284 35.9595 170.583C29.2741 165.882 22.9202 160.705 16.9744 155.103C13.6237 151.942 10.4022 148.648 7.31821 145.228C6.9706 144.844 7.54054 144.27 7.89219 144.658Z" fill="#BFBFBF"/>
<path d="M7.01561 152.977C12.5288 158.47 18.4261 163.583 24.6628 168.243C30.8308 172.859 37.3181 177.042 44.0642 180.757C47.9 182.867 51.8166 184.823 55.806 186.626C56.2789 186.84 55.8707 187.535 55.3977 187.325C48.296 184.12 41.4247 180.413 34.8444 176.242C28.2844 172.083 22.0193 167.467 16.1019 162.439C12.7673 159.605 9.54586 156.634 6.44569 153.546C6.07383 153.179 6.6478 152.609 7.01561 152.977Z" fill="#BFBFBF"/>
<path d="M4.71548 158.643C8.58363 163.255 12.8802 167.503 17.5365 171.323C22.209 175.151 27.2453 178.538 32.5484 181.432C35.5637 183.077 38.6679 184.564 41.8448 185.874C42.3178 186.068 42.1116 186.852 41.6306 186.654C36.0083 184.33 30.6042 181.493 25.5113 178.162C20.3982 174.819 15.5923 171 11.1907 166.764C8.70889 164.375 6.3565 161.853 4.14556 159.217C3.81412 158.821 4.38404 158.243 4.71548 158.643Z" fill="#BFBFBF"/>
<path d="M4.09312 166.723C9.44466 172.588 15.7986 177.507 22.8195 181.218C24.8364 182.285 26.9059 183.251 29.0199 184.108C29.4968 184.302 29.2866 185.082 28.8056 184.888C21.328 181.848 14.3961 177.527 8.38972 172.131C6.68805 170.603 5.06317 168.987 3.51914 167.297C3.17154 166.913 3.74147 166.339 4.09312 166.723Z" fill="#BFBFBF"/>
<path d="M4.42831 175.021C8.53898 177.79 12.8032 180.32 17.2049 182.604C17.6657 182.843 17.2575 183.542 16.7967 183.303C12.399 181.02 8.13074 178.489 4.02007 175.721C3.59162 175.43 3.99582 174.73 4.42831 175.021Z" fill="#BFBFBF"/>
<path d="M271.306 375.243H318.917C322.51 375.243 325.428 372.329 325.428 368.732V291.308C325.428 287.715 322.514 284.797 318.917 284.797H271.306C267.713 284.797 264.795 287.711 264.795 291.308V368.732C264.795 372.329 267.709 375.243 271.306 375.243Z" fill="#DB9B6C"/>
<path d="M269.856 315.73H317.939C319.172 315.73 320.17 314.731 320.17 313.498V293.458C320.17 292.226 319.172 291.227 317.939 291.227H269.856C268.623 291.227 267.625 292.226 267.625 293.458V313.498C267.625 314.727 268.623 315.73 269.856 315.73Z" fill="#F1BF95"/>
<path d="M267.422 322.354V366.396C267.422 367.628 268.421 368.627 269.654 368.627H317.737C318.969 368.627 319.968 367.628 319.968 366.396V322.354C319.968 321.122 318.969 320.123 317.737 320.123H269.654C268.421 320.123 267.422 321.122 267.422 322.354Z" fill="#F1BF95"/>
<path d="M293.694 307.593C291.685 307.593 290.057 305.964 290.057 303.955C290.057 301.946 291.685 300.318 293.694 300.318C295.703 300.318 297.332 301.946 297.332 303.955C297.332 305.964 295.703 307.593 293.694 307.593Z" fill="#784237"/>
<path d="M362.012 249.595C361.85 248.051 361.426 246.487 360.775 245.016C360.124 243.544 359.239 242.178 358.139 241.059C354.522 237.041 348.398 237.041 343.944 239.826C340.601 242.053 338.932 245.953 339.126 249.757C339.126 251.402 339.421 253.055 340.048 254.583C340.048 254.583 339.769 254.583 339.708 254.704" stroke="#216630" stroke-width="5" stroke-miterlimit="10"/>
<path d="M338.184 254.773C338.402 248.229 333.071 242.623 327.384 240.271C321.091 237.668 315.181 240.169 311.248 245.448" stroke="#216630" stroke-width="5" stroke-miterlimit="10"/>
<path d="M363.568 248.039C364.837 246.608 368.208 244.906 369.392 247.186C370.528 249.377 367.873 250.896 366.086 251.357C367.751 251.62 369.898 253.39 369.987 255.161C370.132 258.087 365.116 256.717 364.283 255.011C364.882 256.786 365.213 260.694 362.481 260.824C359.781 260.949 357.311 256.858 359.829 255.011C359.514 256.539 355.937 256.923 354.991 255.989C352.687 253.718 356.761 251.131 358.875 251.462C356.943 251.208 353.487 247.287 355.419 245.634C357.145 244.159 359.971 246.289 360.783 247.901C359.623 246.559 360.124 242.356 362.493 242.934C364.106 243.322 365.52 246.317 363.568 248.039Z" fill="#DBC949"/>
<path d="M309.83 242.469C311.099 241.038 314.47 239.337 315.655 241.616C316.79 243.807 314.135 245.327 312.348 245.787C314.014 246.05 316.16 247.821 316.249 249.591C316.394 252.517 311.378 251.147 310.546 249.441C311.144 251.216 311.475 255.124 308.743 255.254C306.043 255.383 303.573 251.289 306.091 249.441C305.776 250.969 302.199 251.353 301.253 250.42C298.949 248.148 303.024 245.561 305.138 245.893C303.205 245.638 299.75 241.717 301.682 240.064C303.408 238.589 306.233 240.719 307.045 242.332C305.885 240.99 306.386 236.786 308.755 237.364C310.364 237.752 311.782 240.751 309.83 242.469Z" fill="#DBC949"/>
<path d="M308.165 248.314C307.089 248.314 306.217 247.442 306.217 246.366C306.217 245.29 307.089 244.417 308.165 244.417C309.241 244.417 310.113 245.29 310.113 246.366C310.113 247.442 309.241 248.314 308.165 248.314Z" fill="#D18F37"/>
<path d="M362.182 253.884C361.106 253.884 360.233 253.012 360.233 251.936C360.233 250.86 361.106 249.987 362.182 249.987C363.258 249.987 364.13 250.86 364.13 251.936C364.13 253.012 363.258 253.884 362.182 253.884Z" fill="#D18F37"/>
<path d="M323.989 284.554H348.281L353.516 253.027H318.755L323.989 284.554Z" fill="#50A3A2"/>
<path d="M529.559 293.984C534.223 294.546 539.469 295.491 543.758 297.484C546.268 298.648 548.79 300.269 550.249 302.694C552.012 305.621 552.533 309.949 552.978 313.288C553.75 319.1 553.669 324.901 549.833 329.561C546.256 333.91 539.817 335.81 539.17 342.2C538.879 345.058 540.346 347.038 540.989 349.666C541.313 350.991 541.721 352.859 540.076 353.372C535.884 354.678 534.696 346.355 534.356 343.93C533.77 339.767 534.55 335.495 538.014 332.851C540.314 331.097 542.99 329.973 544.441 327.378C545.67 325.188 546.3 322.532 546.187 320.034C543.572 319.885 540.686 319.703 538.087 319.86H476.1C476.104 320.406 475.485 315.742 479.822 314.666C481.952 314.141 489.119 313.454 491.544 313.454C491.677 311.611 491.981 308.438 491.879 306.587C491.714 303.539 492.635 299.925 494.406 297.343C496.031 294.966 500.218 294.457 502.898 294.283C505.485 294.117 507.93 295.047 510.485 295.107C512.17 295.148 513.31 294.388 514.858 293.919C517.121 293.236 519.631 293.664 521.96 293.693C524.494 293.725 527.032 293.681 529.559 293.984Z" fill="#230E13"/>
<path d="M512.711 289.808C513.54 292.104 513.94 294.703 513.087 297.043C511.397 301.672 505.755 304.857 501.115 305.439C495.27 306.17 487.813 305.281 484.033 300.204C481.709 297.08 482.845 288.588 485.889 285.969C485.889 285.969 485.149 281.296 485.08 279.501C487.691 279.227 490.61 282.424 492.425 283.398C493.184 283.806 494.276 283.366 495.201 283.273C497.133 283.074 499.106 283.163 501.054 283.163C502.897 283.163 503.56 283.155 504.886 282.06C506.968 280.342 508.847 277.889 511.757 278.285C511.684 279.481 510.561 283.519 510.14 284.752C510.949 285.969 512.157 288.276 512.711 289.808Z" fill="#230E13"/>
<path d="M496.394 296.243C496.483 296.219 496.576 296.187 496.661 296.151C496.593 296.179 496.69 296.138 496.71 296.126C496.758 296.102 496.803 296.078 496.851 296.049C496.928 296.005 497.001 295.952 497.074 295.904C497.126 295.868 497.029 295.944 497.078 295.904C497.09 295.892 497.106 295.88 497.118 295.872C497.158 295.839 497.199 295.803 497.235 295.767C497.3 295.706 497.356 295.641 497.417 295.573C497.466 295.516 497.429 295.556 497.421 295.573C497.433 295.552 497.449 295.536 497.462 295.516C497.474 295.5 497.486 295.463 497.498 295.451C497.429 295.516 497.498 295.617 497.538 295.67C497.599 295.75 497.603 295.763 497.567 295.726C497.599 295.758 497.611 295.742 497.575 295.73C497.522 295.714 497.47 295.698 497.417 295.682C497.312 295.649 497.203 295.625 497.094 295.601C496.985 295.577 496.875 295.556 496.766 295.544C496.827 295.552 496.706 295.536 496.69 295.536C496.629 295.528 496.564 295.524 496.504 295.52C496.289 295.508 496.075 295.532 495.861 295.524C495.8 295.52 495.918 295.508 495.861 295.524C495.841 295.528 495.784 295.524 495.821 295.528C495.825 295.524 495.829 295.524 495.837 295.52C495.808 295.54 495.808 295.536 495.837 295.516C495.865 295.476 495.849 295.504 495.841 295.516C495.909 295.435 495.873 295.467 495.861 295.492C495.829 295.556 495.873 295.459 495.873 295.459C495.873 295.463 495.857 295.508 495.861 295.504C495.873 295.496 495.873 295.399 495.869 295.484C495.865 295.577 495.849 295.423 495.865 295.492C495.869 295.504 495.881 295.593 495.893 295.597C495.897 295.597 495.845 295.504 495.885 295.577C495.893 295.593 495.901 295.609 495.909 295.625C495.918 295.637 495.926 295.649 495.93 295.661C495.97 295.734 495.922 295.665 495.926 295.657C495.922 295.674 496.002 295.73 496.015 295.742C496.055 295.783 495.962 295.706 496.01 295.738C496.035 295.754 496.055 295.771 496.079 295.787C496.16 295.843 496.245 295.892 496.326 295.948C496.528 296.082 496.71 296.235 496.839 296.442C496.948 296.623 496.884 296.894 496.694 296.995C496.496 297.1 496.257 297.044 496.14 296.85C496.128 296.834 496.067 296.757 496.128 296.83C496.116 296.813 496.099 296.797 496.087 296.781C496.067 296.761 495.946 296.664 496.027 296.72C495.938 296.656 495.845 296.599 495.756 296.539C495.55 296.409 495.364 296.268 495.23 296.058C494.943 295.601 495.02 294.93 495.598 294.756C495.861 294.679 496.176 294.695 496.447 294.708C496.738 294.724 497.029 294.76 497.316 294.821C497.583 294.877 497.93 294.938 498.129 295.136C498.274 295.282 498.323 295.5 498.27 295.698C498.225 295.86 498.124 295.989 498.019 296.118C497.664 296.559 497.162 296.874 496.621 297.028C496.419 297.084 496.172 296.959 496.124 296.745C496.067 296.526 496.18 296.308 496.394 296.243Z" fill="white"/>
<path d="M496.669 296.547C497.692 298.216 500.004 298.624 501.512 297.355C501.908 297.024 502.482 297.59 502.082 297.925C501.14 298.717 499.915 299.069 498.703 298.855C497.571 298.657 496.564 297.929 495.97 296.955C495.699 296.51 496.399 296.102 496.669 296.547Z" fill="white"/>
<path d="M496.318 296.898C495.954 297.468 495.518 297.99 494.996 298.422C494.742 298.636 494.479 298.838 494.168 298.96C493.824 299.093 493.452 299.097 493.088 299.048C491.936 298.895 490.764 298.329 490.336 297.181C490.154 296.692 490.934 296.482 491.116 296.967C491.419 297.779 492.405 298.151 493.193 298.252C493.456 298.285 493.727 298.285 493.969 298.163C494.2 298.05 494.398 297.876 494.588 297.707C494.988 297.347 495.328 296.943 495.619 296.49C495.897 296.049 496.597 296.458 496.318 296.898Z" fill="white"/>
<path d="M497.134 300.92C496.346 301.425 495.251 301.3 494.576 300.657C494.422 300.512 494.418 300.229 494.576 300.087C494.742 299.938 494.984 299.93 495.146 300.087C495.178 300.12 495.21 300.148 495.247 300.176C495.287 300.213 495.19 300.136 495.235 300.168C495.255 300.18 495.275 300.197 495.295 300.209C495.364 300.253 495.441 300.289 495.514 300.33C495.558 300.35 495.441 300.302 495.514 300.33C495.534 300.338 495.55 300.342 495.57 300.35C495.611 300.366 495.655 300.378 495.695 300.386C495.74 300.399 495.78 300.407 495.825 300.415C495.841 300.419 495.865 300.419 495.881 300.423C495.845 300.407 495.813 300.415 495.877 300.419C495.962 300.427 496.043 300.427 496.128 300.423C496.152 300.423 496.176 300.419 496.201 300.419C496.213 300.419 496.277 300.407 496.221 300.419C496.16 300.431 496.229 300.415 496.241 300.415C496.265 300.411 496.29 300.407 496.314 300.399C496.395 300.378 496.471 300.354 496.552 300.326C496.601 300.31 496.484 300.362 496.548 300.326C496.564 300.318 496.585 300.31 496.601 300.302C496.645 300.277 496.686 300.253 496.726 300.229C496.904 300.116 497.179 300.184 497.28 300.374C497.385 300.568 497.324 300.799 497.134 300.92Z" fill="white"/>
<path d="M503.804 289.113C504.446 289.174 505.016 289.57 505.279 290.164C505.55 290.787 505.428 291.458 504.988 291.967C504.568 292.452 503.852 292.699 503.23 292.496C502.526 292.266 502.211 291.559 502.138 290.872C502.098 290.484 502.179 290.091 502.433 289.788C502.676 289.497 503.048 289.368 503.395 289.263C503.597 289.202 503.844 289.336 503.893 289.546C503.941 289.764 503.828 289.978 503.61 290.043C503.5 290.075 503.391 290.108 503.29 290.148C503.23 290.172 503.339 290.124 503.278 290.156C503.254 290.168 503.23 290.18 503.209 290.193C503.185 290.205 503.165 290.217 503.141 290.233C503.125 290.245 503.108 290.253 503.092 290.265C503.116 290.245 503.121 290.245 503.1 290.261C503.08 290.277 503.064 290.298 503.044 290.314C502.999 290.358 503.068 290.269 503.032 290.326C503.015 290.346 503.003 290.37 502.991 290.395C502.959 290.455 503.011 290.31 502.979 290.423C502.963 290.471 502.951 290.524 502.939 290.577C502.943 290.556 502.943 290.508 502.939 290.589C502.939 290.621 502.935 290.657 502.935 290.69C502.935 290.75 502.939 290.811 502.947 290.872C502.939 290.799 502.963 290.952 502.967 290.965C502.991 291.082 503.024 291.199 503.068 291.312C503.044 291.252 503.104 291.385 503.112 291.397C503.137 291.441 503.165 291.49 503.193 291.53C503.157 291.482 503.193 291.534 503.201 291.543C503.218 291.563 503.238 291.583 503.254 291.599C503.274 291.615 503.29 291.636 503.31 291.652C503.254 291.607 503.347 291.672 503.359 291.68C503.383 291.692 503.412 291.708 503.436 291.72C503.387 291.7 503.456 291.724 503.46 291.724C503.472 291.728 503.622 291.761 503.565 291.753C503.626 291.761 503.686 291.761 503.747 291.757C503.759 291.757 503.836 291.749 503.783 291.757C503.731 291.761 503.828 291.749 503.84 291.745C503.893 291.733 503.945 291.716 503.998 291.7C504.058 291.68 503.945 291.724 504.006 291.7C504.03 291.688 504.05 291.68 504.07 291.668C504.119 291.644 504.167 291.611 504.212 291.583C504.224 291.575 504.272 291.539 504.22 291.579C504.244 291.559 504.268 291.538 504.289 291.518C504.325 291.486 504.361 291.45 504.394 291.413C504.406 291.401 504.454 291.336 504.414 291.393C504.43 291.373 504.442 291.353 504.458 291.332C504.487 291.292 504.511 291.247 504.535 291.203C504.547 291.183 504.555 291.159 504.568 291.138C504.539 291.203 504.572 291.118 504.58 291.098C504.596 291.049 504.604 291.005 504.616 290.956C504.62 290.94 504.62 290.88 504.616 290.952C504.616 290.928 504.62 290.904 504.62 290.88C504.62 290.831 504.616 290.783 504.612 290.73C504.616 290.807 504.612 290.746 504.608 290.726C504.6 290.69 504.592 290.653 504.584 290.617C504.576 290.593 504.568 290.568 504.559 290.548C504.527 290.443 504.596 290.605 504.543 290.508C504.519 290.459 504.491 290.411 504.462 290.362C504.45 290.342 504.434 290.322 504.422 290.302C504.406 290.277 504.406 290.281 504.43 290.31C504.418 290.294 504.406 290.281 504.394 290.265C504.357 290.225 504.317 290.184 504.277 290.144C504.256 290.128 504.24 290.112 504.22 290.096C504.281 290.144 504.196 290.079 504.184 290.071C504.131 290.039 504.078 290.011 504.022 289.982C504.038 289.99 504.091 290.007 504.018 289.978C503.981 289.966 503.949 289.954 503.913 289.946C503.889 289.938 503.864 289.934 503.84 289.93C503.755 289.91 503.897 289.934 503.8 289.922C503.589 289.902 503.383 289.748 503.395 289.518C503.408 289.315 503.577 289.093 503.804 289.113Z" fill="white"/>
<path d="M490.182 289.372C490.784 289.32 491.31 289.789 491.54 290.306C491.811 290.916 491.795 291.624 491.298 292.117C490.857 292.553 490.215 292.67 489.649 292.428C489.115 292.198 488.763 291.664 488.715 291.09C488.662 290.439 489.083 289.76 489.673 289.489C489.863 289.401 490.118 289.429 490.227 289.635C490.32 289.813 490.287 290.092 490.081 290.189C490.041 290.209 489.996 290.229 489.96 290.253C489.936 290.27 489.911 290.286 489.887 290.302C489.835 290.33 489.932 290.261 489.887 290.302C489.851 290.334 489.818 290.362 489.786 290.395C489.77 290.411 489.754 290.427 489.738 290.443C489.725 290.455 489.713 290.468 489.705 290.484C489.73 290.451 489.734 290.447 489.717 290.472C489.693 290.512 489.665 290.548 489.641 290.589C489.628 290.609 489.616 290.629 489.608 290.649C489.6 290.67 489.568 290.738 489.6 290.662C489.584 290.706 489.568 290.746 489.556 290.791C489.548 290.811 489.544 290.835 489.54 290.86C489.536 290.872 489.523 290.965 489.531 290.908C489.54 290.843 489.531 290.957 489.527 290.957C489.527 290.981 489.527 291.001 489.527 291.025C489.527 291.05 489.531 291.07 489.531 291.094C489.531 291.118 489.552 291.163 489.531 291.086C489.544 291.13 489.548 291.171 489.564 291.215C489.572 291.236 489.576 291.256 489.584 291.276C489.616 291.373 489.544 291.211 489.596 291.3C489.616 291.341 489.637 291.377 489.661 291.413C489.673 291.434 489.685 291.45 489.697 291.466C489.653 291.401 489.685 291.45 489.697 291.462C489.725 291.494 489.758 291.527 489.79 291.559C489.806 291.575 489.822 291.587 489.839 291.603C489.907 291.664 489.79 291.575 489.863 291.62C489.899 291.644 489.936 291.668 489.976 291.688C489.996 291.696 490.017 291.708 490.037 291.717C489.96 291.68 490.012 291.708 490.033 291.713C490.081 291.725 490.13 291.737 490.174 291.749C490.231 291.765 490.105 291.745 490.166 291.749C490.194 291.749 490.223 291.753 490.247 291.753C490.275 291.753 490.303 291.749 490.328 291.749C490.388 291.749 490.259 291.765 490.32 291.749C490.364 291.737 490.405 291.733 490.449 291.717C490.469 291.708 490.489 291.7 490.51 291.696C490.57 291.676 490.429 291.741 490.518 291.692C490.562 291.668 490.607 291.644 490.647 291.615C490.659 291.607 490.712 291.567 490.671 291.599C490.631 291.632 490.683 291.587 490.696 291.579C490.732 291.547 490.764 291.51 490.801 291.474C490.817 291.458 490.833 291.417 490.797 291.478C490.809 291.458 490.821 291.442 490.833 291.421C490.845 291.401 490.857 291.385 490.865 291.365C490.877 291.345 490.906 291.256 490.877 291.341C490.89 291.3 490.902 291.256 490.914 291.215C490.918 291.203 490.926 291.147 490.918 291.215C490.922 291.187 490.922 291.155 490.922 291.126C490.922 291.114 490.914 290.961 490.922 291.013C490.914 290.94 490.894 290.868 490.873 290.795C490.865 290.771 490.857 290.746 490.849 290.718C490.845 290.706 490.797 290.609 490.837 290.686C490.813 290.637 490.789 290.589 490.764 290.544C490.752 290.524 490.74 290.504 490.728 290.484C490.72 290.472 490.659 290.391 490.687 290.423C490.72 290.459 490.671 290.403 490.663 290.395C490.643 290.375 490.623 290.35 490.603 290.33C490.586 290.314 490.57 290.298 490.55 290.282C490.485 290.221 490.595 290.306 490.522 290.261C490.502 290.249 490.485 290.237 490.465 290.225C490.449 290.217 490.356 290.177 490.441 290.209C490.388 290.189 490.336 290.173 490.283 290.164C490.303 290.168 490.364 290.164 490.291 290.168C490.259 290.168 490.223 290.168 490.19 290.173C489.98 290.193 489.778 289.974 489.786 289.768C489.79 289.542 489.956 289.392 490.182 289.372Z" fill="white"/>
<path d="M507.449 288.313C507.291 288.143 507.122 287.978 506.944 287.828C506.77 287.683 506.637 287.586 506.414 287.44C506.216 287.315 506.014 287.202 505.8 287.105C505.747 287.08 505.691 287.056 505.634 287.032C505.574 287.004 505.683 287.052 505.622 287.028C505.598 287.02 505.574 287.008 505.549 286.999C505.432 286.955 505.311 286.911 505.19 286.874C504.987 286.81 504.838 286.591 504.907 286.377C504.971 286.175 505.19 286.025 505.404 286.094C506.398 286.409 507.308 286.975 508.019 287.743C508.16 287.897 508.185 288.164 508.019 288.313C507.865 288.455 507.603 288.479 507.449 288.313Z" fill="white"/>
<path d="M489.907 286.523C489.838 286.543 489.769 286.563 489.7 286.587C489.668 286.599 489.632 286.612 489.599 286.624C489.539 286.648 489.591 286.628 489.62 286.616C489.603 286.624 489.591 286.628 489.575 286.636C489.442 286.696 489.312 286.765 489.187 286.846C489.126 286.886 489.07 286.927 489.009 286.967C488.997 286.975 488.953 287.012 489.001 286.971C489.054 286.931 488.997 286.975 488.985 286.983C488.957 287.008 488.928 287.028 488.904 287.052C488.795 287.149 488.69 287.254 488.597 287.367C488.46 287.529 488.165 287.521 488.027 287.367C487.869 287.194 487.882 286.967 488.027 286.798C488.456 286.288 489.05 285.92 489.688 285.743C489.89 285.686 490.137 285.811 490.185 286.026C490.238 286.24 490.125 286.462 489.907 286.523Z" fill="white"/>
<path d="M501.952 309.501C501.459 311.126 501.128 312.787 500.97 314.477C500.95 314.683 500.8 314.893 500.566 314.881C497.672 314.715 494.665 314.747 491.807 315.285C489.479 315.726 486.722 317.027 486.488 319.711C486.443 320.224 485.635 320.228 485.679 319.711C485.922 316.946 488.391 315.269 490.889 314.659C492.385 314.295 493.949 314.165 495.481 314.072C497.175 313.971 498.872 313.975 500.566 314.072C500.432 314.206 500.295 314.343 500.162 314.477C500.323 312.714 500.655 310.976 501.172 309.283C501.326 308.79 502.106 309 501.952 309.501Z" fill="white"/>
<path d="M479.022 319.598C478.796 318.523 479.216 317.432 480.081 316.761C480.251 316.631 480.542 316.728 480.635 316.906C480.748 317.12 480.671 317.322 480.489 317.46C480.522 317.436 480.514 317.44 480.489 317.464C480.469 317.484 480.445 317.5 480.425 317.52C480.384 317.557 480.348 317.593 480.312 317.63C480.279 317.662 480.247 317.698 480.219 317.735C480.219 317.735 480.154 317.816 480.186 317.775C480.215 317.739 480.17 317.799 480.166 317.803C480.105 317.888 480.049 317.981 480 318.074C479.976 318.123 479.952 318.167 479.932 318.216C479.915 318.252 479.919 318.252 479.932 318.216C479.919 318.244 479.911 318.272 479.899 318.297C479.867 318.389 479.839 318.486 479.814 318.584C479.802 318.636 479.794 318.689 479.786 318.737C479.774 318.798 479.79 318.672 479.786 318.733C479.782 318.761 479.778 318.79 479.778 318.822C479.77 318.923 479.77 319.02 479.774 319.121C479.778 319.174 479.782 319.226 479.786 319.279C479.778 319.222 479.782 319.254 479.79 319.295C479.794 319.323 479.802 319.351 479.806 319.38C479.851 319.586 479.746 319.828 479.523 319.877C479.317 319.925 479.067 319.82 479.022 319.598Z" fill="white"/>
<path d="M489.006 319.857C489.103 319.04 489.349 318.26 489.766 317.553C489.875 317.371 490.134 317.29 490.319 317.407C490.501 317.524 490.578 317.767 490.465 317.961C490.263 318.304 490.154 318.539 490.041 318.878C489.984 319.044 489.94 319.21 489.899 319.38C489.879 319.464 489.863 319.549 489.847 319.634C489.838 319.683 489.83 319.731 489.822 319.78C489.814 319.828 489.814 319.828 489.822 319.784C489.818 319.808 489.814 319.832 489.814 319.857C489.79 320.067 489.644 320.273 489.41 320.261C489.212 320.253 488.982 320.083 489.006 319.857Z" fill="white"/>
<path d="M491.476 319.574C491.755 318.975 492.256 318.466 492.85 318.175C492.947 318.127 493.052 318.106 493.161 318.135C493.254 318.159 493.355 318.232 493.404 318.321C493.501 318.503 493.46 318.773 493.258 318.874C493.101 318.951 492.951 319.044 492.814 319.149C492.842 319.129 492.866 319.109 492.894 319.085C492.717 319.226 492.555 319.384 492.413 319.566C492.434 319.537 492.454 319.513 492.478 319.485C492.361 319.638 492.26 319.804 492.175 319.982C492.135 320.067 492.021 320.144 491.932 320.168C491.835 320.196 491.706 320.184 491.621 320.127C491.536 320.071 491.46 319.99 491.435 319.885C491.407 319.776 491.427 319.679 491.476 319.574Z" fill="white"/>
<path d="M540.25 309.279C540.314 309.295 540.379 309.315 540.444 309.331C540.326 309.533 540.209 309.735 540.096 309.938C539.09 308.078 537.384 306.728 535.601 305.653C533.702 304.505 531.568 303.66 529.34 303.479C525.226 303.143 520.784 305.253 519.797 309.55C519.219 312.056 520.379 314.424 521.487 316.603C521.608 316.845 521.467 317.249 521.139 317.209C519.134 316.962 517.114 316.841 515.093 316.857C514.215 316.865 513.229 316.805 512.397 317.128C511.576 317.448 511.03 318.236 510.982 319.109C510.954 319.626 510.145 319.63 510.173 319.109C510.222 318.244 510.598 317.423 511.273 316.865C512.029 316.239 512.995 316.11 513.945 316.073C516.346 315.98 518.755 316.11 521.139 316.401C521.022 316.603 520.905 316.805 520.792 317.007C519.717 314.897 518.597 312.625 518.876 310.188C519.114 308.094 520.246 306.138 521.875 304.812C525.67 301.72 531.006 302.262 535.096 304.428C537.339 305.617 539.567 307.25 540.799 309.525C540.941 309.788 540.767 310.14 540.452 310.132C540.221 310.128 540.048 310.079 539.849 309.966C539.389 309.723 539.797 309.024 540.25 309.279Z" fill="white"/>
<path d="M511.334 298.822C508.682 303.887 502.927 306.571 497.341 305.423C496.831 305.318 497.046 304.538 497.555 304.643C502.801 305.722 508.161 303.147 510.635 298.414C510.877 297.953 511.576 298.361 511.334 298.822Z" fill="white"/>
<path d="M313.298 354.48C314.527 354.48 315.521 353.485 315.521 352.257V335.685C315.521 334.456 314.527 333.462 313.298 333.462C312.07 333.462 311.075 334.456 311.075 335.685V352.257C311.075 353.485 312.07 354.48 313.298 354.48Z" fill="#784237"/>
<path d="M332.497 132.981C311.067 132.981 293.694 115.608 293.694 94.178C293.694 72.7478 311.067 55.3752 332.497 55.3752C353.927 55.3752 371.3 72.7478 371.3 94.178C371.3 115.608 353.927 132.981 332.497 132.981Z" fill="#67A9DB"/>
<path d="M332.497 127.726C313.969 127.726 298.949 112.706 298.949 94.1778C298.949 75.6497 313.969 60.6296 332.497 60.6296C351.025 60.6296 366.045 75.6497 366.045 94.1778C366.045 112.706 351.025 127.726 332.497 127.726Z" fill="white"/>
<path d="M331.487 91.9749V76.3932H329.466L332.497 71.947L335.529 76.3932H333.508V91.9749C334.34 92.3589 334.923 93.1996 334.923 94.1778C334.923 95.5156 333.835 96.6029 332.497 96.6029C331.159 96.6029 330.072 95.5156 330.072 94.1778C330.072 93.1996 330.654 92.3589 331.487 91.9749Z" fill="#050505"/>
<path d="M332.498 60.6296V69.1177" stroke="#67A9DB" stroke-width="6" stroke-miterlimit="10"/>
<path d="M332.295 119.642V128.13" stroke="#67A9DB" stroke-width="6" stroke-miterlimit="10"/>
<path d="M366.147 94.4814H357.659" stroke="#67A9DB" stroke-width="6" stroke-miterlimit="10"/>
<path d="M307.134 94.2793H298.646" stroke="#67A9DB" stroke-width="6" stroke-miterlimit="10"/>
<path d="M308.46 118.175L311.479 115.197" stroke="#67A9DB" stroke-width="4" stroke-miterlimit="10"/>
<path d="M353.516 73.5644L356.333 70.5854" stroke="#67A9DB" stroke-width="4" stroke-miterlimit="10"/>
<path d="M356.191 118.317L353.111 115.197" stroke="#67A9DB" stroke-width="4" stroke-miterlimit="10"/>
<path d="M311.479 73.5645L308.601 70.4441" stroke="#67A9DB" stroke-width="4" stroke-miterlimit="10"/>
<path d="M186.446 139.395C186.749 139.832 186.802 140.43 186.543 140.903C186.212 141.509 185.686 141.444 185.088 141.432C184.373 141.42 183.657 141.509 182.966 141.695C182.36 141.861 181.842 142.014 181.325 141.537C180.399 140.685 180.557 139.213 180.743 138.102C180.969 136.748 181.381 135.43 181.317 134.044C181.293 133.522 182.101 133.526 182.125 134.044C182.174 135.082 181.968 136.101 181.757 137.107C181.555 138.065 181.256 139.136 181.462 140.115C181.543 140.499 181.761 141.101 182.238 141.06C182.493 141.036 182.768 140.903 183.023 140.846C183.285 140.786 183.552 140.737 183.823 140.701C184.336 140.632 184.849 140.608 185.367 140.632C185.622 140.644 185.795 140.68 185.876 140.394C185.937 140.175 185.868 139.981 185.743 139.803C185.452 139.375 186.151 138.971 186.446 139.395Z" fill="#ED6F6A"/>
<path d="M188.831 144.747C187.254 144.367 185.585 143.975 183.988 144.464C183.491 144.618 183.277 143.838 183.774 143.684C185.512 143.154 187.331 143.555 189.049 143.967C189.55 144.092 189.336 144.872 188.831 144.747Z" fill="#ED6F6A"/>
<path d="M188.329 132.779C188.462 133.046 188.539 133.337 188.531 133.636C188.523 133.939 188.426 134.267 188.151 134.432C187.969 134.545 187.751 134.541 187.561 134.448C187.415 134.376 187.31 134.23 187.237 134.089C187.1 133.826 187.027 133.535 187.019 133.24C187.019 133.175 187.019 133.11 187.027 133.042C187.043 132.904 187.051 132.767 187.136 132.654C187.233 132.528 187.395 132.468 187.549 132.472C187.702 132.476 187.823 132.537 187.941 132.634C188.017 132.694 188.058 132.828 188.058 132.921C188.058 133.022 188.013 133.139 187.941 133.208C187.864 133.276 187.763 133.329 187.654 133.325C187.54 133.321 187.456 133.276 187.367 133.208C187.363 133.203 187.359 133.199 187.354 133.195C187.383 133.216 187.407 133.236 187.435 133.26C187.427 133.252 187.415 133.248 187.407 133.244C187.439 133.256 187.472 133.272 187.504 133.284C187.488 133.276 187.472 133.272 187.456 133.272C187.492 133.276 187.528 133.28 187.565 133.288C187.549 133.288 187.532 133.288 187.516 133.288C187.553 133.284 187.589 133.28 187.625 133.272C187.609 133.276 187.593 133.28 187.577 133.284C187.609 133.272 187.641 133.256 187.674 133.244C187.67 133.248 187.666 133.248 187.658 133.252C187.718 133.171 187.783 133.09 187.844 133.009C187.835 133.042 187.831 133.078 187.827 133.111C187.831 133.074 187.835 133.038 187.844 133.001C187.827 133.131 187.827 133.264 187.844 133.393C187.84 133.357 187.835 133.321 187.827 133.284C187.848 133.422 187.884 133.555 187.937 133.68C187.924 133.648 187.908 133.616 187.896 133.583C187.932 133.66 187.969 133.741 188.021 133.81C188.001 133.781 187.981 133.757 187.957 133.729C187.973 133.749 187.989 133.765 188.009 133.781C187.981 133.761 187.957 133.741 187.928 133.717C187.945 133.729 187.957 133.737 187.973 133.745C187.941 133.733 187.908 133.717 187.876 133.705C187.892 133.713 187.908 133.717 187.924 133.721C187.888 133.717 187.852 133.713 187.815 133.705C187.835 133.709 187.852 133.709 187.872 133.705C187.835 133.709 187.799 133.713 187.763 133.721C187.775 133.717 187.787 133.713 187.803 133.709C187.771 133.721 187.738 133.737 187.706 133.749C187.722 133.741 187.738 133.733 187.755 133.721C187.726 133.741 187.702 133.761 187.674 133.786C187.698 133.765 187.718 133.745 187.734 133.721C187.714 133.749 187.694 133.773 187.67 133.802C187.69 133.769 187.71 133.741 187.726 133.705C187.714 133.737 187.698 133.769 187.686 133.802C187.706 133.753 187.722 133.701 187.726 133.648C187.722 133.684 187.718 133.721 187.71 133.757C187.722 133.644 187.722 133.531 187.71 133.418C187.714 133.454 187.718 133.49 187.726 133.527C187.71 133.402 187.674 133.276 187.625 133.159C187.637 133.191 187.654 133.224 187.666 133.256C187.654 133.232 187.641 133.203 187.629 133.179C187.581 133.082 187.561 132.977 187.589 132.868C187.613 132.775 187.686 132.674 187.775 132.625C187.957 132.541 188.228 132.577 188.329 132.779Z" fill="#282626"/>
<path d="M179.105 133.26C179.174 133.478 179.247 133.7 179.316 133.918C179.401 134.185 179.506 134.496 179.328 134.755C179.215 134.921 179.041 135.03 178.835 135.034C178.624 135.038 178.455 134.897 178.346 134.731C178.228 134.549 178.148 134.335 178.115 134.121C178.075 133.85 178.083 133.575 178.168 133.308C178.232 133.106 178.451 132.956 178.665 133.025C178.867 133.09 179.017 133.308 178.948 133.522C178.924 133.599 178.903 133.68 178.891 133.761C178.895 133.724 178.899 133.688 178.907 133.652C178.895 133.769 178.895 133.882 178.907 133.999C178.903 133.963 178.899 133.927 178.891 133.89C178.907 134.007 178.94 134.116 178.984 134.226C178.972 134.193 178.956 134.161 178.944 134.129C178.976 134.209 179.017 134.286 179.069 134.355C179.049 134.327 179.029 134.302 179.004 134.274C179.017 134.29 179.029 134.302 179.045 134.315C179.017 134.294 178.992 134.274 178.964 134.25C178.972 134.258 178.984 134.262 178.996 134.266C178.964 134.254 178.932 134.238 178.899 134.226C178.911 134.23 178.92 134.234 178.932 134.234C178.895 134.23 178.859 134.226 178.823 134.218C178.835 134.218 178.843 134.218 178.855 134.218C178.818 134.222 178.782 134.226 178.746 134.234C178.758 134.234 178.766 134.23 178.778 134.226C178.746 134.238 178.713 134.254 178.681 134.266C178.697 134.258 178.709 134.25 178.726 134.242C178.697 134.262 178.669 134.282 178.645 134.306C178.657 134.294 178.669 134.282 178.681 134.27C178.661 134.298 178.641 134.323 178.616 134.351C178.629 134.335 178.637 134.323 178.645 134.306C178.633 134.339 178.616 134.371 178.604 134.403C178.616 134.379 178.62 134.355 178.625 134.327C178.62 134.363 178.616 134.399 178.608 134.436C178.608 134.403 178.608 134.375 178.604 134.347C178.608 134.383 178.612 134.42 178.62 134.456C178.592 134.29 178.527 134.129 178.475 133.971C178.422 133.805 178.37 133.64 178.317 133.478C178.253 133.276 178.394 133.029 178.6 132.981C178.831 132.924 179.037 133.041 179.105 133.26Z" fill="#282626"/>
<path d="M189.99 129.828C188.612 129.715 187.278 129.351 186.029 128.753C185.831 128.66 185.779 128.377 185.884 128.199C186.001 127.997 186.239 127.96 186.437 128.053C187.549 128.587 188.762 128.918 189.99 129.019C190.209 129.036 190.395 129.193 190.395 129.424C190.395 129.626 190.209 129.844 189.99 129.828Z" fill="#282626"/>
<path d="M179.586 129.024C179.255 129.946 178.543 130.661 177.626 131.005C177.428 131.078 177.173 130.924 177.129 130.722C177.076 130.491 177.198 130.305 177.412 130.225C177.436 130.217 177.46 130.204 177.484 130.196C177.569 130.164 177.4 130.237 177.48 130.196C177.525 130.176 177.573 130.152 177.618 130.132C177.699 130.087 177.78 130.043 177.86 129.99C177.905 129.962 177.945 129.934 177.986 129.905C178.006 129.889 178.071 129.833 177.986 129.909C178.006 129.893 178.026 129.877 178.046 129.861C178.123 129.8 178.192 129.732 178.261 129.663C178.329 129.594 178.394 129.521 178.455 129.445C178.503 129.384 178.406 129.513 178.455 129.445C178.471 129.424 178.483 129.404 178.499 129.384C178.527 129.348 178.552 129.307 178.576 129.267C178.628 129.186 178.677 129.101 178.721 129.012C178.737 128.976 178.758 128.903 178.786 128.875C178.766 128.895 178.754 128.955 178.778 128.891C178.79 128.863 178.798 128.834 178.81 128.806C178.883 128.608 179.089 128.454 179.307 128.523C179.497 128.588 179.663 128.81 179.586 129.024Z" fill="#282626"/>
<path d="M198.534 138.369C198.68 138.203 198.769 138.11 198.874 137.924C198.914 137.847 198.923 137.835 198.951 137.738C198.955 137.714 198.963 137.694 198.967 137.67C198.963 137.714 198.959 137.718 198.963 137.69C198.963 137.649 198.967 137.609 198.963 137.564C198.959 137.463 198.987 137.629 198.955 137.532C198.951 137.52 198.91 137.407 198.931 137.451C198.951 137.496 198.894 137.391 198.886 137.383C198.939 137.455 198.87 137.374 198.858 137.366C198.923 137.423 198.83 137.358 198.809 137.346C198.773 137.33 198.733 137.314 198.696 137.294C198.575 137.221 198.474 137.108 198.433 136.97C198.361 136.724 198.49 136.473 198.603 136.259C198.7 136.081 198.826 135.911 198.979 135.782C199.327 135.495 199.872 135.378 200.256 135.669C200.43 135.798 200.519 136.016 200.402 136.223C200.301 136.392 200.026 136.501 199.848 136.368C199.82 136.344 199.788 136.324 199.751 136.307C199.828 136.34 199.691 136.303 199.775 136.316C199.739 136.311 199.699 136.311 199.662 136.316C199.743 136.307 199.634 136.328 199.618 136.332C199.541 136.352 199.63 136.311 199.569 136.352C199.565 136.352 199.476 136.421 199.521 136.384C199.488 136.413 199.46 136.441 199.432 136.473C199.379 136.53 199.428 136.465 199.391 136.526C199.347 136.598 199.302 136.671 199.266 136.748C199.262 136.756 199.205 136.857 199.214 136.865C199.226 136.849 199.226 136.833 199.222 136.813C199.185 136.74 199.149 136.671 199.108 136.598C199.141 136.59 199.266 136.675 199.298 136.695C199.391 136.756 199.468 136.825 199.537 136.914C199.763 137.201 199.824 137.589 199.739 137.944C199.642 138.336 199.371 138.656 199.113 138.951C198.967 139.117 198.688 139.1 198.543 138.951C198.373 138.777 198.389 138.53 198.534 138.369Z" fill="#ED6F6A"/>
<path d="M285.526 326.679C286.315 326.526 286.63 325.661 286.662 324.776C288.59 327.577 288.251 331.982 288.598 335.24C289.265 341.538 290.086 348.203 291.597 354.338C291.428 345.333 290.712 335.927 291.407 326.991C292.357 329.23 292.992 331.934 293.38 334.715C293.376 334.65 293.376 334.581 293.372 334.517C293.275 331.255 293.897 322.217 291.812 320.164C291.808 320.152 291.804 320.135 291.8 320.123H286.129C285.753 320.16 285.336 320.176 284.851 320.196C284.67 322.266 285.235 324.618 285.526 326.679Z" fill="#DB9B6C"/>
<path d="M294.292 338.66C294.943 345.733 296.799 353.578 296.56 360.725C294.191 356.582 293.593 349.597 293.379 344.909C293.286 342.843 292.87 339.411 294.292 338.66Z" fill="#DB9B6C"/>
<path d="M453.566 343.623C453.34 338.361 457.321 335.859 459.734 331.873C455.603 328.87 448.368 329.286 443.505 328.826C439.637 328.458 434.783 327.043 430.983 327.48C424.613 328.215 421.901 335.438 419.759 341.166C419.508 341.841 418.959 343.255 418.486 344.779H454.297C454.277 343.947 454.063 343.445 453.566 343.623Z" fill="#93BCB8"/>
<path d="M613.963 184.576C613.971 189.326 618.183 202.886 613.805 205.219C611.554 206.419 601.118 206.051 599.149 204.224C596.296 201.573 597.593 192.094 597.387 188.606C597.225 185.894 596.53 185.247 598.236 183.824C601.498 181.108 612.387 183.077 613.963 184.576Z" fill="#FFCD7D"/>
<path d="M667.034 304.76C668.376 305.976 669.718 307.193 671.059 308.409C671.302 308.628 671.282 309.044 671.059 309.266C670.817 309.509 670.445 309.489 670.203 309.266C668.861 308.05 667.519 306.833 666.177 305.616C665.934 305.398 665.955 304.982 666.177 304.76C666.419 304.517 666.791 304.537 667.034 304.76Z" fill="#39707A"/>
<path d="M668.352 313.373C668.157 313.143 667.947 312.928 667.717 312.734C667.693 312.714 667.664 312.69 667.64 312.67C667.628 312.662 667.519 312.577 667.584 312.625C667.64 312.67 667.555 312.605 667.543 312.597C667.511 312.573 667.474 312.548 667.442 312.524C667.317 312.439 667.191 312.358 667.062 312.282C666.937 312.209 666.812 312.144 666.682 312.084C666.646 312.067 666.605 312.047 666.569 312.031C666.512 312.003 666.525 312.015 666.577 312.031C666.508 312.003 666.436 311.975 666.367 311.95C666.076 311.845 665.777 311.768 665.47 311.716C665.154 311.663 664.952 311.259 665.045 310.968C665.154 310.633 665.453 310.487 665.793 310.544C667.111 310.774 668.356 311.489 669.212 312.512C669.415 312.755 669.467 313.135 669.212 313.369C668.986 313.583 668.57 313.632 668.352 313.373Z" fill="#39707A"/>
<path d="M669.968 316.255C669.212 315.96 668.46 315.665 667.705 315.374C667.551 315.313 667.426 315.241 667.341 315.095C667.264 314.966 667.232 314.772 667.28 314.626C667.373 314.339 667.709 314.081 668.028 314.202C668.784 314.497 669.536 314.792 670.291 315.083C670.445 315.144 670.57 315.216 670.655 315.362C670.732 315.491 670.764 315.685 670.716 315.831C670.623 316.118 670.287 316.376 669.968 316.255Z" fill="#39707A"/>
<path d="M602.908 307.981C604.799 309.958 606.485 312.128 607.932 314.448C608.344 315.111 607.297 315.722 606.885 315.059C605.491 312.823 603.874 310.742 602.051 308.838C601.509 308.276 602.366 307.419 602.908 307.981Z" fill="#39707A"/>
<path d="M601.081 311.611C601.683 312.363 602.285 313.114 602.888 313.866C602.993 313.996 603.065 314.121 603.065 314.295C603.065 314.444 603.001 314.622 602.888 314.723C602.669 314.925 602.241 314.986 602.031 314.723C601.428 313.971 600.826 313.22 600.224 312.468C600.119 312.338 600.046 312.213 600.046 312.039C600.046 311.89 600.111 311.712 600.224 311.611C600.446 311.409 600.871 311.348 601.081 311.611Z" fill="#39707A"/>
<path d="M644.447 348.558C643.085 347.281 641.481 346.254 639.743 345.567C639.439 345.446 639.225 345.163 639.318 344.82C639.399 344.529 639.759 344.274 640.066 344.395C642.006 345.163 643.781 346.271 645.304 347.697C645.878 348.235 645.017 349.092 644.447 348.558Z" fill="#39707A"/>
<path d="M638.579 353.526C637.976 352.923 637.374 352.321 636.772 351.719C636.545 351.493 636.529 351.084 636.772 350.862C637.014 350.64 637.39 350.624 637.629 350.862C638.231 351.464 638.833 352.067 639.435 352.669C639.662 352.895 639.678 353.303 639.435 353.526C639.193 353.748 638.817 353.768 638.579 353.526Z" fill="#39707A"/>
<path d="M455.627 339.791C454.281 339.318 452.935 338.845 451.59 338.373C451.282 338.263 451.076 337.956 451.165 337.625C451.246 337.326 451.602 337.091 451.913 337.2C453.259 337.673 454.605 338.146 455.951 338.619C456.258 338.728 456.464 339.035 456.375 339.367C456.29 339.666 455.939 339.9 455.627 339.791Z" fill="#39707A"/>
<path d="M459.737 336.489C458.379 336.048 457.021 335.612 455.663 335.171C455.352 335.07 455.15 334.751 455.239 334.424C455.324 334.116 455.671 333.898 455.987 333.999C457.345 334.44 458.703 334.876 460.061 335.317C460.372 335.418 460.574 335.737 460.485 336.065C460.396 336.372 460.049 336.59 459.737 336.489Z" fill="#39707A"/>
<path d="M446.541 326.028C446.476 328.171 445.963 330.256 445.038 332.184C444.896 332.479 444.476 332.556 444.209 332.403C443.906 332.225 443.849 331.869 443.991 331.574C444.819 329.844 445.272 327.944 445.329 326.028C445.353 325.248 446.565 325.248 446.541 326.028Z" fill="#39707A"/>
<path d="M441.99 325.123C442.139 326.542 441.974 327.993 441.517 329.347C441.412 329.658 441.101 329.86 440.769 329.771C440.466 329.686 440.24 329.339 440.345 329.023C440.777 327.746 440.915 326.473 440.773 325.123C440.741 324.808 441.076 324.505 441.38 324.517C441.739 324.533 441.954 324.788 441.99 325.123Z" fill="#39707A"/>
<path d="M426.792 331.101C425.292 330.487 423.793 329.872 422.293 329.262C421.99 329.137 421.776 328.858 421.869 328.514C421.946 328.227 422.309 327.965 422.617 328.09C424.116 328.704 425.616 329.319 427.115 329.929C427.418 330.054 427.633 330.333 427.54 330.677C427.459 330.968 427.095 331.226 426.792 331.101Z" fill="#39707A"/>
<path d="M425.883 336.534C424.375 336.097 422.867 335.661 421.36 335.224C421.044 335.131 420.85 334.796 420.935 334.476C421.02 334.161 421.364 333.963 421.683 334.052C423.191 334.488 424.698 334.925 426.206 335.361C426.521 335.454 426.715 335.79 426.63 336.109C426.541 336.42 426.198 336.623 425.883 336.534Z" fill="#39707A"/>
<path d="M598.688 192.608C597.326 192.188 595.96 191.767 594.598 191.347C594.287 191.25 594.084 190.922 594.173 190.599C594.258 190.288 594.606 190.078 594.921 190.175C596.283 190.595 597.649 191.015 599.012 191.436C599.323 191.533 599.525 191.86 599.436 192.184C599.347 192.495 599.003 192.705 598.688 192.608Z" fill="#CD4739"/>
<path d="M598.85 196.69C597.948 196.69 597.043 196.69 596.142 196.69C595.826 196.69 595.519 196.411 595.535 196.084C595.551 195.756 595.802 195.477 596.142 195.477C597.043 195.477 597.948 195.477 598.85 195.477C599.165 195.477 599.472 195.756 599.456 196.084C599.44 196.411 599.189 196.69 598.85 196.69Z" fill="#CD4739"/>
<path d="M611.206 201.496C611.38 203.751 611.553 206.003 611.727 208.258C611.751 208.586 611.432 208.864 611.121 208.864C610.773 208.864 610.539 208.586 610.515 208.258C610.341 206.003 610.167 203.751 609.993 201.496C609.969 201.169 610.288 200.89 610.599 200.89C610.947 200.89 611.182 201.169 611.206 201.496Z" fill="#CD4739"/>
<path d="M607.071 201.799C607.673 203.747 608.005 205.776 608.061 207.814C608.081 208.594 606.869 208.594 606.849 207.814C606.796 205.877 606.477 203.97 605.903 202.118C605.672 201.375 606.845 201.051 607.071 201.799Z" fill="#CD4739"/>
<path d="M617.5 189.843C616.449 190.005 615.398 190.17 614.347 190.332C614.036 190.38 613.68 190.251 613.599 189.908C613.534 189.617 613.688 189.212 614.024 189.16C615.074 188.998 616.125 188.832 617.176 188.671C617.487 188.622 617.843 188.752 617.924 189.095C617.989 189.386 617.835 189.79 617.5 189.843Z" fill="#CD4739"/>
<path d="M611.607 180.902C611.016 182.551 610.05 184.051 608.761 185.243C608.523 185.465 608.143 185.482 607.904 185.243C607.678 185.017 607.662 184.608 607.904 184.386C609.044 183.331 609.929 182.01 610.438 180.583C610.548 180.276 610.851 180.069 611.186 180.158C611.481 180.239 611.72 180.591 611.607 180.902Z" fill="#CD4739"/>
</svg>
