<svg width="32" height="32" viewBox="0 0 32 32" fill="none" xmlns="http://www.w3.org/2000/svg">
<path d="M9.77664 31.9982C9.72464 31.9982 9.67398 31.9969 9.62199 31.9929C9.04072 31.9475 8.51145 31.6529 8.16748 31.1823L5.31714 27.2734C5.22781 27.1507 5.11983 27.0428 4.99451 26.9494L0.812312 23.8711C0.343031 23.5258 0.0497308 22.9952 0.00573578 22.414C-0.0382593 21.834 0.172384 21.2647 0.584337 20.8541C1.20027 20.2382 2.11483 20.0662 2.91074 20.4142L6.31169 21.9007L12.9283 14.7708C13.0856 14.6015 13.1576 14.3722 13.1243 14.1415C13.0909 13.9109 12.9589 13.7109 12.7603 13.5909L1.65222 7.71161C1.06428 7.35831 0.698991 6.79438 0.620333 6.14912C0.541675 5.50386 0.760317 4.86926 1.22027 4.40798C1.66022 3.96803 2.28281 3.78405 2.89474 3.91737L19.1036 7.35031C19.3742 7.41164 19.6502 7.32365 19.8328 7.12634L25.6429 0.953701C26.1988 0.364434 27.1533 0.0191397 28.2626 0.00180832C29.3904 -0.0288549 30.4663 0.332438 31.0676 0.933703C31.6675 1.53364 32.0155 2.58285 31.9995 3.73872C31.9835 4.84793 31.6368 5.80249 31.0489 6.35843L24.8589 12.1924C24.6536 12.3831 24.5683 12.667 24.6323 12.9337L28.3585 29.3238C28.5039 29.9384 28.3225 30.5784 27.8719 31.029C27.4147 31.4863 26.7814 31.7049 26.1415 31.6302C25.4989 31.5543 24.9363 31.1956 24.5976 30.6437L18.4063 19.1996C18.3037 19.0343 18.1037 18.905 17.8757 18.873C17.6478 18.8384 17.4198 18.9143 17.2505 19.0703L10.1353 25.6829L11.6204 29.0852C11.9684 29.8838 11.7964 30.797 11.1818 31.4129C10.8072 31.7902 10.3019 31.9982 9.77664 31.9982Z" fill="#8E31CC"/>
</svg>
