<svg width="850" height="573" viewBox="0 0 850 573" fill="none" xmlns="http://www.w3.org/2000/svg">
<path d="M690.725 494.768C706.239 500.451 724.92 499.193 741.206 503.129C739.404 507.929 731.25 507.516 726.041 508.352C717.317 509.752 708.553 510.992 699.766 512.124C688.703 513.547 677.611 514.806 666.558 516.004C665.854 516.079 665.145 516.159 664.44 516.244C646.607 518.362 628.597 522.716 610.563 525.197C604.257 526.066 597.947 526.709 591.642 526.944C588.384 527.066 585.131 527.08 581.877 526.963C584.029 527.592 587.929 528.447 592.509 529.542C610.141 533.755 637.811 541.534 614.108 553.737C612.503 554.564 610.86 555.353 609.178 556.109C606.955 557.11 604.674 558.044 602.331 558.923C565.568 572.737 515.107 572.31 478.664 572.268H478.616C455.278 572.24 431.945 570.915 408.635 569.313C407.141 569.21 405.65 569.107 404.16 569.003C390.98 568.087 377.813 567.101 364.661 566.236C343.532 564.851 322.34 563.512 301.254 561.643C296.175 561.192 276.128 561.051 273.225 556.081C267.437 546.17 293.022 539.124 316.777 535.136C332.253 532.538 346.948 531.237 351.696 531.284C334.117 525.14 309.428 527.921 291.235 528.038C261.889 528.231 231.024 531.848 201.768 527.954C213.895 515.797 249.959 513.529 265.684 511.156C273.038 510.043 280.546 509.193 287.925 508.08C291.681 507.516 295.404 506.882 299.055 506.116C298.417 505.755 297.761 505.426 297.081 505.125C289.333 501.668 278.951 501.753 270.777 501.057C266.048 500.658 261.314 500.292 256.575 499.954C251.382 499.582 246.183 499.235 240.985 498.897C229.941 498.178 218.897 497.483 207.872 496.6C198.223 495.829 188.175 495.519 178.08 495.04C162.605 494.307 147.028 493.18 132.635 489.389C125.808 487.586 111.865 483.18 110.107 475.091C103.207 443.375 190.595 441.52 208.423 445.245L237.305 412.735C323.902 412.834 408.487 415.215 494.835 422.406C564.964 428.25 634.691 435.502 704.543 443.662C716.425 445.052 769.901 446.259 771.328 462.977C773.269 485.711 706.225 492.945 690.725 494.768Z" fill="#D6EB82"/>
<path d="M474.854 531.866C485.649 537.103 497.599 539.166 509.529 537.127C518.379 535.614 526.577 532.106 534.818 528.719C514.9 530.753 494.781 532.627 474.854 531.866Z" fill="#BDD269"/>
<path d="M829.206 415.914C813.409 437.395 791.274 453.173 766.843 464.93H116.66C95.2435 450.138 78.2058 429.339 70.5398 404.946C69.6726 402.184 68.9443 399.384 68.355 396.561C68.1873 395.777 68.034 394.993 67.8998 394.203C60.2721 352.205 82.2688 304.852 122.827 289.332C95.0039 288.102 61.5226 280.126 53.5548 253.962C49.0702 239.241 54.997 222.8 65.7246 211.607C72.5042 204.538 80.9224 199.305 90.0114 195.364C95.3106 193.062 100.835 191.202 106.393 189.675C128.116 183.7 151.124 182.277 173.437 185.528C168.765 180.985 167.05 174.353 167.635 167.843C167.898 164.926 168.626 162.032 169.747 159.364C170.222 158.237 170.758 157.142 171.343 156.076C173.312 152.473 175.866 149.204 178.717 146.16C181.481 143.196 184.533 140.448 187.609 137.813C193.244 132.979 199.075 128.39 205.083 124.036C205.131 123.998 205.179 123.961 205.227 123.928C205.15 123.857 205.073 123.787 204.997 123.716C203.473 122.293 202.338 120.583 201.892 118.535C201.451 116.534 201.753 114.5 202.385 112.528C202.807 111.203 203.377 109.911 203.981 108.671C206.702 103.039 210.109 97.736 214.086 92.8743C220.367 85.1755 228.071 78.5946 236.748 73.6061C224.991 79.3368 211.417 81.413 198.438 79.4589C196.502 79.1677 194.537 78.7778 192.856 77.7914C190.609 76.4762 189.075 74.2215 188.074 71.8494C184.495 63.3849 187.164 53.3093 192.803 45.9957C198.442 38.6867 206.635 33.7029 214.958 29.5271C239.776 17.0793 283.085 -15.3646 321.894 8.5914C332.77 8.61958 341.998 14.153 343.272 14.9045C349.846 18.7845 353.727 27.2583 350.914 34.2572C349.554 37.6439 346.885 40.3402 344.187 42.8438C338.103 48.4805 331.524 53.6052 324.548 58.1428C330.02 56.3155 336.291 60.2988 338.131 65.6725C338.73 67.4246 338.936 69.2471 338.831 71.0649C365.317 67.5326 392.306 67.5655 418.749 71.4548C440.654 74.6771 464.017 81.6056 476.67 99.427C480.896 105.378 483.536 112.185 484.739 119.292C484.969 120.63 485.146 121.979 485.271 123.331C486.267 134.074 484.13 145.249 479.344 155C473.235 167.457 463.341 177.735 451.717 185.687C446.691 188.412 441.728 191.258 436.841 194.222C441.991 191.766 446.998 188.919 451.717 185.687C514.842 151.416 588.359 135.845 660.305 141.059C672.268 141.923 684.184 143.365 696.004 145.394C699.21 145.939 702.41 146.536 705.601 147.17C716.29 149.302 727.042 151.966 736.96 156.301C739.126 157.246 741.253 158.27 743.332 159.387C745.541 160.576 747.692 161.863 749.776 163.272C752.934 165.405 755.919 167.852 758.635 170.553C763.662 175.555 767.768 181.441 770.321 187.843C772.08 192.264 773.105 196.933 773.177 201.733C773.187 202.316 773.182 202.898 773.163 203.476C773.153 203.824 773.139 204.171 773.115 204.519C772.803 209.845 771.39 214.994 769.219 219.907C765.635 228.024 759.977 235.492 753.801 242.017C741.392 255.136 726.381 265.832 709.918 273.54C694.002 276.918 678.301 281.742 662.81 286.688C679.129 284.992 695.113 280.478 709.918 273.54C724.071 270.529 738.392 268.66 752.876 268.857C753.207 268.862 753.542 268.866 753.873 268.876C784.336 269.515 815.944 280.675 834.246 304.528C839.267 311.071 843.014 318.277 845.587 325.872C845.76 326.366 845.923 326.859 846.076 327.357C855.28 356.343 847.743 390.713 829.206 415.914Z" fill="#C4E2FC"/>
<path d="M845.589 325.872C826.524 329.128 807.57 333.083 788.769 337.691C762.714 344.069 736.937 351.665 711.601 360.533L702.119 363.92C700.543 364.493 698.957 365.043 697.386 365.625L692.681 367.41L683.266 370.98C681.69 371.562 680.137 372.197 678.58 372.821L673.913 374.71L664.585 378.496L655.328 382.451C649.133 385.044 643.034 387.843 636.92 390.61C635.392 391.31 633.858 391.986 632.34 392.7L627.797 394.87L618.713 399.211C617.194 399.92 615.7 400.685 614.2 401.432L609.701 403.692L600.713 408.21C594.791 411.273 589.046 414.246 583.253 416.487C581.073 417.333 578.884 418.075 576.704 418.667C575.3 422.373 573.676 425.9 571.984 429.315L565.976 420.282C569.512 420.231 573.101 419.644 576.704 418.667C577.355 416.933 577.959 415.162 578.5 413.349C578.927 411.921 579.31 410.465 579.631 408.971C579.952 407.478 580.225 405.951 580.402 404.382C580.771 401.259 580.815 397.952 580.278 394.574C580.005 392.888 579.588 391.192 579.003 389.52C578.409 387.853 577.643 386.227 576.728 384.687C575.827 383.137 574.72 381.732 573.537 380.37C572.305 379.069 571.007 377.824 569.603 376.791C566.824 374.658 563.82 373.131 560.849 371.929C557.864 370.722 554.894 369.9 551.981 369.214C550.524 368.871 549.077 368.58 547.654 368.312L543.424 367.579C542.015 367.34 540.592 367.166 539.174 366.954C537.76 366.738 536.337 366.588 534.914 366.433C529.222 365.808 523.501 365.418 517.776 365.376C512.05 365.32 506.32 365.522 500.614 366.006C494.907 366.513 489.23 367.316 483.6 368.368C472.35 370.421 461.249 373.869 450.828 377.838C440.354 381.774 430.326 386.18 420.293 389.957C415.281 391.845 410.279 393.611 405.258 395.068C402.748 395.819 400.237 396.444 397.722 397.04C395.206 397.59 392.691 398.111 390.18 398.464C385.154 399.243 380.133 399.539 375.174 399.319C374.551 399.309 373.933 399.258 373.32 399.206L371.466 399.056L369.626 398.83L368.706 398.717L367.81 398.576C365.438 398.187 363.196 397.642 361.179 396.899C359.162 396.153 357.403 395.199 355.971 394.053C354.543 392.926 353.268 391.404 352.042 389.558C350.82 387.679 349.684 385.513 348.477 383.122C347.878 381.939 347.241 380.68 346.58 379.421C345.885 378.139 345.195 376.842 344.366 375.513C342.713 372.873 340.845 370.327 338.727 368.007C336.595 365.7 334.257 363.591 331.77 361.703C329.279 359.815 326.615 358.204 323.888 356.771C321.157 355.338 318.326 354.164 315.456 353.173C314.028 352.651 312.571 352.247 311.124 351.815C309.668 351.439 308.211 351.054 306.745 350.758C303.813 350.143 300.866 349.678 297.92 349.391C294.973 349.096 292.022 348.926 289.085 348.917C286.148 348.898 283.22 348.987 280.307 349.227C277.394 349.453 274.495 349.786 271.621 350.256C268.746 350.707 265.89 351.27 263.063 351.966C261.645 352.29 260.237 352.689 258.842 353.069L254.755 354.305L253.735 354.615L252.734 354.953L250.726 355.629L248.718 356.311C248.048 356.541 247.396 356.79 246.735 357.025C236.156 360.839 226.08 365.31 216.037 369.364C213.522 370.393 211.021 371.37 208.51 372.352C206 373.277 203.489 374.245 200.964 375.076C198.449 375.973 195.909 376.715 193.375 377.5L189.556 378.533L188.598 378.792L187.64 379.008L185.718 379.444L183.792 379.877C183.15 380.013 182.508 380.112 181.861 380.234L179.93 380.577L178.963 380.75L178.483 380.83L178.038 380.896C175.671 381.229 173.352 381.305 171.594 380.929C170.717 380.75 170.041 380.459 169.553 380.13C169.495 380.088 169.433 380.05 169.37 380.013C169.308 379.971 169.265 379.914 169.212 379.872C169.16 379.825 169.097 379.787 169.049 379.736C169.006 379.679 168.958 379.628 168.911 379.576C168.709 379.379 168.561 379.153 168.412 378.857C168.115 378.27 167.871 377.434 167.746 376.387C167.612 375.348 167.574 374.146 167.545 372.803L166.822 340.5L166.687 334.473L161.292 337.052C150.565 342.172 140.034 347.668 129.699 353.483C119.355 359.284 109.245 365.465 99.3368 371.924C89.4476 378.406 79.7741 385.194 70.3641 392.306L67.9014 394.203C68.0355 394.992 68.1888 395.777 68.3565 396.561L71.7967 394.25C81.5948 387.759 91.5749 381.544 101.732 375.649C111.871 369.731 122.215 364.164 132.684 358.861C141.332 354.497 150.095 350.359 158.945 346.437L159.041 340.523L164.57 343.971C162.692 344.783 160.818 345.605 158.945 346.437L158.514 372.831C158.494 374.179 158.47 375.677 158.619 377.312C158.763 378.942 159.093 380.774 159.932 382.648C160.344 383.578 160.904 384.522 161.59 385.349L162.107 385.969C162.289 386.166 162.49 386.354 162.682 386.542C162.878 386.725 163.07 386.918 163.276 387.092L163.908 387.58C165.624 388.862 167.535 389.642 169.323 390.084C171.124 390.535 172.849 390.699 174.497 390.741C176.145 390.779 177.731 390.68 179.264 390.516L179.839 390.45L180.376 390.375L181.44 390.215L183.572 389.901C184.281 389.793 184.995 389.703 185.699 389.572L187.807 389.163L189.911 388.75L190.965 388.543L192.004 388.294L196.158 387.303C198.885 386.551 201.635 385.828 204.308 384.964C207.015 384.156 209.651 383.226 212.305 382.333C214.931 381.394 217.561 380.469 220.143 379.477C230.512 375.574 240.573 371.403 250.716 368.03C251.349 367.819 251.981 367.593 252.614 367.391L254.516 366.799L256.418 366.208L257.371 365.912L258.325 365.649L262.134 364.578C263.394 364.263 264.63 363.934 265.89 363.671C268.406 363.103 270.95 362.652 273.499 362.3C276.053 361.928 278.621 361.684 281.184 361.534C291.428 360.933 301.777 362.013 310.995 365.32C313.29 366.147 315.523 367.105 317.612 368.246C319.71 369.383 321.718 370.637 323.553 372.075C325.388 373.507 327.079 375.085 328.613 376.786C330.136 378.5 331.454 380.365 332.652 382.324C333.246 383.296 333.816 384.395 334.391 385.504L336.144 389.041C337.337 391.488 338.679 394.138 340.385 396.82C342.124 399.497 344.299 402.25 347.131 404.542C349.934 406.825 353.067 408.478 356.172 409.657C359.286 410.841 362.4 411.588 365.438 412.119L366.574 412.302L367.695 412.452L369.942 412.748L372.194 412.95C372.946 413.016 373.693 413.086 374.446 413.11C380.459 413.424 386.462 413.105 392.288 412.245C395.216 411.837 398.081 411.254 400.927 410.644C403.754 409.981 406.566 409.281 409.312 408.469C414.831 406.881 420.173 405.007 425.42 403.048C435.903 399.107 445.969 394.781 455.998 390.967C461.009 389.06 466.007 387.284 471.033 385.814C473.538 385.048 476.082 384.405 478.622 383.752L482.455 382.873C483.734 382.578 485.028 382.357 486.317 382.094C491.472 381.117 496.675 380.365 501.912 379.881C507.144 379.412 512.4 379.172 517.656 379.186C522.917 379.177 528.173 379.496 533.4 380.027C534.708 380.158 536.016 380.285 537.315 380.478C538.618 380.661 539.926 380.802 541.22 381.018L545.105 381.657C546.385 381.882 547.63 382.127 548.847 382.404C551.276 382.949 553.605 383.597 555.713 384.419C557.826 385.241 559.747 386.209 561.309 387.383C562.124 387.951 562.785 388.604 563.441 389.257C564.036 389.938 564.644 390.652 565.109 391.441C565.583 392.226 565.99 393.043 566.321 393.912C566.637 394.79 566.882 395.711 567.059 396.679C567.744 400.568 567.145 405.185 565.837 409.822C564.519 414.472 562.545 419.179 560.332 423.895L555.914 433.294L566.335 432.923C570.192 432.787 573.973 432.199 577.585 431.298C581.203 430.4 584.657 429.203 587.963 427.85C594.58 425.139 600.621 421.837 606.472 418.671L615.235 413.993L619.619 411.663C621.08 410.883 622.532 410.094 624.017 409.357L632.871 404.861L637.303 402.611C638.779 401.869 640.279 401.165 641.769 400.437C647.739 397.567 653.665 394.593 659.707 391.864L668.734 387.688L677.842 383.677L682.394 381.671C683.913 380.999 685.427 380.323 686.96 379.693L696.145 375.842L700.735 373.911C702.273 373.282 703.82 372.68 705.363 372.065L714.62 368.387C717.696 367.133 720.824 366.001 723.929 364.817L733.258 361.294L742.649 357.94L747.349 356.268C748.916 355.7 750.482 355.141 752.063 354.619L761.521 351.43L766.255 349.838L771.013 348.33L780.538 345.305L782.919 344.544L785.31 343.83L790.101 342.402C808.591 336.873 827.257 331.866 846.077 327.357C845.924 326.859 845.761 326.366 845.589 325.872Z" fill="#D5EBFD"/>
<path d="M159.039 340.523L164.569 343.971C162.69 344.784 160.817 345.606 158.943 346.437L159.039 340.523Z" fill="white"/>
<path d="M576.704 418.667C575.3 422.373 573.675 425.9 571.984 429.315L565.976 420.282C569.512 420.231 573.1 419.644 576.704 418.667Z" fill="white"/>
<path d="M752.876 268.857C753.206 268.862 753.542 268.867 753.872 268.876C655.498 309.55 547.786 327.592 441.923 345.019C550.019 321.965 630.771 229.621 737.213 200.085C626.166 215.694 523.676 267.133 414.292 291.555C310.178 314.797 202.183 313.091 95.4199 311.269C277.028 298.361 452.804 240.237 616.991 163.056C631.518 156.227 646.352 149.27 660.304 141.059C672.268 141.923 684.183 143.365 696.003 145.395C679.943 159.439 660.879 171.366 644.627 177.331C676.125 165.762 709.702 159.745 743.331 159.388C745.54 160.576 747.692 161.863 749.776 163.272C762.803 172.075 772.937 186.223 773.176 201.734C773.406 216.953 764.355 230.857 753.8 242.017C741.391 255.137 726.38 265.832 709.917 273.541C724.071 270.53 738.392 268.66 752.876 268.857Z" fill="#D5EBFD"/>
<path d="M167.634 167.843C223.169 170.239 278.705 172.63 334.245 175.021C252.832 181.803 171.424 188.582 90.0107 195.364C95.3099 193.063 100.834 191.203 106.392 189.676C128.116 183.701 151.123 182.278 173.436 185.528C168.765 180.986 167.049 174.354 167.634 167.843Z" fill="#D5EBFD"/>
<path d="M485.27 123.332C458.189 128.762 430.002 130.861 402.429 133.05C325.251 139.18 248.265 147.377 171.342 156.076C173.311 152.473 175.865 149.204 178.716 146.16C202.226 145.103 225.809 142.449 249.257 140.51C327.728 133.999 408.332 135.164 484.738 119.292C484.968 120.631 485.145 121.979 485.27 123.332Z" fill="#D5EBFD"/>
<path d="M436.362 196.571C441.249 193.607 446.213 190.76 451.239 188.036C446.52 191.268 441.513 194.114 436.362 196.571Z" fill="#D7F1F4"/>
<path d="M714.537 476.202H644.824L645.782 302.639L714.537 357.831V476.202Z" fill="#446782"/>
<path d="M714.777 466.574H644.824V476.439H714.777V466.574Z" fill="#CCCCCC"/>
<path d="M645.544 269.975H204.27V485.128H645.544V269.975Z" fill="#446782"/>
<path d="M260.312 294.547L285.676 305.876L357.411 363.343L357.397 370.389L341.586 370.356L341.312 485.363L289.227 485.246L260.312 294.547Z" fill="#3B5C72"/>
<path d="M645.303 277.274H426.822V485.363H645.303V277.274Z" fill="#507493"/>
<path d="M645.783 468.922H426.822V485.363H645.783V468.922Z" fill="#F3F0ED"/>
<path d="M723.391 420.884C732.509 424.313 740.065 431.552 743.763 440.411C746.36 438.569 750.131 438.978 752.79 440.735C755.449 442.496 757.15 445.347 758.319 448.279C761.05 445.263 765.913 444.591 769.65 446.268C773.388 447.95 775.951 451.651 776.765 455.602C779.961 454.686 786.166 453.417 788.561 457.175C793.353 453.887 799.519 453.943 803.414 456.236C805.81 457.645 807.247 461.403 807.247 464.221C807.247 464.221 787.124 464.221 777.542 464.221C767.959 464.221 710.943 464.221 710.943 464.221C705.251 464.709 705.165 461.064 700.038 458.589C698.453 457.823 696.948 456.715 696.196 455.141C695.664 454.028 695.549 452.769 695.444 451.543C695.036 446.808 694.634 442.073 694.227 437.334C693.906 433.562 692.655 428.832 693.489 425.097C694.773 419.325 704.868 418.723 709.559 418.596C714.503 418.47 718.691 419.733 723.391 420.884Z" fill="#8C9754"/>
<path d="M698.486 370.811H653.448V435.276H698.486V370.811Z" fill="#EAEAEA"/>
<path d="M693.935 377.325H658V428.76H693.935V377.325Z" fill="#9EC1E5"/>
<path d="M719.615 366.483L645.312 303.993V296.005L719.615 358.495V366.483Z" fill="#EAEAEA"/>
<path d="M643.386 263.652L204.613 261.548L212.476 253.553L212.936 253.084L221.019 244.863L221.483 244.394L229.566 236.173L230.026 235.704L238.109 227.484L238.574 227.014L246.657 218.794L247.116 218.324L255.199 210.104L255.659 209.634L263.742 201.414L264.207 200.944L272.29 192.724L272.75 192.254L280.833 184.034L281.297 183.564L289.38 175.344L289.84 174.874L297.923 166.654L298.388 166.184L305.024 159.434L541.707 157.903L549.67 166.184L550.12 166.654L558.026 174.874L558.476 175.344L566.382 183.564L566.832 184.034L574.737 192.254L575.188 192.724L583.093 200.944L583.544 201.414L591.444 209.634L591.9 210.104L599.8 218.324L600.256 218.794L608.156 227.014L608.612 227.484L616.512 235.704L616.963 236.173L624.868 244.394L625.319 244.863L633.224 253.084L633.675 253.553L643.386 263.652Z" fill="#C9B9C9"/>
<g opacity="0.42">
<path opacity="0.42" d="M550.123 166.655H297.926L298.391 166.185H549.673L550.123 166.655Z" fill="#EAEAEA"/>
<path opacity="0.42" d="M558.478 175.345H289.382L289.842 174.875H558.027L558.478 175.345Z" fill="#EAEAEA"/>
<path opacity="0.42" d="M566.833 184.035H280.834L281.299 183.564H566.383L566.833 184.035Z" fill="#EAEAEA"/>
<path opacity="0.42" d="M575.19 192.725H272.292L272.752 192.255H574.74L575.19 192.725Z" fill="#EAEAEA"/>
<path opacity="0.42" d="M583.547 201.414H263.745L264.21 200.944H583.097L583.547 201.414Z" fill="#EAEAEA"/>
<path opacity="0.42" d="M591.903 210.105H255.202L255.662 209.635H591.447L591.903 210.105Z" fill="#EAEAEA"/>
<path opacity="0.42" d="M600.258 218.794H246.659L247.119 218.324H599.803L600.258 218.794Z" fill="#EAEAEA"/>
<path opacity="0.42" d="M608.613 227.485H238.11L238.575 227.015H608.158L608.613 227.485Z" fill="#EAEAEA"/>
<path opacity="0.42" d="M616.964 236.174H229.567L230.027 235.704H616.514L616.964 236.174Z" fill="#EAEAEA"/>
<path opacity="0.42" d="M625.322 244.864H221.021L221.486 244.394H624.871L625.322 244.864Z" fill="#EAEAEA"/>
<path opacity="0.42" d="M633.677 253.555H212.478L212.938 253.084H633.226L633.677 253.555Z" fill="#EAEAEA"/>
</g>
<path d="M658 260.13H189.416V277.51H658V260.13Z" fill="#EAEAEA"/>
<path d="M426.822 280.092H572.831L500.607 229.362L426.822 280.092Z" fill="#507493"/>
<path d="M546.364 150.683H300.094V160.077H546.364V150.683Z" fill="#507493"/>
<path d="M417.24 370.281H353.995V485.129H417.24V370.281Z" fill="#F3F0ED"/>
<path d="M413.647 374.273H357.589V485.128H413.647V374.273Z" fill="#70AAA8"/>
<path d="M330.279 360.181H189.416V485.363H330.279V360.181Z" fill="#507493"/>
<path d="M330.279 474.559H189.416V485.363H330.279V474.559Z" fill="#CCCCCC"/>
<path d="M310.874 363.802H208.82V438.521H310.874V363.802Z" fill="#EAEAEA"/>
<path d="M304.407 370.281H215.289V432.05H304.407V370.281Z" fill="#9EC1E5"/>
<path d="M304.407 370.577V384.575C304.23 384.687 304.048 384.8 303.87 384.913C294.484 390.77 285.683 397.534 277.643 405.078C277.149 399.85 284.159 396.501 284.571 391.268C279.43 393.344 274.457 395.834 269.723 398.694C270.14 397.811 269.455 396.726 268.53 396.369C267.61 396.012 266.57 396.196 265.617 396.468C256.897 398.953 251.727 407.633 244.142 412.528C244.018 409.437 244.564 406.323 245.738 403.448C242.039 403.744 238.8 406.017 236.246 408.653C233.692 411.288 231.618 414.35 228.973 416.901C227.938 417.902 226.141 418.794 225.197 417.709C224.79 417.244 224.747 416.582 224.737 415.971C224.675 411.429 225.418 406.877 226.918 402.584C222.668 405.087 218.748 408.131 215.289 411.612V370.281H271.625C268.376 374.25 264.045 377.637 262.914 382.555C268.099 381.78 273.158 380.197 277.849 377.89C279.238 377.205 280.733 376.434 282.266 376.697C283.8 376.956 285.05 378.877 284.049 380.042C291.365 378.703 297.747 373.827 304.407 370.577Z" fill="#B9D5EF"/>
<path d="M240.922 370.281H236.131V431.815H240.922V370.281Z" fill="#EAEAEA"/>
<path d="M283.565 370.281H278.773V431.815H283.565V370.281Z" fill="#EAEAEA"/>
<path d="M408.137 329.221C408.147 330.415 408.066 331.584 407.883 332.726C406.422 342.252 398.742 349.8 388.996 351.242C387.961 351.397 386.898 351.482 385.815 351.491C384.598 351.501 383.405 351.421 382.241 351.242C372.524 349.809 364.824 342.28 363.353 332.726C363.195 331.711 363.109 330.668 363.099 329.607C363.09 328.413 363.171 327.244 363.353 326.102C364.815 316.576 372.495 309.028 382.241 307.586C383.275 307.431 384.339 307.346 385.422 307.337C386.639 307.328 387.832 307.407 388.996 307.586C398.713 309.019 406.413 316.548 407.883 326.102C408.042 327.117 408.123 328.16 408.137 329.221Z" fill="#F3F0ED"/>
<path d="M404.784 329.249C404.794 330.264 404.722 331.26 404.569 332.232C403.323 340.34 396.788 346.766 388.494 347.991C387.612 348.123 386.707 348.193 385.787 348.203C384.752 348.212 383.736 348.142 382.744 347.991C374.475 346.77 367.92 340.363 366.67 332.232C366.535 331.368 366.464 330.48 366.454 329.578C366.444 328.564 366.516 327.568 366.67 326.596C367.915 318.488 374.451 312.062 382.744 310.836C383.626 310.705 384.531 310.634 385.451 310.625C386.486 310.615 387.502 310.686 388.494 310.836C396.764 312.058 403.318 318.465 404.569 326.596C404.703 327.46 404.775 328.348 404.784 329.249Z" fill="#9EC1E5"/>
<path d="M404.784 329.249C404.794 330.264 404.722 331.26 404.569 332.232H388.494V347.991C387.612 348.123 386.707 348.193 385.787 348.203C384.752 348.212 383.736 348.142 382.744 347.991V332.232H366.67C366.535 331.368 366.464 330.48 366.454 329.578C366.444 328.564 366.516 327.568 366.67 326.596H382.744V310.836C383.626 310.705 384.531 310.634 385.451 310.625C386.486 310.615 387.502 310.686 388.494 310.836V326.596H404.569C404.703 327.46 404.775 328.348 404.784 329.249Z" fill="#F3F0ED"/>
<path d="M197.092 340.133C195.113 348.452 191.208 356.527 184.816 362.333C178.42 368.139 169.336 371.408 160.788 369.721C163.778 384.851 124.772 400.38 119.789 385.763C118.831 382.944 113.427 378.947 109.244 382.014C103.93 385.913 97.1029 390.324 82.4225 390.962C71.4026 391.442 61.8824 387.952 54.2643 383.423C42.7174 376.575 36.9631 361.581 41.0405 348.964C39.5216 349.166 38.0699 349.345 36.6708 349.481C28.8084 350.242 22.6133 349.66 15.7858 344.516C9.2984 339.626 5.16834 331.631 6.61051 323.609C6.68717 323.158 6.78779 322.702 6.90278 322.251C7.28608 320.781 7.85624 319.315 8.64679 317.873C7.8754 317.131 7.15671 316.342 6.49073 315.52C-0.145155 307.389 -1.94188 295.599 2.26005 286.007C4.4257 281.051 8.12933 276.833 12.6619 273.785C16.3895 271.281 20.6728 269.576 25.1287 268.904C26.8104 268.651 28.5161 268.543 30.2266 268.599C30.2985 266.232 30.5859 263.733 32.0137 261.821C33.4463 259.904 36.3498 258.866 38.3717 260.172C34.3231 250.928 37.3081 239.678 44.0541 232.092C50.805 224.506 60.7133 220.194 70.7702 218.169C70.981 214.491 72.38 210.997 74.5313 207.962C73.6833 206.412 73.1562 204.679 72.9119 202.931C71.968 196.252 74.6751 189.309 79.2938 184.311C91.5546 171.051 108.099 169.05 119.694 174.536C120.858 175.086 121.974 175.715 123.028 176.411C127.82 179.577 129.406 186.378 128.026 191.883C127.46 194.133 126.368 196.167 124.954 198.018C125.932 198.366 126.895 198.746 127.848 199.164C134.341 202.001 140.157 206.515 144.187 212.213C144.436 212.57 144.68 212.927 144.91 213.293C145.978 214.933 146.903 216.666 147.651 218.475C148.848 221.368 149.476 224.661 149.352 227.822C149.347 227.93 149.342 228.043 149.337 228.151C149.088 232.444 147.416 236.456 143.837 238.842C153.098 234.483 165.258 237.212 171.669 245.08C175.105 249.298 176.705 254.77 176.46 260.158C176.259 264.818 174.673 269.412 171.708 273.075C178.899 272.479 186.187 277.275 188.357 284.015C190.523 290.765 187.361 298.784 181.118 302.339C188.472 304.491 194.111 310.762 196.632 317.868C199.142 324.975 198.831 332.806 197.092 340.133Z" fill="#B3C663"/>
<path d="M197.045 340.212C195.061 348.531 191.147 356.601 184.75 362.402C178.349 368.203 169.26 371.463 160.717 369.772C163.693 384.907 124.678 400.403 119.704 385.78C118.746 382.962 113.346 378.96 109.164 382.023C103.845 385.917 97.0177 390.323 82.3325 390.947C71.3127 391.417 61.7972 387.918 54.1791 383.385C42.637 376.527 36.8971 361.529 40.984 348.916C39.4652 349.118 38.0135 349.292 36.6144 349.428C28.752 350.185 22.5569 349.597 15.7341 344.445C9.25159 339.55 5.12632 331.551 6.57807 323.528C8.46103 322.043 10.6458 320.921 12.9408 320.291C20.2954 318.286 28.2681 320.437 34.8992 324.143C41.535 327.849 47.1696 333.011 53.173 337.638C59.1716 342.27 65.8219 346.488 73.3394 347.78C82.5386 349.367 92.4612 346.107 98.824 339.404C106.557 331.264 109.077 318.816 118.267 312.292C120.734 310.535 123.906 309.29 126.814 310.183C130.24 311.24 132.071 314.772 134.586 317.285C137.94 320.639 142.98 322.292 147.719 321.592C152.457 320.893 156.779 317.863 158.983 313.692C160.689 310.465 161.134 306.754 161.412 303.128C162.193 292.972 161.944 282.469 165.863 273.042C167.986 267.936 171.8 263.201 176.476 260.213C176.27 264.873 174.679 269.467 171.713 273.126C178.905 272.534 186.188 277.335 188.353 284.08C190.514 290.83 187.342 298.848 181.099 302.399C188.454 304.555 194.088 310.831 196.599 317.943C199.105 325.054 198.789 332.885 197.045 340.212Z" fill="#8C9754"/>
<path d="M24.9418 301.639C26.4223 304.016 29.7858 304.443 32.5887 303.997C36.2253 303.419 39.6175 301.832 42.7989 300.009C48.3233 296.848 53.3972 292.921 57.8196 288.393C61.9449 284.165 63.8183 277.702 56.9524 274.987C52.4246 273.197 45.2856 275.137 41.0932 277.373C34.4525 280.915 19.7241 293.264 24.9418 301.639Z" fill="#D6EB82"/>
<path d="M101.266 474.587C81.5935 475.527 61.8919 475.743 42.1951 475.959C37.6242 476.01 33.0533 476.057 28.4825 476.109C27.5003 476.119 26.4845 476.137 25.579 476.518C24.9801 476.771 24.4578 477.175 23.8733 477.462C21.9328 478.42 19.3504 477.875 17.9849 476.217C17.8603 476.067 17.7405 475.898 17.7118 475.705C17.6064 475.019 18.5454 474.705 19.2498 474.653C21.837 474.465 24.7741 474.047 26.2306 471.943C26.8966 470.98 27.1697 469.744 28.0417 468.955C29.2443 467.865 31.1368 468.006 32.6988 468.495C34.2607 468.983 35.7891 469.744 37.423 469.688C37.6242 468.269 37.8494 466.804 38.6543 465.611C39.4592 464.418 41.026 463.591 42.3963 464.075C43.6755 464.53 44.7248 466.019 46.0185 465.615C45.4771 464.493 45.846 463.023 46.8569 462.271C47.8679 461.519 49.4107 461.576 50.3641 462.393C50.8864 462.844 51.2218 463.469 51.7153 463.948C52.2088 464.432 52.9897 464.756 53.5934 464.418C54.0726 464.15 54.2546 463.572 54.384 463.046C54.9254 460.824 55.1841 458.532 55.8549 456.343C56.5257 454.154 57.6756 452.008 59.5921 450.702C61.5038 449.396 64.2971 449.156 66.113 450.589C68.4942 452.468 68.2547 456.033 67.7899 458.997C67.4545 461.158 67.1143 463.319 66.779 465.479C67.6222 464.483 68.4655 463.488 69.3087 462.496C71.1725 460.298 73.204 457.987 76.0069 457.179C78.805 456.371 82.4847 457.898 82.7242 460.749C81.3827 457.536 81.2725 453.769 82.7865 450.631C84.3006 447.494 87.5251 445.112 91.0562 444.91C94.5874 444.708 98.2335 446.888 99.3403 450.185C98.818 448.424 98.5449 446.587 98.5306 444.755C98.5258 443.989 98.5881 443.163 99.0864 442.571C99.508 442.073 100.16 441.838 100.778 441.627C103.49 440.701 106.34 439.799 109.177 440.208C112.018 440.617 114.811 442.768 114.912 445.577C115.008 448.207 112.871 450.363 112.037 452.867C111.266 455.188 111.644 457.743 111.05 460.115C110.049 464.126 106.503 466.959 103.168 469.481" fill="#8C9754"/>
<path d="M172.326 323.228C171.574 326.671 167.645 328.31 164.233 329.405C152.648 333.139 141.058 336.873 129.473 340.608C128.189 341.021 126.823 341.486 125.99 342.529C125.29 343.403 125.079 344.544 124.883 345.638C124.389 348.414 122.818 370.045 121.86 374.273C120.901 378.5 122.818 387.425 122.818 391.653C122.818 395.88 125.214 410.911 125.693 419.836C126.172 428.761 136.233 476.203 136.233 476.203L105.79 477.232L94.5495 477.613C94.5495 477.613 98.8616 451.308 99.8199 445.671C100.778 440.035 100.299 412.321 102.695 402.456C105.09 392.592 105.09 366.288 105.569 356.423C106.049 346.559 105.569 341.862 105.569 341.862L105.732 341.975C105.574 341.068 105.359 340.152 105.052 339.208C103.792 335.333 102.139 331.589 100.203 327.995C97.9705 323.848 95.3592 319.902 92.4941 316.154C85.2545 306.684 76.4769 298.464 67.7424 290.291C64.3934 287.158 60.9676 283.973 56.7801 282.042C54.0299 280.774 51.0162 280.083 48.3714 278.618C45.7266 277.157 43.3789 274.611 43.4125 271.633C48.9128 273.728 54.4132 275.818 59.9183 277.913C58.9074 275.391 57.7096 272.939 56.3488 270.581C57.24 269.881 58.1264 269.186 59.0176 268.491C61.188 271.408 61.4899 275.259 63.0518 278.529C64.4557 281.474 66.8225 283.851 69.1511 286.166C78.0388 295.025 86.9266 303.88 95.8144 312.734C94.6837 306.52 92.9397 300.409 90.6159 294.518C89.145 290.784 87.4297 287.092 86.7637 283.146C86.1888 279.755 86.4092 276.293 86.3229 272.859C86.1217 265.048 84.2914 257.278 80.9807 250.176C79.6631 247.344 78.0916 244.563 77.5837 241.496C77.0758 238.428 77.8855 234.901 80.4872 233.125C84.646 244.647 88.0095 256.452 90.5392 268.42C93.9985 255.573 105.1 246.315 115.607 237.921C116.743 239.485 115.133 241.51 113.691 242.811C107.596 248.302 102.345 254.695 98.1717 261.703C96.5666 264.409 95.1005 267.232 94.3435 270.266C92.9013 276.03 94.0848 282.089 95.5605 287.843C97.3428 294.767 99.542 301.573 101.746 308.38C107.984 302.339 114.222 296.298 120.461 290.258C122.339 288.435 124.236 286.599 125.75 284.475C127.834 281.554 129.147 278.181 130.431 274.846C132.123 270.468 133.814 266.09 135.5 261.717C136.018 260.383 136.559 259.012 137.585 258.011C138.615 257.006 140.272 256.48 141.552 257.156C137.867 264.024 134.892 271.257 132.688 278.712C140.129 273.756 147.57 268.796 155.01 263.84C156.223 263.032 157.502 262.201 158.958 262.027C160.094 265.062 157.416 268.101 154.886 270.177C150.301 273.944 145.399 277.35 140.258 280.347C136.051 282.798 131.658 284.997 127.82 287.98C123.168 291.596 119.483 296.256 115.847 300.864C112.292 305.369 108.736 309.873 105.181 314.383C104.587 315.134 103.969 315.952 103.916 316.901C103.868 317.76 104.295 318.563 104.707 319.324C106.279 322.204 107.845 325.088 109.417 327.972C116.695 319.043 123.968 310.118 131.241 301.188C132.927 299.117 135.29 296.815 137.891 297.534C131.423 305.11 125.357 313.016 119.728 321.208C118.726 322.669 117.72 324.167 117.183 325.849C115.875 329.964 117.543 334.36 119.191 338.353C122.751 334.619 126.292 330.87 129.813 327.098C142.553 313.457 155.039 299.591 167.252 285.495C168.526 285.955 169.03 287.557 168.699 288.849C168.368 290.136 167.429 291.178 166.528 292.174C155.154 304.721 144.685 318.056 135.227 332.054C147.306 328.08 159.735 325.125 172.326 323.228Z" fill="#A06056"/>
<path d="M419.639 501.629H353.04L357.85 487.241H414.828L419.639 501.629Z" fill="#EAEDEF"/>
<path d="M419.636 501.629H353.037V503.875H419.636V501.629Z" fill="#B3B9BC"/>
<path d="M602.33 558.922C565.567 572.736 515.105 572.309 478.663 572.267H478.615C455.277 572.238 431.944 570.914 408.634 569.312C407.139 569.209 405.649 569.105 404.159 569.002L432.092 488.181H577.746L591.641 526.943C588.383 527.065 585.129 527.079 581.876 526.962C584.027 527.591 587.928 528.446 592.508 529.54L602.33 558.922Z" fill="#EAEDEF"/>
<path d="M589.926 284.086H543.25V272.812H554.068L500.607 235.352L447.152 272.812H458.924V284.086H411.284L500.607 221.495L589.926 284.086Z" fill="#F3F0ED"/>
<path d="M543.25 272.812H554.069L500.608 235.351L447.152 272.812H458.924V284.085H428.38L500.608 233.472L572.831 284.085H543.25V272.812Z" fill="#B1B1AF"/>
<path d="M116.109 207.389C108.98 199.516 112.631 187.101 117.829 177.885C118.462 176.763 119.113 175.649 119.779 174.55C120.944 175.1 122.06 175.729 123.114 176.429C127.901 179.6 129.482 186.401 128.097 191.907C127.532 194.157 126.435 196.191 125.021 198.037C125.999 198.384 126.962 198.765 127.915 199.183C134.407 202.025 140.219 206.543 144.244 212.246C143.726 212.33 143.214 212.405 142.706 212.471C133.363 213.702 122.372 214.298 116.109 207.389Z" fill="#D6EB82"/>
<path d="M57.4795 244.971C54.0057 246.695 52.2281 251.129 53.5697 254.713C57.0962 254.591 60.5556 253.078 63.0041 250.584C64.3217 249.245 65.3806 247.55 65.4908 245.69C65.601 243.829 64.5565 241.833 62.7597 241.232C59.7363 242.228 57.1489 244.435 55.721 247.23" fill="#D6EB82"/>
<path d="M86.9359 245.657C87.5539 247.395 88.3254 249.307 90.031 250.077C92.4746 251.181 95.2487 249.269 96.8251 247.132C100.481 242.186 101.257 235.332 98.7991 229.724C97.9941 227.887 96.7772 226.107 94.9325 225.262C93.2891 224.505 86.4711 231.279 85.7381 232.97C84.0755 236.793 85.6374 242.003 86.9359 245.657Z" fill="#D6EB82"/>
<path d="M75.6914 360.815C75.0781 360.139 73.9377 360.529 73.1807 361.055C71.3456 362.328 69.9033 364.141 69.084 366.194C72.5722 366.677 76.2376 364.324 77.1864 360.998C76.4437 360.66 75.5189 360.745 74.8577 361.219" fill="#B3C663"/>
<path d="M152.807 346.62C152.443 349.57 152.567 352.576 153.18 355.484C153.458 356.804 154.364 358.438 155.696 358.11C156.487 354.601 155.959 350.819 154.235 347.649C153.822 346.892 153.089 346.061 152.246 346.291" fill="#B3C663"/>
<path d="M164.616 336.639C166.26 339.612 169.633 341.585 173.083 341.595C173.571 341.595 174.084 341.552 174.487 341.289C175.191 340.829 175.33 339.81 174.985 339.049C174.64 338.288 173.94 337.748 173.217 337.311C170.701 335.794 167.611 335.216 164.702 335.718" fill="#B3C663"/>
<path d="M172.326 323.228C171.573 326.671 167.644 328.31 164.233 329.405C152.648 333.139 141.058 336.873 129.472 340.608C128.188 341.021 126.823 341.486 125.989 342.529C125.289 343.402 125.079 344.544 124.882 345.638C124.389 348.414 122.817 370.045 121.859 374.273C120.901 378.5 122.817 387.425 122.817 391.653C122.817 395.88 125.213 410.911 125.692 419.836C126.171 428.761 136.233 476.203 136.233 476.203L105.789 477.232C105.664 476.664 105.554 476.076 105.454 475.47C104.083 467.091 103.341 458.612 103.221 450.124C103.111 442.261 106.029 432.284 104.744 424.731C106.594 435.6 108.443 446.474 110.298 457.344C110.714 444.581 111.131 431.824 111.553 419.066C113.316 432.035 116.354 444.835 120.604 457.236C116.708 431.612 114.586 405.735 114.255 379.834C113.532 386.467 112.458 393.067 111.05 399.591C110.59 385.974 111.476 372.314 113.685 358.861C113.412 361.938 113.776 365.071 114.749 368.011C113.517 359.467 114.523 350.617 117.652 342.552C118.678 344.52 119.703 346.493 120.728 348.466C119.262 341.265 124.082 334.426 128.639 328.597C129.031 328.099 129.42 327.596 129.812 327.098C142.552 313.457 155.039 299.591 167.252 285.495C168.526 285.955 169.029 287.557 168.699 288.848C168.368 290.136 167.429 291.178 166.528 292.174C155.154 304.72 144.685 318.056 135.227 332.054C147.305 328.08 159.734 325.125 172.326 323.228Z" fill="#44213D"/>
<path d="M120.541 479.713C119.166 477.284 119.635 473.991 121.633 472.023C123.631 470.055 126.99 469.585 129.472 470.924C129.429 469.731 129.491 468.486 130.066 467.434C130.641 466.382 131.848 465.579 133.046 465.8C131.096 464.113 131.168 460.684 133.185 459.073C135.202 457.462 138.638 458.091 139.931 460.304C141.46 462.93 139.97 466.382 141.091 469.196C142.241 467.688 144.919 468.421 145.858 470.065C146.797 471.709 146.534 473.724 146.246 475.584C147.645 474.616 149.6 474.489 151.114 475.264C152.628 476.039 153.644 477.684 153.639 479.36C153.155 479.37 152.671 479.379 152.183 479.393L120.541 479.713Z" fill="#8C9754"/>
<path d="M110.221 363.469C111.088 356.071 112.2 348.706 113.551 341.378C114.116 342.458 114.687 343.539 115.252 344.619C115.214 338.621 114.801 332.627 114.025 326.68C114.116 327.859 113.992 329.057 113.666 330.199C108.458 328.648 106.144 322.631 101.597 319.7C102.79 323.078 104.582 326.253 106.867 329.038C111.036 334.13 109.938 338.099 110.01 344.464C110.077 350.632 110.94 357.349 110.221 363.469Z" fill="#C38266"/>
<path d="M105.785 408.657C105.316 411.856 104.765 415.2 105.833 418.258C106.499 415.022 107.726 411.893 109.436 409.047C109.882 411.297 110.327 413.547 110.773 415.792C110.462 412.471 110.15 409.15 109.839 405.834C109.527 402.499 110.323 389.52 107.596 388.097C106.49 394.795 106.777 401.865 105.785 408.657Z" fill="#C38266"/>
<path d="M327.164 354.309H193.488L260.566 300.76L327.164 354.309Z" fill="#325268"/>
<path d="M313.682 354.309H212.841L263.441 313.913L313.682 354.309Z" fill="#446782"/>
<path d="M260.086 296.534L176.239 362.061H343.454L260.086 296.534ZM263.258 310.466L293.941 334.582H263.258V310.466ZM256.55 334.582H226.006L256.55 310.715V334.582ZM256.55 341.158V353.104L228.071 341.158H256.55ZM263.258 353.136V341.158H292.029L263.474 353.136H263.258ZM304.664 343.009L317.548 353.136H280.526L304.664 343.009ZM215.298 342.953L239.58 353.136H202.27L215.298 342.953Z" fill="#F3F0ED"/>
<path d="M304.167 409.738H215.049V412.086H304.167V409.738Z" fill="#EAEAEA"/>
<path d="M304.167 380.614H215.049V381.591H304.167V380.614Z" fill="#EAEAEA"/>
<path d="M304.167 396.584H215.049V397.561H304.167V396.584Z" fill="#EAEAEA"/>
<path d="M253.877 370.281H252.881V411.635H253.877V370.281Z" fill="#EAEAEA"/>
<path d="M266.814 370.281H265.817V411.635H266.814V370.281Z" fill="#EAEAEA"/>
<path d="M218.899 370.281H217.903V411.635H218.899V370.281Z" fill="#EAEAEA"/>
<path d="M231.837 370.281H230.841V411.635H231.837V370.281Z" fill="#EAEAEA"/>
<path d="M286.937 370.281H285.94V411.635H286.937V370.281Z" fill="#EAEAEA"/>
<path d="M299.873 370.281H298.876V411.635H299.873V370.281Z" fill="#EAEAEA"/>
<path d="M773.177 201.734C773.186 202.316 773.182 202.899 773.162 203.476C773.153 203.824 773.138 204.172 773.114 204.519C772.75 204.467 616.076 204.937 616.076 204.937C625.18 196.482 639.553 195.543 654.406 200.71C652.921 197.558 656.251 186.834 659.792 186.876C663.332 186.919 668.435 190.061 671.176 192.255C672.536 191.179 668.445 188.459 668.071 186.787C667.736 185.303 668.957 183.823 670.414 183.311C671.875 182.799 673.485 183.024 675.004 183.306C681.031 184.429 686.881 186.421 692.319 189.197C690.072 185.988 687.744 182.545 687.614 178.661C687.49 174.776 690.599 170.525 694.547 170.924C696.473 171.117 698.117 172.329 699.612 173.545C704.844 177.811 709.534 182.719 713.545 188.112C717.454 184.579 722.864 182.691 728.172 183.01C729.035 183.057 729.95 183.189 730.621 183.701C730.606 182.48 730.731 181.258 730.994 180.065C731.397 178.261 732.149 176.462 733.548 175.227C735.652 173.376 738.857 173.156 741.559 173.973C744.271 174.79 746.595 176.481 748.861 178.144C749.125 175.147 751.487 172.639 754.251 171.333C755.377 170.802 756.57 170.431 757.787 170.177C758.07 170.3 758.353 170.426 758.635 170.553C763.661 175.556 767.767 181.442 770.321 187.844C772.08 192.264 773.105 196.933 773.177 201.734Z" fill="white"/>
<path d="M694.094 377.487L694.007 386.811C690.63 390.813 686.073 393.687 681.588 396.492C680.86 396.952 679.978 397.422 679.178 397.107C678.579 396.877 678.239 396.271 677.937 395.717C676.989 393.941 676.045 392.17 675.096 390.399C673.424 392.941 672.576 395.989 672.705 399.009C669.212 397.774 666.28 395.106 664.776 391.785C662.145 398.295 659.826 404.933 657.848 411.664L658.164 377.177L694.094 377.487Z" fill="#B9D5EF"/>
<path d="M207.871 496.598C198.222 495.828 188.174 495.518 178.079 495.039C185.52 494.264 192.419 493.987 197.316 493.747C217.799 492.751 237.103 495.762 256.575 499.952C240.347 498.787 224.085 497.895 207.871 496.598Z" fill="#B3C663"/>
<path d="M557.863 328.239H448.622V485.128H557.863V328.239Z" fill="#E4E4DD"/>
<path d="M448.384 341.392H557.624" stroke="#A7A0A0" stroke-miterlimit="10"/>
<path d="M448.383 354.545H557.623" stroke="#A7A0A0" stroke-miterlimit="10"/>
<path d="M448.383 367.696H557.623" stroke="#A7A0A0" stroke-miterlimit="10"/>
<path d="M448.383 380.849H557.623" stroke="#A7A0A0" stroke-miterlimit="10"/>
<path d="M448.383 394.001H557.623" stroke="#A7A0A0" stroke-miterlimit="10"/>
<path d="M448.383 407.154H557.623" stroke="#A7A0A0" stroke-miterlimit="10"/>
<path d="M448.383 420.306H557.623" stroke="#A7A0A0" stroke-miterlimit="10"/>
<path d="M448.383 433.458H557.623" stroke="#A7A0A0" stroke-miterlimit="10"/>
<path d="M448.383 446.61H557.623" stroke="#A7A0A0" stroke-miterlimit="10"/>
<path d="M448.383 459.762H557.623" stroke="#A7A0A0" stroke-miterlimit="10"/>
<path d="M448.383 472.915H557.623" stroke="#A7A0A0" stroke-miterlimit="10"/>
<path d="M399.034 383.903H372.682V394.707H399.034V383.903Z" fill="#D1BD59"/>
<path d="M510.311 479.257H494.979V481.136H510.311V479.257Z" fill="#446782"/>
</svg>
