<svg width="660" height="553" viewBox="0 0 660 553" fill="none" xmlns="http://www.w3.org/2000/svg">
<path d="M642.638 439.179H10.9962C8.5086 435.795 6.32773 432.087 4.54037 427.846C-4.81654 405.628 1.33914 383.401 13.4504 364.118C64.7418 282.478 46.9055 249.942 67.0559 150.422C72.0111 125.966 103.273 120.923 121.49 120.992C132.808 121.031 143.115 123.473 153.782 126.173C146.926 117.395 138.817 109.158 137.149 96.6666C135.112 81.413 151.448 69.0459 163.703 71.6607C163.416 61.1556 167.324 49.6721 175.764 45.0119C195.128 34.3203 211.898 53.1279 226.534 64.3529C220.785 48.5593 229.555 31.9018 239.095 20.8927C262.471 -6.08008 310.706 -3.17729 338.723 8.61719C369.975 21.7731 393.454 49.0666 391.583 89.1822C390.94 102.983 387.159 116.656 383.414 129.677C398.696 115.733 415.593 123.993 422.489 142.477C423.462 122.995 446.675 109.816 460.937 106.802C473.922 104.056 486.256 105.611 495.913 116.381C494.346 107.996 495.537 96.4572 503.35 90.3244C513.354 82.4701 522.357 84.4337 526.692 87.7063C526.692 87.7063 530.36 62.8345 569.042 63.489C625.553 64.4471 637.388 268.307 633.961 301.474C628.439 354.932 637.886 414.229 642.638 439.179Z" fill="#DAE8EF"/>
<path d="M659.175 436.397C658.815 438.744 636.789 454.904 623.925 455.11C623.451 467.889 597.278 469.225 588.318 469.922C587.767 478.123 574.762 484.014 563.425 477.468C544.354 509.687 504.402 517.722 472.043 510.807C473.94 531.257 437.953 540.82 423.848 544.03C385.53 552.745 339.245 555.932 300.447 549.214C272.173 544.318 236.233 534.304 217.425 511.157C212.183 504.703 205.624 495.193 205.334 486.573C187.614 508.231 133.343 507.161 108.01 485.031C102.118 479.884 99.2702 473.518 95.0286 467.31C82.2403 472.56 72.9035 466.014 71.2361 457.833C59.8985 466.996 40.2243 472.56 24.8851 460.778C16.6386 454.446 16.0917 443.028 16.5419 436.397H659.175Z" fill="#D9B98E"/>
<path d="M428.706 420.198H422.203V436.233H428.706V420.198Z" fill="#834B3B"/>
<path d="M403.03 420.198H396.527V436.233H403.03V420.198Z" fill="#834B3B"/>
<path d="M378.02 420.198H371.518V436.233H378.02V420.198Z" fill="#834B3B"/>
<path d="M428.472 427.07H364.915C359.813 427.07 355.678 423.012 355.678 418.005V358.575C355.678 353.568 359.813 349.51 364.915 349.51H428.472C433.574 349.51 437.709 353.568 437.709 358.575V418.005C437.709 423.012 433.574 427.07 428.472 427.07Z" fill="#784237"/>
<path d="M122.589 436.234H115.586V410.707H130.259L122.589 436.234Z" fill="#606B6D"/>
<path d="M172.608 436.234H165.605V410.707H180.278L172.608 436.234Z" fill="#606B6D"/>
<path d="M311.995 436.234H318.997V410.707H304.325L311.995 436.234Z" fill="#606B6D"/>
<path d="M361.347 436.234H368.35V410.707H353.678L361.347 436.234Z" fill="#606B6D"/>
<path d="M177.61 289.948H168.273V328.238H177.61V289.948Z" fill="#784237"/>
<path d="M385.69 366.681V407.445C385.69 411.054 382.709 413.98 379.031 413.98H108.474C103.562 413.98 99.5801 410.072 99.5801 405.252V328.663C99.5801 323.908 103.505 320.056 108.35 320.056H329.055C332.416 320.056 335.407 322.147 336.501 325.266L347.782 357.364H376.196C381.441 357.364 385.69 361.533 385.69 366.681Z" fill="#39707A"/>
<path opacity="0.25" d="M130.259 320.056C130.259 320.056 136.261 320.711 138.929 326.929C141.596 333.147 160.604 380.272 160.604 380.272H342.34L321.756 327.174C320.095 322.89 315.91 320.056 311.238 320.056" stroke="white" stroke-width="4" stroke-miterlimit="10"/>
<path opacity="0.25" d="M190.281 320.056C190.281 320.056 196.284 320.711 198.951 326.929C201.619 333.147 220.626 380.272 220.626 380.272H283.984L263.399 327.174C261.739 322.89 257.554 320.056 252.882 320.056" stroke="white" stroke-width="4" stroke-miterlimit="10"/>
<path d="M178.944 357.364V413.98H108.474C103.562 413.98 99.5801 410.072 99.5801 405.252V328.663C99.5801 323.908 103.505 320.056 108.35 320.056H110.308C113.899 320.056 117.133 322.196 118.477 325.469L131.592 357.364H178.944Z" fill="#77A9A6"/>
<path d="M142.577 413.201C142.613 413.476 142.623 413.734 142.603 413.98H108.474C103.562 413.98 99.5801 410.072 99.5801 405.252V363.601C104.365 364.652 108.477 369.931 110.261 375.052C110.514 375.782 110.624 376.81 111.178 377.422C113.159 379.611 116.637 376.983 119.401 377.271C119.298 379.775 115.546 384.654 121.615 383.358C124.96 382.645 128.191 381.296 131.699 380.812C133.236 380.599 134.87 380.468 136.301 380.2C133.94 382.052 130.575 382.628 127.984 384.193C126.744 384.942 125.563 385.865 124.36 386.644C123.429 387.246 122.902 387.54 122.389 388.385C122.112 388.846 122.682 389.488 121.842 390.031C125.397 391.674 131.376 389.556 135.164 389.317C137.548 389.167 142.07 388.496 144.157 389.651C140.486 390.882 136.934 392.374 133.176 393.408C130.469 394.154 126.307 394.318 124.06 396.049C124.846 397.015 126.557 398.952 127.614 399.544C130.282 401.037 133.01 399.237 135.434 402.045C136.364 403.121 136.914 404.525 137.675 405.713C138.368 406.796 139.215 407.055 139.982 407.88C140.953 408.927 142.377 411.722 142.577 413.201Z" fill="#93BCB8"/>
<path d="M368.349 388.129V398.271H183.945V378.308H358.342C363.868 378.308 368.349 382.707 368.349 388.129Z" fill="#77A9A6"/>
<path d="M385.69 366.681V407.444C385.69 411.054 382.708 413.98 379.03 413.98H172.941V398.271H368.35L368.4 365.005C368.406 360.784 371.894 357.364 376.196 357.364C381.438 357.364 385.69 361.536 385.69 366.681Z" fill="#5C958C"/>
<path d="M177.143 357.364H180.741C184.536 357.364 187.61 360.381 187.61 364.105V407.235C187.61 410.959 184.536 413.977 180.741 413.977H177.143C173.348 413.977 170.273 410.959 170.273 407.235V364.105C170.273 360.381 173.348 357.364 177.143 357.364Z" fill="#5C958C"/>
<path d="M623.924 455.11C621.446 467.651 598.437 474.851 588.317 469.922C587.766 478.123 574.762 484.014 563.424 477.469" fill="#D9B98E"/>
<path d="M659.175 436.397C664.797 451.288 640.454 464.051 623.924 455.11C623.451 467.889 597.277 469.225 588.317 469.922" fill="#D9B98E"/>
<path d="M298.825 195.474L220.787 212.879L238.522 289.466L316.56 272.061L298.825 195.474Z" fill="#A1674E"/>
<path d="M295.277 201.004L226.422 216.361L242.07 283.936L310.925 268.579L295.277 201.004Z" fill="white"/>
<path d="M292.573 243.428L296.315 259.594L251.221 269.651L240.974 225.396L254.475 222.385L260.978 250.477L292.573 243.428Z" fill="#CD4739"/>
<path d="M277.919 233.669C282.506 233.669 286.225 230.019 286.225 225.517C286.225 221.014 282.506 217.365 277.919 217.365C273.331 217.365 269.612 221.014 269.612 225.517C269.612 230.019 273.331 233.669 277.919 233.669Z" fill="#F7CE49"/>
<path d="M204.286 293.548C198.321 302.554 177.986 308.31 160.776 308.144C154.497 308.081 148.632 307.234 144.033 305.467C142.919 305.038 141.882 304.557 140.929 304.02L147.931 254.604L180.277 249.695L204.286 293.548Z" fill="#F4B742"/>
<path d="M151.183 255.838C158.102 254.512 165.041 253.472 172.064 252.781C173.698 252.621 175.365 252.415 176.969 252.186C177.756 252.071 178.69 251.75 179.464 252.087C180.354 256.731 163.357 257.062 160.52 257.297C157.895 257.517 155.091 257.736 152.483 257.356C151.656 257.238 150.086 256.669 151.183 255.838Z" fill="#CD4739"/>
<path d="M659.128 269.658H543.084V436.561H659.128V269.658Z" fill="#CD4739"/>
<path d="M559.423 392.381H543.083V402.853H559.423V392.381Z" fill="#AE3B33"/>
<path d="M580.43 405.471H559.089V415.943H580.43V405.471Z" fill="#AE3B33"/>
<path d="M580.43 377.654H559.089V388.126H580.43V377.654Z" fill="#AE3B33"/>
<path d="M551.753 364.563H543.083V375.036H551.753V364.563Z" fill="#AE3B33"/>
<path d="M577.763 364.563H556.422V375.036H577.763V364.563Z" fill="#AE3B33"/>
<path d="M562.424 318.747H543.083V329.219H562.424V318.747Z" fill="#AE3B33"/>
<path d="M580.43 302.711H559.089V313.184H580.43V302.711Z" fill="#AE3B33"/>
<path d="M553.755 286.676H543.084V297.148H553.755V286.676Z" fill="#AE3B33"/>
<path d="M580.43 286.675H559.089V297.148H580.43V286.675Z" fill="#AE3B33"/>
<path d="M659.127 286.675H649.457V297.148H659.127V286.675Z" fill="#AE3B33"/>
<path d="M645.455 286.675H624.113V297.148H645.455V286.675Z" fill="#AE3B33"/>
<path d="M588.434 349.51H567.093V359.982H588.434V349.51Z" fill="#AE3B33"/>
<path d="M574.094 334.128H552.753V344.6H574.094V334.128Z" fill="#AE3B33"/>
<path d="M562.424 349.51H543.083V359.982H562.424V349.51Z" fill="#AE3B33"/>
<path d="M659.128 300.748H577.764V436.561H659.128V300.748Z" fill="#4B364F"/>
<path d="M659.128 300.748V314.26C657.944 315.543 656.847 316.865 655.94 318.269C648.194 330.237 654.55 345.393 652.102 359.396C651.035 365.5 650.255 372.932 644.463 366.805C639.241 361.285 644.603 353.152 643.839 346.95C636.336 348.976 637.08 355.878 632.155 359.429C627.426 362.839 629.233 358.028 624.578 358.918C620.437 359.714 617.759 362.885 615.858 367.084C615.001 370.569 614.321 373.982 614.161 377.222C613.968 381.143 613.817 417.174 603.734 403.246C595.821 411.719 592.623 429.911 584.49 411.499C581.255 404.179 580.888 403.606 577.764 408.695V300.748H659.128Z" fill="#402C42"/>
<path d="M485.395 310.893L520.742 307.948L524.743 322.347V326.929L526.577 367.018L528.578 373.563L531.579 430.507H520.575L511.238 375.2L512.239 367.018L503.902 334.292L495.899 375.2L496.232 392.544L491.564 430.507H481.894V378.472L483.561 373.563L481.894 354.909L485.395 310.893Z" fill="#282626"/>
<path d="M495.378 317.333C495.665 318.39 498.899 330.692 502.451 330.849" stroke="#525354" stroke-width="3" stroke-miterlimit="10"/>
<path d="M449.567 307.562C449.104 308.547 447.96 309.528 447.29 310.399C446.519 311.397 445.909 312.415 445.249 313.482C444.682 314.395 443.538 315.612 443.505 316.676C445.669 316.64 447.28 312.297 449.05 311.132C449.017 313.554 444.869 316.283 445.966 318.875C448.614 317.998 448.954 313.688 451.525 312.565C451.238 313.852 450.144 315.18 449.601 316.476C449.354 317.059 448.167 319.513 448.69 320.112C449.767 321.339 452.938 314.532 453.545 313.678C453.685 314.647 452.268 320.063 453.212 319.241C454.496 318.126 458.291 310.327 459.114 309.172C460.141 307.732 461.402 306.243 459.874 304.773C458.921 303.854 457.107 303.359 455.77 303.435C452.562 303.615 451.711 306.125 449.567 307.562Z" fill="#F6C5B4"/>
<path d="M450.632 305.496C449.468 305.755 448.297 306.596 447.25 307.166C446.423 307.614 444.789 308.255 444.206 309.028C442.759 310.949 446.16 309.744 446.964 309.352C448.408 308.645 449.375 308.972 450.949 308.789C452.129 308.651 453.653 308.265 454.116 307.071C454.62 305.762 453.753 304.979 452.499 304.763L450.632 305.496Z" fill="#F6C5B4"/>
<path d="M449.36 309.158C450.757 309.466 452.208 309.473 453.605 309.155C454.746 308.897 456.226 308.455 456.69 307.277C456.843 306.884 456.199 306.714 456.046 307.103C455.856 307.584 455.349 307.859 454.892 308.056C454.349 308.291 453.769 308.458 453.185 308.573C451.981 308.811 450.731 308.789 449.534 308.523C449.12 308.435 448.943 309.067 449.36 309.158Z" fill="#ED6F6A"/>
<path d="M454.046 309.721C453.779 310.301 453.612 310.9 453.542 311.534C453.525 311.705 453.709 311.868 453.876 311.862C454.072 311.852 454.189 311.718 454.209 311.534C454.212 311.495 454.219 311.456 454.222 311.417C454.236 311.318 454.212 311.482 454.226 311.384C454.236 311.315 454.249 311.247 454.262 311.178C454.289 311.044 454.319 310.913 454.356 310.782C454.392 310.651 454.432 310.523 454.479 310.396C454.502 310.33 454.529 310.265 454.556 310.199C454.559 310.196 454.596 310.104 454.569 310.167C454.586 310.131 454.602 310.094 454.619 310.055C454.693 309.898 454.669 309.695 454.499 309.607C454.356 309.528 454.122 309.555 454.046 309.721Z" fill="#ED6F6A"/>
<path d="M492.73 254.767C492.237 256.122 491.703 257.559 491.343 259.3C489.863 266.513 487.245 273.477 485.938 280.745C485.434 283.537 485.524 288.973 483.894 290.766C482.11 292.726 476.264 297.717 470.532 302.273C465.773 306.052 461.095 309.534 458.884 310.729C457.594 309.649 452.882 303.857 452.882 303.857C452.882 303.857 460.541 297.252 461.979 295.547C464.816 292.183 471.889 284.548 471.889 284.548C471.889 284.548 472.649 271.369 474.113 264.85C474.87 261.473 477.568 254.074 479.892 251.822C481.746 250.025 493.264 246.782 493.898 247.568C494.308 250.428 493.574 252.477 492.73 254.767Z" fill="#4294F4"/>
<path d="M492.731 254.768C492.237 256.123 491.704 257.559 491.344 259.3C489.863 266.513 487.245 273.477 485.938 280.746C485.435 283.537 485.525 288.973 483.894 290.766C482.11 292.727 476.264 297.717 470.532 302.273C470.556 302.207 470.579 302.142 470.602 302.08C472.023 298.117 474.35 294.422 476.038 290.55C476.925 288.515 477.658 287.51 477.635 285.498C477.565 279.456 477.321 273.235 478.155 267.249C478.795 262.671 479.326 257.929 481.86 253.894C482.44 252.968 485.145 248.92 486.815 249.627C489.236 246.626 490.767 251.139 491.73 252.739C492.137 253.42 492.477 254.077 492.731 254.768Z" fill="#368CE0"/>
<path d="M485.394 310.893C485.394 310.893 481.726 308.602 481.726 305.002C481.726 301.402 481.726 287.657 481.726 278.167C481.726 268.676 481.083 250.314 487.445 248.137C493.898 245.932 515.739 245.768 515.739 245.768L521.085 248.085L524.743 304.02C524.743 304.02 523.409 305.984 520.741 307.948L485.394 310.893Z" fill="#4294F4"/>
<path d="M518.241 247.568C523.91 248.55 527.578 249.204 528.579 253.459C529.579 257.713 536.248 285.203 536.248 285.203C536.248 285.203 534.581 294.693 530.246 295.021C525.911 295.348 495.232 286.839 495.232 286.839L497.567 279.639L519.909 279.967C519.909 279.967 513.573 258.096 513.573 254.113C513.573 247.568 518.241 247.568 518.241 247.568Z" fill="#55A7F9"/>
<path d="M507.623 246.628C505.723 248.065 502.581 250.778 500.717 251.658C497.246 253.298 495.382 250.997 494.095 247.686C495.108 246.337 495.922 244.475 496.302 242.832C497.003 239.815 497.133 236.29 497.196 232.962C497.213 231.826 497.229 230.71 497.253 229.65C497.279 229.523 497.306 229.401 497.333 229.284C497.846 227.088 498.6 226.718 499.687 226.878C500.11 226.944 500.584 227.088 501.114 227.241C504.499 228.21 505.329 228.865 505.632 232.154C505.853 234.543 505.612 237.092 505.612 239.478C505.616 240.368 505.986 242.4 506.616 244.282C506.903 245.136 507.24 245.958 507.623 246.628Z" fill="#F6C5B4"/>
<path d="M506.623 244.276C505.342 244.171 504.065 243.998 503.001 243.238C500.901 241.746 499.463 239.373 498.5 237.076C497.926 235.705 497.463 234.353 497.186 232.969C496.939 231.761 496.839 230.527 496.929 229.232L497.319 229.29L499.41 229.598C499.297 228.679 499.393 227.752 499.67 226.882C500.094 226.947 500.567 227.091 501.097 227.242C504.482 228.207 505.316 228.858 505.622 232.147C505.846 234.536 505.609 237.086 505.612 239.472C505.616 240.362 505.989 242.394 506.623 244.276Z" fill="#ED6F6A"/>
<path d="M496.865 226.917C494.177 224.453 493.204 229.683 494.064 231.695C495.014 233.924 497.065 234.314 497.895 232.939C498.399 234.314 500.23 237.318 501 238.476C501.814 239.703 502.484 240.787 503.928 241.212C506.069 241.844 508.59 241.51 509.07 240.862C510.39 239.065 512.078 237.933 513.071 235.953C514.705 232.694 514.405 220.245 514.405 220.245C514.405 220.245 506.649 219.168 504.228 219.289C502.491 219.374 500.233 219.371 498.589 220.117C496.795 220.929 497.239 221.099 497.239 223.34C497.239 224.489 497.322 225.677 496.865 226.917Z" fill="#F6C5B4"/>
<path d="M494.065 218.278C490.653 216.678 491.063 226.132 493.731 229.078C494.065 228.096 494.732 225.805 496.279 226.944C496.399 227.621 496.452 228.204 496.522 228.898C498.58 229.807 498.57 227.5 499.393 226.391C500.764 224.542 502.064 223.599 500.844 221.2C502.898 220.225 505.939 221.138 508.173 221.03C510.568 220.916 512.838 221.485 515.199 221.07C518.074 220.566 520.968 214.403 517.554 211.628C517.284 214.973 514.723 212.888 512.405 212.06C508.387 210.62 497.066 211.078 494.732 212.715C493.234 213.765 493.064 215.66 494.065 218.278Z" fill="#282626"/>
<path d="M499.43 285.668C497.583 286.95 494.321 286.411 492.777 284.876C491.777 283.884 492.077 282.654 490.84 282.228C489.976 281.93 488.412 282.228 487.775 282.892C488.186 283.141 488.749 283.321 489.046 283.776C488.239 285.052 486.585 284.81 485.745 283.665C484.914 282.533 485.365 280.818 485.528 279.525C485.651 278.54 485.855 277.473 486.532 276.743C487.115 276.118 489.169 274.58 490.043 274.564C490.983 274.544 493.791 275.503 494.575 275.912C499.133 278.298 497.803 280.409 498.219 281.577C498.376 282.015 498.276 281.806 498.523 282.173C498.74 282.493 498.51 282.13 498.826 282.281C499.637 282.667 499.757 282.487 499.78 283.652C499.793 284.542 499.493 285.651 499.43 285.668Z" fill="#F6C5B4"/>
<path d="M521.741 430.343V436.234L543.083 436.561C543.083 436.561 542.583 433.125 531.745 432.634L529.744 429.034L521.741 430.343Z" fill="#663E34"/>
<path d="M490.229 429.525L490.723 436.397L474.557 436.07C474.557 436.07 476.557 432.797 482.226 431.816L483.894 429.198L490.229 429.525Z" fill="#663E34"/>
<path d="M657.368 224.905C654.343 229.133 651.018 233.152 647.434 236.932C643.859 240.702 640.024 244.236 635.973 247.506C631.908 250.788 627.616 253.799 623.144 256.525C618.686 259.241 614.044 261.67 609.259 263.78C604.481 265.891 599.555 267.681 594.527 269.131C593.893 269.314 593.26 269.491 592.626 269.661C592.213 269.772 592.389 270.404 592.803 270.293C597.891 268.915 602.877 267.194 607.725 265.152C612.587 263.103 617.309 260.734 621.847 258.066C626.392 255.396 630.757 252.424 634.906 249.188C639.047 245.954 642.972 242.453 646.637 238.709C650.292 234.975 653.69 230.999 656.794 226.813C657.181 226.289 657.564 225.762 657.944 225.236C658.191 224.889 657.611 224.561 657.368 224.905Z" fill="#BFBFBF"/>
<path d="M654.11 228.989C653.733 231.49 654.096 233.98 654.53 236.448C654.977 238.984 655.403 241.52 655.777 244.066C656.517 249.136 657.077 254.228 657.458 259.333C657.674 262.223 657.831 265.116 657.934 268.009C657.948 268.428 658.615 268.431 658.601 268.009C658.241 257.847 657.181 247.712 655.423 237.691C654.93 234.883 654.32 232.017 654.75 229.16C654.817 228.751 654.173 228.574 654.11 228.989Z" fill="#BFBFBF"/>
<path d="M647.757 239.629C649.524 247.568 651.668 255.425 654.186 263.165C654.906 265.377 655.653 267.58 656.433 269.773C656.573 270.169 657.217 269.998 657.077 269.599C654.353 261.925 651.992 254.129 650.008 246.239C649.441 243.984 648.907 241.723 648.4 239.455C648.307 239.043 647.667 239.219 647.757 239.629Z" fill="#BFBFBF"/>
<path d="M642.741 244.017C644.699 250.481 647.296 256.758 650.488 262.73C651.388 264.415 652.338 266.078 653.335 267.714C653.555 268.074 654.132 267.747 653.912 267.384C650.421 261.64 647.493 255.57 645.195 249.273C644.542 247.48 643.938 245.67 643.385 243.844C643.261 243.441 642.618 243.615 642.741 244.017Z" fill="#BFBFBF"/>
<path d="M637.743 247.519C637.16 247.686 637.133 248.324 637.3 248.808C637.553 249.541 637.907 250.258 638.227 250.965C638.904 252.464 639.644 253.933 640.438 255.373C642.032 258.253 643.852 261.012 645.883 263.614C647.02 265.07 648.217 266.474 649.478 267.829C649.768 268.14 650.238 267.675 649.948 267.367C645.836 262.949 642.382 257.955 639.717 252.575C639.347 251.829 638.994 251.073 638.654 250.31C638.57 250.121 637.65 248.229 637.917 248.151C638.333 248.033 638.157 247.401 637.743 247.519Z" fill="#BFBFBF"/>
<path d="M628.646 255.399C632.251 259.673 636.996 262.864 641.648 265.94C642.938 266.794 644.299 267.593 645.853 267.861C646.273 267.933 646.453 267.302 646.029 267.23C644.649 266.991 643.438 266.323 642.285 265.574C641.134 264.828 640.004 264.052 638.873 263.273C636.616 261.722 634.398 260.102 632.364 258.273C631.207 257.232 630.117 256.122 629.116 254.938C628.843 254.614 628.373 255.078 628.646 255.399Z" fill="#BFBFBF"/>
<path d="M621.624 259.277C625.435 263.204 630.407 266.006 635.772 267.289C637.279 267.649 638.817 267.884 640.364 268.002C640.791 268.035 640.791 267.38 640.364 267.348C635.012 266.942 629.823 264.988 625.532 261.83C624.301 260.923 623.154 259.912 622.09 258.819C621.8 258.508 621.327 258.973 621.624 259.277Z" fill="#BFBFBF"/>
<path d="M611.149 263.666C616.501 265.97 622.097 267.724 627.829 268.856C629.456 269.18 631.097 269.452 632.741 269.674C633.161 269.733 633.341 269.102 632.918 269.043C627.182 268.261 621.537 266.88 616.101 264.923C614.544 264.363 613.007 263.754 611.486 263.1C611.096 262.933 610.756 263.496 611.149 263.666Z" fill="#BFBFBF"/>
<path d="M653.489 236.242C648.99 241.137 644.139 245.712 638.977 249.924C633.798 254.149 628.309 258.004 622.567 261.457C619.346 263.391 616.048 265.198 612.68 266.87C612.296 267.06 612.633 267.626 613.017 267.436C619.029 264.448 624.821 261.038 630.333 257.232C635.849 253.426 641.091 249.234 645.996 244.698C648.76 242.139 651.418 239.472 653.962 236.703C654.249 236.392 653.779 235.927 653.489 236.242Z" fill="#BFBFBF"/>
<path d="M654.213 242.977C649.664 247.424 644.799 251.564 639.654 255.337C634.565 259.075 629.213 262.462 623.648 265.469C620.483 267.178 617.252 268.761 613.96 270.221C613.57 270.395 613.907 270.957 614.297 270.787C620.156 268.192 625.825 265.191 631.254 261.814C636.666 258.446 641.834 254.709 646.716 250.638C649.467 248.344 652.125 245.938 654.683 243.438C654.99 243.14 654.516 242.679 654.213 242.977Z" fill="#BFBFBF"/>
<path d="M656.111 247.565C652.92 251.299 649.375 254.738 645.533 257.831C641.679 260.93 637.524 263.673 633.152 266.016C630.664 267.348 628.103 268.552 625.482 269.612C625.092 269.769 625.262 270.404 625.659 270.244C630.298 268.362 634.756 266.065 638.958 263.368C643.176 260.662 647.141 257.569 650.772 254.139C652.819 252.205 654.76 250.163 656.584 248.029C656.854 247.709 656.384 247.241 656.111 247.565Z" fill="#BFBFBF"/>
<path d="M656.624 254.107C652.209 258.855 646.967 262.838 641.174 265.842C639.51 266.706 637.803 267.488 636.059 268.182C635.666 268.339 635.839 268.971 636.236 268.814C642.405 266.353 648.124 262.854 653.079 258.485C654.483 257.248 655.823 255.939 657.097 254.571C657.384 254.26 656.914 253.796 656.624 254.107Z" fill="#BFBFBF"/>
<path d="M656.346 260.825C652.955 263.067 649.437 265.116 645.806 266.965C645.425 267.158 645.762 267.724 646.142 267.531C649.77 265.682 653.292 263.633 656.683 261.391C657.037 261.156 656.703 260.59 656.346 260.825Z" fill="#BFBFBF"/>
<path d="M436.173 422.937H396.895C393.93 422.937 391.522 420.577 391.522 417.665V354.978C391.522 352.065 393.927 349.706 396.895 349.706H436.173C439.137 349.706 441.545 352.065 441.545 354.978V417.665C441.545 420.577 439.141 422.937 436.173 422.937Z" fill="#DB9B6C"/>
<path d="M437.37 374.751H397.701C396.684 374.751 395.86 373.943 395.86 372.945V356.719C395.86 355.721 396.684 354.913 397.701 354.913H437.37C438.387 354.913 439.21 355.721 439.21 356.719V372.945C439.21 373.939 438.387 374.751 437.37 374.751Z" fill="#F1BF95"/>
<path d="M439.377 380.115V415.773C439.377 416.771 438.554 417.58 437.537 417.58H397.868C396.851 417.58 396.027 416.771 396.027 415.773V380.115C396.027 379.117 396.851 378.308 397.868 378.308H437.537C438.554 378.308 439.377 379.117 439.377 380.115Z" fill="#F1BF95"/>
<path d="M417.702 368.164C419.36 368.164 420.703 366.845 420.703 365.218C420.703 363.592 419.36 362.273 417.702 362.273C416.045 362.273 414.701 363.592 414.701 365.218C414.701 366.845 416.045 368.164 417.702 368.164Z" fill="#784237"/>
<path d="M361.34 321.205C361.473 319.955 361.823 318.688 362.36 317.497C362.897 316.306 363.627 315.2 364.534 314.293C367.519 311.04 372.571 311.04 376.246 313.295C379.003 315.098 380.38 318.256 380.22 321.336C380.22 322.668 379.977 324.006 379.46 325.243C379.46 325.243 379.69 325.243 379.74 325.342" stroke="#216630" stroke-width="5" stroke-miterlimit="10"/>
<path d="M380.999 325.397C380.818 320.099 385.217 315.56 389.909 313.655C395.101 311.547 399.976 313.573 403.22 317.847" stroke="#216630" stroke-width="5" stroke-miterlimit="10"/>
<path d="M360.057 319.945C359.01 318.786 356.229 317.409 355.252 319.254C354.315 321.028 356.505 322.259 357.979 322.632C356.605 322.844 354.835 324.278 354.761 325.711C354.641 328.08 358.78 326.971 359.466 325.59C358.973 327.027 358.7 330.191 360.954 330.296C363.181 330.397 365.219 327.086 363.141 325.59C363.401 326.827 366.352 327.138 367.133 326.382C369.033 324.543 365.672 322.448 363.928 322.717C365.522 322.51 368.373 319.336 366.779 317.998C365.355 316.803 363.025 318.528 362.354 319.834C363.311 318.747 362.898 315.343 360.944 315.811C359.613 316.126 358.446 318.551 360.057 319.945Z" fill="#DBC949"/>
<path d="M404.39 315.435C403.343 314.277 400.562 312.899 399.585 314.745C398.648 316.518 400.838 317.749 402.312 318.122C400.938 318.335 399.168 319.768 399.094 321.202C398.974 323.571 403.113 322.461 403.8 321.08C403.306 322.517 403.033 325.682 405.287 325.786C407.514 325.888 409.552 322.576 407.474 321.08C407.734 322.317 410.685 322.628 411.466 321.872C413.367 320.033 410.005 317.939 408.261 318.207C409.855 318.001 412.706 314.827 411.112 313.488C409.688 312.294 407.358 314.018 406.687 315.324C407.644 314.237 407.231 310.834 405.277 311.302C403.95 311.616 402.779 314.044 404.39 315.435Z" fill="#DBC949"/>
<path d="M405.764 320.168C406.651 320.168 407.371 319.461 407.371 318.59C407.371 317.719 406.651 317.013 405.764 317.013C404.876 317.013 404.156 317.719 404.156 318.59C404.156 319.461 404.876 320.168 405.764 320.168Z" fill="#D18F37"/>
<path d="M361.2 324.677C362.088 324.677 362.807 323.971 362.807 323.1C362.807 322.228 362.088 321.522 361.2 321.522C360.312 321.522 359.593 322.228 359.593 323.1C359.593 323.971 360.312 324.677 361.2 324.677Z" fill="#D18F37"/>
<path d="M392.709 349.51H372.668L368.35 323.983H397.027L392.709 349.51Z" fill="#50A3A2"/>
<path d="M223.114 357.145C219.266 357.6 214.937 358.365 211.399 359.979C209.329 360.921 207.248 362.233 206.044 364.197C204.59 366.566 204.16 370.071 203.793 372.775C203.156 377.481 203.223 382.177 206.388 385.95C209.339 389.471 214.651 391.01 215.184 396.184C215.424 398.497 214.214 400.101 213.684 402.228C213.417 403.301 213.08 404.813 214.437 405.229C217.895 406.286 218.876 399.548 219.156 397.584C219.636 394.213 218.996 390.754 216.138 388.614C214.241 387.194 212.033 386.284 210.836 384.183C209.822 382.409 209.302 380.259 209.395 378.233C211.553 378.112 213.934 377.965 216.078 378.093H267.217C267.214 378.534 267.724 374.758 264.146 373.887C262.389 373.462 256.477 372.905 254.476 372.905C254.366 371.413 254.116 368.844 254.199 367.345C254.336 364.878 253.576 361.952 252.115 359.861C250.775 357.937 247.32 357.524 245.109 357.384C242.975 357.249 240.957 358.002 238.85 358.051C237.459 358.084 236.519 357.469 235.242 357.089C233.375 356.536 231.304 356.883 229.383 356.906C227.292 356.935 225.198 356.899 223.114 357.145Z" fill="#230E13"/>
<path d="M237.014 353.764C236.33 355.623 236 357.727 236.703 359.622C238.097 363.369 242.752 365.948 246.58 366.419C251.402 367.012 257.555 366.292 260.673 362.181C262.59 359.651 261.653 352.776 259.142 350.655C259.142 350.655 259.752 346.872 259.809 345.419C257.655 345.196 255.247 347.785 253.75 348.574C253.123 348.904 252.223 348.548 251.459 348.472C249.865 348.312 248.238 348.384 246.631 348.384C245.11 348.384 244.563 348.377 243.469 347.491C241.752 346.1 240.201 344.113 237.8 344.434C237.861 345.403 238.788 348.672 239.134 349.67C238.467 350.655 237.47 352.524 237.014 353.764Z" fill="#230E13"/>
<path d="M250.475 358.974C250.402 358.954 250.325 358.928 250.255 358.899C250.312 358.922 250.232 358.889 250.215 358.879C250.175 358.86 250.139 358.84 250.099 358.817C250.035 358.781 249.975 358.738 249.915 358.699C249.872 358.67 249.952 358.732 249.912 358.699C249.902 358.689 249.888 358.68 249.878 358.673C249.845 358.647 249.812 358.617 249.782 358.588C249.728 358.539 249.682 358.486 249.632 358.431C249.592 358.385 249.622 358.418 249.628 358.431C249.618 358.414 249.605 358.401 249.595 358.385C249.585 358.372 249.575 358.342 249.565 358.333C249.622 358.385 249.565 358.467 249.532 358.509C249.482 358.575 249.478 358.585 249.508 358.555C249.482 358.581 249.472 358.568 249.502 358.558C249.545 358.545 249.588 358.532 249.632 358.519C249.718 358.493 249.808 358.473 249.898 358.454C249.989 358.434 250.079 358.418 250.169 358.408C250.119 358.414 250.219 358.401 250.232 358.401C250.282 358.395 250.335 358.392 250.385 358.388C250.562 358.378 250.739 358.398 250.916 358.392C250.966 358.388 250.869 358.378 250.916 358.392C250.932 358.395 250.979 358.392 250.949 358.395C250.946 358.392 250.942 358.392 250.936 358.388C250.959 358.405 250.959 358.401 250.936 358.385C250.912 358.352 250.926 358.375 250.932 358.385C250.876 358.32 250.906 358.346 250.916 358.365C250.942 358.418 250.906 358.339 250.906 358.339C250.906 358.342 250.919 358.378 250.916 358.375C250.906 358.369 250.906 358.29 250.909 358.359C250.912 358.434 250.926 358.31 250.912 358.365C250.909 358.375 250.899 358.447 250.889 358.45C250.886 358.45 250.929 358.375 250.896 358.434C250.889 358.447 250.882 358.46 250.875 358.473C250.869 358.483 250.862 358.493 250.859 358.503C250.826 358.562 250.866 358.506 250.862 358.5C250.866 358.513 250.799 358.558 250.789 358.568C250.755 358.601 250.832 358.539 250.792 358.565C250.772 358.578 250.755 358.591 250.735 358.604C250.669 358.65 250.599 358.689 250.532 358.735C250.365 358.843 250.215 358.968 250.109 359.134C250.019 359.282 250.072 359.501 250.229 359.583C250.392 359.668 250.589 359.622 250.685 359.465C250.695 359.452 250.745 359.39 250.695 359.449C250.705 359.436 250.719 359.422 250.729 359.409C250.745 359.393 250.846 359.314 250.779 359.36C250.852 359.308 250.929 359.262 251.002 359.213C251.172 359.108 251.326 358.994 251.436 358.824C251.672 358.454 251.609 357.91 251.132 357.77C250.916 357.708 250.655 357.721 250.432 357.731C250.192 357.744 249.952 357.773 249.715 357.822C249.495 357.868 249.208 357.917 249.045 358.077C248.925 358.195 248.885 358.372 248.928 358.532C248.965 358.663 249.048 358.768 249.135 358.873C249.428 359.229 249.842 359.485 250.289 359.609C250.455 359.655 250.659 359.553 250.699 359.38C250.745 359.203 250.652 359.026 250.475 358.974Z" fill="white"/>
<path d="M250.248 359.22C249.404 360.571 247.497 360.902 246.253 359.874C245.926 359.606 245.453 360.064 245.783 360.336C246.56 360.977 247.57 361.262 248.571 361.088C249.504 360.928 250.335 360.339 250.825 359.55C251.048 359.19 250.471 358.86 250.248 359.22Z" fill="white"/>
<path d="M250.539 359.504C250.839 359.966 251.199 360.388 251.629 360.738C251.839 360.912 252.056 361.075 252.316 361.173C252.599 361.281 252.906 361.285 253.206 361.246C254.157 361.121 255.124 360.663 255.477 359.733C255.627 359.337 254.984 359.167 254.833 359.56C254.583 360.218 253.77 360.519 253.12 360.601C252.903 360.627 252.679 360.627 252.479 360.529C252.289 360.437 252.126 360.296 251.969 360.159C251.639 359.868 251.359 359.54 251.119 359.174C250.885 358.817 250.308 359.148 250.539 359.504Z" fill="white"/>
<path d="M249.865 362.76C250.516 363.169 251.419 363.068 251.976 362.548C252.103 362.43 252.106 362.201 251.976 362.086C251.84 361.965 251.639 361.959 251.506 362.086C251.479 362.112 251.453 362.135 251.423 362.158C251.389 362.188 251.469 362.125 251.433 362.152C251.416 362.161 251.399 362.175 251.383 362.184C251.326 362.22 251.263 362.25 251.203 362.279C251.166 362.296 251.263 362.256 251.203 362.279C251.186 362.286 251.173 362.289 251.156 362.296C251.123 362.309 251.086 362.319 251.053 362.325C251.016 362.335 250.983 362.341 250.946 362.348C250.933 362.351 250.912 362.351 250.899 362.355C250.929 362.341 250.956 362.348 250.902 362.351C250.832 362.358 250.766 362.358 250.696 362.355C250.676 362.355 250.656 362.351 250.636 362.351C250.626 362.351 250.572 362.341 250.619 362.351C250.669 362.361 250.612 362.348 250.602 362.348C250.582 362.345 250.562 362.341 250.542 362.335C250.476 362.319 250.412 362.299 250.346 362.276C250.306 362.263 250.402 362.305 250.349 362.276C250.336 362.269 250.319 362.263 250.306 362.256C250.269 362.237 250.236 362.217 250.202 362.198C250.055 362.106 249.829 362.161 249.745 362.315C249.659 362.476 249.709 362.662 249.865 362.76Z" fill="white"/>
<path d="M244.363 353.201C243.833 353.25 243.362 353.571 243.146 354.052C242.922 354.556 243.022 355.099 243.386 355.512C243.733 355.904 244.323 356.104 244.836 355.94C245.417 355.754 245.677 355.181 245.737 354.625C245.77 354.311 245.703 353.993 245.493 353.748C245.293 353.512 244.986 353.407 244.7 353.322C244.533 353.273 244.329 353.381 244.289 353.551C244.249 353.728 244.343 353.902 244.523 353.954C244.613 353.98 244.703 354.006 244.786 354.039C244.836 354.059 244.746 354.019 244.796 354.046C244.816 354.055 244.836 354.065 244.853 354.075C244.873 354.085 244.89 354.095 244.91 354.108C244.923 354.118 244.936 354.124 244.95 354.134C244.93 354.118 244.926 354.118 244.943 354.131C244.96 354.144 244.973 354.16 244.99 354.173C245.026 354.209 244.97 354.137 245 354.183C245.013 354.199 245.023 354.219 245.033 354.239C245.06 354.288 245.016 354.17 245.043 354.262C245.056 354.301 245.066 354.343 245.076 354.386C245.073 354.37 245.073 354.33 245.076 354.396C245.076 354.422 245.08 354.451 245.08 354.478C245.08 354.527 245.076 354.576 245.07 354.625C245.076 354.566 245.056 354.69 245.053 354.7C245.033 354.795 245.006 354.89 244.97 354.981C244.99 354.932 244.94 355.04 244.933 355.05C244.913 355.086 244.89 355.126 244.866 355.158C244.896 355.119 244.866 355.162 244.86 355.168C244.846 355.184 244.83 355.201 244.816 355.214C244.8 355.227 244.786 355.243 244.77 355.256C244.816 355.22 244.74 355.273 244.73 355.279C244.71 355.289 244.686 355.302 244.666 355.312C244.706 355.296 244.65 355.315 244.646 355.315C244.636 355.319 244.513 355.345 244.56 355.338C244.51 355.345 244.459 355.345 244.409 355.342C244.399 355.342 244.336 355.335 244.379 355.342C244.423 355.345 244.343 355.335 244.333 355.332C244.289 355.322 244.246 355.309 244.203 355.296C244.153 355.279 244.246 355.315 244.196 355.296C244.176 355.286 244.159 355.279 244.143 355.27C244.103 355.25 244.063 355.224 244.026 355.201C244.016 355.194 243.976 355.165 244.019 355.197C243.999 355.181 243.979 355.165 243.963 355.148C243.933 355.122 243.903 355.093 243.876 355.063C243.866 355.053 243.826 355.001 243.859 355.047C243.846 355.031 243.836 355.014 243.823 354.998C243.799 354.965 243.779 354.929 243.759 354.893C243.749 354.877 243.743 354.857 243.733 354.841C243.756 354.893 243.729 354.824 243.723 354.808C243.709 354.769 243.703 354.73 243.693 354.694C243.689 354.68 243.689 354.631 243.693 354.69C243.693 354.671 243.689 354.651 243.689 354.631C243.689 354.592 243.693 354.553 243.696 354.51C243.693 354.572 243.696 354.523 243.699 354.51C243.706 354.481 243.713 354.451 243.719 354.422C243.726 354.402 243.733 354.383 243.739 354.366C243.766 354.281 243.709 354.412 243.753 354.334C243.773 354.294 243.796 354.255 243.819 354.216C243.829 354.199 243.843 354.183 243.853 354.167C243.866 354.147 243.866 354.15 243.846 354.173C243.856 354.16 243.866 354.15 243.876 354.137C243.906 354.104 243.939 354.072 243.973 354.039C243.989 354.026 244.003 354.013 244.019 354C243.969 354.039 244.039 353.987 244.049 353.98C244.093 353.954 244.136 353.931 244.183 353.908C244.169 353.915 244.126 353.928 244.186 353.905C244.216 353.895 244.243 353.885 244.273 353.879C244.293 353.872 244.313 353.869 244.333 353.866C244.403 353.849 244.286 353.869 244.366 353.859C244.54 353.843 244.71 353.718 244.7 353.532C244.69 353.365 244.55 353.185 244.363 353.201Z" fill="white"/>
<path d="M255.6 353.41C255.103 353.368 254.669 353.748 254.479 354.167C254.256 354.661 254.269 355.233 254.679 355.633C255.043 355.986 255.573 356.081 256.04 355.885C256.48 355.698 256.77 355.266 256.81 354.801C256.854 354.274 256.507 353.725 256.02 353.505C255.863 353.433 255.653 353.456 255.563 353.623C255.486 353.767 255.513 353.993 255.683 354.072C255.716 354.088 255.753 354.104 255.783 354.124C255.803 354.137 255.823 354.15 255.843 354.163C255.887 354.186 255.806 354.131 255.843 354.163C255.873 354.189 255.9 354.212 255.927 354.239C255.94 354.252 255.953 354.265 255.967 354.278C255.977 354.288 255.987 354.297 255.993 354.31C255.973 354.284 255.97 354.281 255.983 354.301C256.003 354.333 256.027 354.363 256.047 354.396C256.057 354.412 256.067 354.428 256.073 354.445C256.08 354.461 256.107 354.517 256.08 354.455C256.093 354.491 256.107 354.523 256.117 354.559C256.123 354.576 256.127 354.595 256.13 354.615C256.133 354.625 256.143 354.7 256.137 354.654C256.13 354.602 256.137 354.693 256.137 354.693C256.137 354.713 256.137 354.729 256.137 354.749C256.137 354.769 256.133 354.785 256.133 354.805C256.133 354.824 256.117 354.86 256.133 354.798C256.123 354.834 256.12 354.867 256.107 354.903C256.1 354.919 256.097 354.936 256.09 354.955C256.063 355.034 256.123 354.903 256.08 354.975C256.063 355.008 256.047 355.037 256.027 355.067C256.017 355.083 256.007 355.096 255.997 355.112C256.033 355.06 256.007 355.099 255.997 355.109C255.973 355.135 255.947 355.161 255.92 355.188C255.907 355.201 255.893 355.211 255.88 355.224C255.823 355.273 255.92 355.201 255.86 355.237C255.83 355.256 255.8 355.276 255.766 355.292C255.75 355.299 255.733 355.309 255.716 355.315C255.78 355.286 255.736 355.309 255.72 355.312C255.68 355.322 255.64 355.332 255.603 355.341C255.556 355.355 255.66 355.341 255.61 355.341C255.586 355.341 255.563 355.345 255.543 355.345C255.52 355.345 255.496 355.341 255.476 355.341C255.426 355.341 255.533 355.355 255.483 355.341C255.446 355.332 255.413 355.325 255.376 355.315C255.36 355.309 255.343 355.302 255.326 355.299C255.276 355.283 255.393 355.335 255.32 355.296C255.283 355.276 255.246 355.256 255.213 355.233C255.203 355.227 255.16 355.194 255.193 355.22C255.226 355.247 255.183 355.211 255.173 355.204C255.143 355.178 255.116 355.148 255.086 355.119C255.073 355.106 255.06 355.073 255.09 355.122C255.08 355.106 255.07 355.093 255.06 355.076C255.05 355.06 255.04 355.047 255.033 355.031C255.023 355.014 255 354.942 255.023 355.011C255.013 354.978 255.003 354.942 254.993 354.909C254.99 354.9 254.983 354.854 254.99 354.909C254.986 354.887 254.986 354.86 254.986 354.837C254.986 354.828 254.993 354.703 254.986 354.746C254.993 354.687 255.01 354.628 255.026 354.569C255.033 354.549 255.04 354.53 255.046 354.507C255.05 354.497 255.09 354.419 255.056 354.481C255.076 354.441 255.096 354.402 255.116 354.366C255.126 354.35 255.136 354.333 255.146 354.317C255.153 354.307 255.203 354.242 255.18 354.268C255.153 354.297 255.193 354.252 255.2 354.245C255.216 354.229 255.233 354.209 255.25 354.193C255.263 354.18 255.276 354.167 255.293 354.153C255.346 354.104 255.256 354.173 255.316 354.137C255.333 354.127 255.346 354.117 255.363 354.108C255.376 354.101 255.453 354.068 255.383 354.095C255.426 354.078 255.47 354.065 255.513 354.058C255.496 354.062 255.446 354.058 255.506 354.062C255.533 354.062 255.563 354.062 255.59 354.065C255.763 354.081 255.93 353.905 255.923 353.738C255.923 353.548 255.786 353.427 255.6 353.41Z" fill="white"/>
<path d="M241.355 352.553C241.485 352.416 241.626 352.282 241.772 352.161C241.916 352.043 242.026 351.964 242.209 351.846C242.372 351.745 242.539 351.653 242.716 351.575C242.759 351.555 242.806 351.535 242.853 351.516C242.903 351.493 242.813 351.532 242.863 351.513C242.883 351.506 242.903 351.496 242.923 351.49C243.019 351.454 243.119 351.418 243.219 351.388C243.386 351.336 243.51 351.159 243.453 350.986C243.399 350.822 243.219 350.701 243.043 350.757C242.222 351.012 241.472 351.47 240.885 352.092C240.769 352.216 240.749 352.432 240.885 352.553C241.012 352.668 241.229 352.688 241.355 352.553Z" fill="white"/>
<path d="M255.828 351.104C255.884 351.12 255.941 351.136 255.998 351.156C256.024 351.166 256.054 351.176 256.081 351.185C256.131 351.205 256.088 351.189 256.064 351.179C256.078 351.185 256.088 351.189 256.101 351.195C256.211 351.244 256.318 351.3 256.421 351.365C256.471 351.398 256.518 351.431 256.568 351.464C256.578 351.47 256.615 351.5 256.574 351.467C256.531 351.434 256.578 351.47 256.588 351.477C256.611 351.496 256.635 351.513 256.655 351.532C256.745 351.611 256.831 351.696 256.908 351.788C257.021 351.918 257.265 351.912 257.378 351.788C257.508 351.647 257.498 351.464 257.378 351.326C257.025 350.914 256.534 350.616 256.008 350.472C255.841 350.426 255.637 350.528 255.597 350.701C255.554 350.874 255.647 351.055 255.828 351.104Z" fill="white"/>
<path d="M245.889 369.708C246.296 371.024 246.57 372.369 246.7 373.737C246.716 373.904 246.84 374.074 247.033 374.064C249.421 373.93 251.902 373.956 254.259 374.391C256.18 374.748 258.454 375.802 258.648 377.975C258.684 378.391 259.351 378.394 259.315 377.975C259.115 375.736 257.077 374.378 255.016 373.884C253.783 373.59 252.492 373.485 251.228 373.41C249.831 373.328 248.43 373.331 247.033 373.41C247.143 373.518 247.257 373.629 247.367 373.737C247.233 372.31 246.96 370.903 246.533 369.532C246.406 369.132 245.763 369.303 245.889 369.708Z" fill="white"/>
<path d="M264.807 377.883C264.994 377.013 264.647 376.129 263.933 375.586C263.793 375.481 263.553 375.56 263.476 375.704C263.383 375.877 263.446 376.041 263.596 376.152C263.57 376.132 263.576 376.136 263.596 376.155C263.613 376.172 263.633 376.185 263.65 376.201C263.683 376.231 263.713 376.26 263.743 376.29C263.77 376.316 263.797 376.345 263.82 376.375C263.82 376.375 263.873 376.44 263.847 376.407C263.823 376.378 263.86 376.427 263.863 376.43C263.913 376.499 263.96 376.574 264 376.65C264.02 376.689 264.04 376.725 264.057 376.764C264.07 376.79 264.067 376.794 264.057 376.764C264.067 376.787 264.073 376.81 264.083 376.83C264.11 376.905 264.133 376.983 264.153 377.062C264.163 377.104 264.17 377.147 264.177 377.186C264.187 377.235 264.173 377.134 264.177 377.183C264.18 377.206 264.183 377.229 264.183 377.255C264.19 377.337 264.19 377.415 264.187 377.497C264.183 377.54 264.18 377.582 264.177 377.625C264.183 377.576 264.18 377.605 264.173 377.635C264.17 377.657 264.163 377.68 264.16 377.703C264.123 377.87 264.21 378.067 264.393 378.106C264.563 378.148 264.77 378.063 264.807 377.883Z" fill="white"/>
<path d="M256.57 378.093C256.49 377.432 256.287 376.8 255.94 376.227C255.85 376.08 255.637 376.015 255.483 376.11C255.333 376.205 255.27 376.401 255.363 376.558C255.53 376.836 255.62 377.026 255.713 377.301C255.76 377.435 255.797 377.569 255.83 377.707C255.847 377.775 255.86 377.844 255.873 377.913C255.88 377.952 255.887 377.991 255.893 378.031C255.9 378.07 255.9 378.07 255.893 378.034C255.897 378.053 255.9 378.073 255.9 378.093C255.92 378.263 256.04 378.43 256.233 378.42C256.4 378.414 256.59 378.276 256.57 378.093Z" fill="white"/>
<path d="M254.533 377.863C254.303 377.379 253.89 376.967 253.4 376.731C253.32 376.692 253.233 376.676 253.143 376.698C253.066 376.718 252.983 376.777 252.943 376.849C252.863 376.996 252.896 377.215 253.063 377.297C253.193 377.359 253.316 377.435 253.43 377.52C253.406 377.504 253.383 377.487 253.363 377.467C253.51 377.582 253.643 377.71 253.76 377.857C253.743 377.834 253.726 377.811 253.706 377.791C253.803 377.916 253.887 378.05 253.957 378.194C253.99 378.266 254.083 378.325 254.157 378.345C254.237 378.368 254.343 378.358 254.413 378.312C254.483 378.266 254.547 378.201 254.567 378.115C254.59 378.027 254.574 377.949 254.533 377.863Z" fill="white"/>
<path d="M214.294 369.528C214.241 369.541 214.188 369.558 214.134 369.571C214.231 369.735 214.328 369.898 214.421 370.062C215.251 368.556 216.659 367.463 218.129 366.593C219.696 365.663 221.457 364.979 223.295 364.832C226.689 364.561 230.354 366.269 231.168 369.748C231.644 371.777 230.687 373.694 229.774 375.458C229.674 375.655 229.79 375.982 230.06 375.949C231.714 375.75 233.382 375.651 235.049 375.664C235.773 375.671 236.586 375.622 237.273 375.884C237.95 376.142 238.4 376.78 238.44 377.487C238.464 377.906 239.131 377.909 239.107 377.487C239.067 376.787 238.757 376.123 238.2 375.671C237.577 375.164 236.78 375.059 235.996 375.03C234.015 374.954 232.028 375.059 230.06 375.295C230.157 375.458 230.254 375.622 230.347 375.786C231.234 374.077 232.158 372.238 231.928 370.265C231.731 368.569 230.797 366.986 229.454 365.912C226.322 363.409 221.921 363.847 218.546 365.601C216.695 366.563 214.858 367.889 213.841 369.728C213.724 369.941 213.868 370.225 214.128 370.219C214.318 370.216 214.461 370.176 214.625 370.085C215.005 369.888 214.668 369.322 214.294 369.528Z" fill="white"/>
<path d="M238.15 361.062C240.337 365.163 245.086 367.336 249.694 366.406C250.115 366.321 249.938 365.689 249.518 365.775C245.189 366.648 240.768 364.564 238.727 360.731C238.527 360.358 237.95 360.689 238.15 361.062Z" fill="white"/>
<path d="M401.528 406.126C400.515 406.126 399.694 405.321 399.694 404.326V390.908C399.694 389.913 400.515 389.108 401.528 389.108C402.542 389.108 403.362 389.913 403.362 390.908V404.326C403.362 405.321 402.542 406.126 401.528 406.126Z" fill="#784237"/>
<path d="M385.69 226.786C403.37 226.786 417.702 212.721 417.702 195.369C417.702 178.018 403.37 163.952 385.69 163.952C368.01 163.952 353.678 178.018 353.678 195.369C353.678 212.721 368.01 226.786 385.69 226.786Z" fill="#67A9DB"/>
<path d="M385.689 222.532C400.975 222.532 413.366 210.371 413.366 195.369C413.366 180.368 400.975 168.207 385.689 168.207C370.403 168.207 358.012 180.368 358.012 195.369C358.012 210.371 370.403 222.532 385.689 222.532Z" fill="white"/>
<path d="M386.524 193.586V180.97H388.191L385.69 177.37L383.189 180.97H384.857V193.586C384.17 193.897 383.69 194.577 383.69 195.369C383.69 196.453 384.587 197.333 385.69 197.333C386.794 197.333 387.691 196.453 387.691 195.369C387.691 194.577 387.211 193.897 386.524 193.586Z" fill="#050505"/>
<path d="M385.689 168.207V175.079" stroke="#67A9DB" stroke-width="6" stroke-miterlimit="10"/>
<path d="M385.856 215.987V222.859" stroke="#67A9DB" stroke-width="6" stroke-miterlimit="10"/>
<path d="M357.93 195.615H364.932" stroke="#67A9DB" stroke-width="6" stroke-miterlimit="10"/>
<path d="M406.615 195.451H413.618" stroke="#67A9DB" stroke-width="6" stroke-miterlimit="10"/>
<path d="M405.52 214.799L403.029 212.387" stroke="#67A9DB" stroke-width="4" stroke-miterlimit="10"/>
<path d="M368.35 178.679L366.025 176.267" stroke="#67A9DB" stroke-width="4" stroke-miterlimit="10"/>
<path d="M366.142 214.913L368.683 212.387" stroke="#67A9DB" stroke-width="4" stroke-miterlimit="10"/>
<path d="M403.029 178.679L405.403 176.153" stroke="#67A9DB" stroke-width="4" stroke-miterlimit="10"/>
<path d="M506.183 231.98C505.933 232.334 505.889 232.818 506.103 233.201C506.376 233.692 506.81 233.64 507.303 233.63C507.893 233.62 508.484 233.692 509.054 233.843C509.554 233.977 509.981 234.101 510.408 233.715C511.171 233.024 511.041 231.833 510.888 230.933C510.701 229.84 510.361 228.77 510.414 227.647C510.434 227.225 509.767 227.229 509.747 227.647C509.707 228.488 509.877 229.313 510.051 230.128C510.218 230.904 510.464 231.771 510.294 232.563C510.228 232.874 510.048 233.361 509.654 233.329C509.444 233.309 509.217 233.201 509.007 233.155C508.79 233.106 508.57 233.067 508.347 233.037C507.923 232.982 507.5 232.962 507.073 232.982C506.863 232.992 506.72 233.021 506.653 232.789C506.603 232.612 506.66 232.455 506.763 232.311C507.003 231.964 506.426 231.637 506.183 231.98Z" fill="#ED6F6A"/>
<path d="M504.215 236.313C505.516 236.006 506.893 235.688 508.21 236.084C508.62 236.208 508.797 235.577 508.387 235.453C506.953 235.024 505.452 235.348 504.035 235.682C503.622 235.783 503.798 236.415 504.215 236.313Z" fill="#ED6F6A"/>
<path d="M504.629 226.623C504.519 226.839 504.456 227.075 504.462 227.317C504.469 227.562 504.549 227.827 504.776 227.962C504.926 228.053 505.106 228.05 505.263 227.975C505.383 227.916 505.469 227.798 505.529 227.683C505.643 227.471 505.703 227.235 505.71 226.996C505.71 226.944 505.71 226.891 505.703 226.836C505.69 226.725 505.683 226.613 505.613 226.522C505.533 226.42 505.399 226.371 505.273 226.374C505.146 226.378 505.046 226.427 504.949 226.505C504.886 226.554 504.853 226.662 504.853 226.738C504.853 226.82 504.889 226.914 504.949 226.97C505.013 227.029 505.096 227.068 505.186 227.065C505.279 227.062 505.349 227.026 505.423 226.97C505.426 226.967 505.429 226.963 505.433 226.96C505.409 226.977 505.389 226.993 505.366 227.013C505.373 227.006 505.383 227.003 505.389 226.999C505.363 227.009 505.336 227.022 505.309 227.032C505.323 227.026 505.336 227.022 505.349 227.022C505.319 227.026 505.289 227.029 505.259 227.035C505.273 227.035 505.286 227.035 505.299 227.035C505.269 227.032 505.239 227.029 505.209 227.022C505.223 227.026 505.236 227.029 505.249 227.032C505.223 227.022 505.196 227.009 505.169 226.999C505.173 227.003 505.176 227.003 505.183 227.006C505.133 226.941 505.079 226.875 505.029 226.81C505.036 226.836 505.039 226.865 505.043 226.892C505.039 226.862 505.036 226.833 505.029 226.803C505.043 226.908 505.043 227.016 505.029 227.121C505.033 227.091 505.036 227.062 505.043 227.032C505.026 227.143 504.996 227.251 504.953 227.353C504.963 227.327 504.976 227.301 504.986 227.274C504.956 227.337 504.926 227.402 504.883 227.458C504.899 227.435 504.916 227.412 504.936 227.392C504.923 227.409 504.909 227.422 504.893 227.435C504.916 227.418 504.936 227.402 504.959 227.382C504.946 227.392 504.936 227.399 504.923 227.405C504.949 227.395 504.976 227.382 505.003 227.373C504.989 227.379 504.976 227.382 504.963 227.386C504.993 227.382 505.023 227.379 505.053 227.373C505.036 227.376 505.023 227.376 505.006 227.373C505.036 227.376 505.066 227.379 505.096 227.386C505.086 227.382 505.076 227.379 505.063 227.376C505.089 227.386 505.116 227.399 505.143 227.409C505.129 227.402 505.116 227.395 505.103 227.386C505.126 227.402 505.146 227.418 505.169 227.438C505.149 227.422 505.133 227.405 505.119 227.386C505.136 227.409 505.153 227.428 505.173 227.451C505.156 227.425 505.139 227.402 505.126 227.373C505.136 227.399 505.149 227.425 505.159 227.451C505.143 227.412 505.129 227.369 505.126 227.327C505.129 227.356 505.133 227.386 505.139 227.415C505.129 227.323 505.129 227.232 505.139 227.14C505.136 227.17 505.133 227.199 505.126 227.229C505.139 227.127 505.169 227.026 505.209 226.931C505.199 226.957 505.186 226.983 505.176 227.009C505.186 226.99 505.196 226.967 505.206 226.947C505.246 226.869 505.263 226.783 505.239 226.695C505.219 226.62 505.159 226.538 505.086 226.499C504.936 226.43 504.712 226.46 504.629 226.623Z" fill="#282626"/>
<path d="M512.238 227.012C512.181 227.189 512.121 227.369 512.065 227.546C511.995 227.765 511.908 228.014 512.055 228.223C512.148 228.357 512.291 228.446 512.461 228.449C512.635 228.452 512.775 228.338 512.865 228.204C512.962 228.056 513.028 227.883 513.055 227.71C513.088 227.49 513.085 227.268 513.012 227.052C512.958 226.888 512.778 226.767 512.602 226.823C512.435 226.875 512.311 227.052 512.368 227.225C512.388 227.287 512.405 227.353 512.415 227.418C512.411 227.389 512.408 227.359 512.401 227.33C512.411 227.425 512.411 227.516 512.401 227.611C512.405 227.582 512.408 227.552 512.415 227.523C512.401 227.618 512.375 227.706 512.338 227.795C512.348 227.768 512.361 227.742 512.371 227.716C512.345 227.782 512.311 227.844 512.268 227.899C512.285 227.876 512.301 227.853 512.321 227.834C512.311 227.847 512.301 227.857 512.288 227.867C512.311 227.85 512.331 227.834 512.355 227.814C512.348 227.821 512.338 227.824 512.328 227.827C512.355 227.817 512.381 227.804 512.408 227.795C512.398 227.798 512.391 227.801 512.381 227.801C512.411 227.798 512.441 227.795 512.471 227.788C512.461 227.788 512.455 227.788 512.445 227.788C512.475 227.791 512.505 227.795 512.535 227.801C512.525 227.801 512.518 227.798 512.508 227.795C512.535 227.804 512.562 227.817 512.588 227.827C512.575 227.821 512.565 227.814 512.552 227.808C512.575 227.824 512.595 227.84 512.618 227.86C512.608 227.85 512.598 227.84 512.588 227.831C512.605 227.853 512.622 227.876 512.642 227.896C512.632 227.883 512.625 227.873 512.618 227.86C512.628 227.886 512.642 227.912 512.652 227.939C512.642 227.919 512.638 227.899 512.635 227.876C512.638 227.906 512.642 227.935 512.648 227.965C512.648 227.942 512.648 227.916 512.652 227.893C512.648 227.922 512.645 227.952 512.638 227.981C512.662 227.847 512.715 227.716 512.758 227.588C512.802 227.454 512.845 227.32 512.888 227.189C512.942 227.025 512.825 226.826 512.655 226.787C512.465 226.741 512.295 226.836 512.238 227.012Z" fill="#282626"/>
<path d="M503.258 224.234C504.395 224.142 505.496 223.848 506.526 223.364C506.69 223.288 506.733 223.059 506.646 222.915C506.55 222.752 506.353 222.722 506.189 222.797C505.272 223.229 504.272 223.498 503.258 223.579C503.078 223.593 502.925 223.72 502.925 223.907C502.925 224.07 503.078 224.247 503.258 224.234Z" fill="#282626"/>
<path d="M511.841 223.583C512.114 224.329 512.701 224.908 513.458 225.187C513.622 225.245 513.832 225.121 513.869 224.957C513.912 224.771 513.812 224.62 513.635 224.555C513.615 224.548 513.595 224.539 513.575 224.532C513.505 224.506 513.645 224.565 513.578 224.532C513.542 224.516 513.502 224.496 513.465 224.48C513.398 224.444 513.332 224.408 513.265 224.365C513.228 224.342 513.195 224.319 513.162 224.296C513.145 224.286 513.092 224.237 513.162 224.3C513.145 224.286 513.128 224.273 513.112 224.26C513.048 224.211 512.992 224.156 512.935 224.1C512.878 224.044 512.825 223.985 512.775 223.923C512.735 223.874 512.818 223.979 512.775 223.923C512.761 223.907 512.751 223.891 512.738 223.874C512.715 223.845 512.695 223.812 512.675 223.779C512.631 223.714 512.591 223.645 512.555 223.573C512.541 223.544 512.525 223.485 512.501 223.462C512.518 223.478 512.528 223.527 512.508 223.475C512.498 223.452 512.491 223.429 512.481 223.406C512.421 223.246 512.251 223.121 512.071 223.177C511.914 223.229 511.778 223.409 511.841 223.583Z" fill="#282626"/>
<path d="M496.209 231.149C496.089 231.015 496.016 230.94 495.929 230.789C495.896 230.727 495.889 230.717 495.866 230.639C495.863 230.619 495.856 230.603 495.853 230.583C495.856 230.619 495.859 230.622 495.856 230.599C495.856 230.567 495.853 230.534 495.856 230.498C495.859 230.416 495.836 230.55 495.863 230.472C495.866 230.462 495.899 230.37 495.883 230.406C495.866 230.442 495.913 230.357 495.919 230.351C495.876 230.41 495.933 230.344 495.943 230.338C495.889 230.383 495.966 230.331 495.983 230.321C496.013 230.308 496.046 230.295 496.076 230.279C496.176 230.22 496.26 230.128 496.293 230.017C496.353 229.817 496.246 229.614 496.153 229.441C496.073 229.297 495.969 229.159 495.843 229.055C495.556 228.822 495.106 228.727 494.789 228.963C494.646 229.068 494.572 229.245 494.669 229.412C494.752 229.549 494.979 229.637 495.126 229.529C495.149 229.51 495.176 229.493 495.206 229.48C495.142 229.506 495.256 229.477 495.186 229.487C495.216 229.483 495.249 229.483 495.279 229.487C495.212 229.48 495.302 229.497 495.316 229.5C495.379 229.516 495.306 229.484 495.356 229.516C495.359 229.516 495.433 229.572 495.396 229.542C495.423 229.565 495.446 229.588 495.469 229.614C495.513 229.66 495.473 229.608 495.503 229.657C495.539 229.716 495.576 229.775 495.606 229.837C495.609 229.844 495.656 229.925 495.649 229.932C495.639 229.919 495.639 229.906 495.643 229.889C495.673 229.83 495.703 229.775 495.736 229.716C495.709 229.709 495.606 229.778 495.579 229.794C495.503 229.843 495.439 229.899 495.383 229.971C495.196 230.203 495.146 230.518 495.216 230.806C495.296 231.123 495.519 231.382 495.733 231.621C495.853 231.755 496.083 231.742 496.203 231.621C496.343 231.48 496.33 231.28 496.209 231.149Z" fill="#ED6F6A"/>
<path d="M424.442 383.617C423.791 383.492 423.531 382.792 423.505 382.075C421.914 384.343 422.194 387.91 421.907 390.548C421.357 395.647 420.68 401.043 419.433 406.011C419.573 398.72 420.163 391.104 419.59 383.869C418.806 385.682 418.283 387.871 417.962 390.123C417.966 390.07 417.966 390.015 417.969 389.962C418.049 387.321 417.536 380.004 419.256 378.341C419.26 378.331 419.263 378.318 419.266 378.308H423.945C424.255 378.338 424.598 378.351 424.999 378.367C425.149 380.043 424.682 381.947 424.442 383.617Z" fill="#DB9B6C"/>
<path d="M417.208 393.317C416.671 399.044 415.141 405.396 415.338 411.182C417.292 407.827 417.785 402.172 417.962 398.376C418.039 396.704 418.382 393.925 417.208 393.317Z" fill="#DB9B6C"/>
<path d="M285.808 397.335C285.995 393.074 282.71 391.049 280.72 387.822C284.128 385.39 290.097 385.727 294.108 385.354C297.299 385.057 301.304 383.911 304.439 384.265C309.694 384.86 311.932 390.708 313.699 395.346C313.906 395.892 314.359 397.038 314.749 398.271H285.205C285.221 397.597 285.398 397.191 285.808 397.335Z" fill="#93BCB8"/>
<path d="M153.481 268.562C153.474 272.407 149.999 283.387 153.611 285.275C155.468 286.247 164.078 285.949 165.702 284.47C168.056 282.323 166.986 274.649 167.156 271.825C167.289 269.629 167.863 269.105 166.456 267.953C163.765 265.754 154.781 267.348 153.481 268.562Z" fill="#FFCD7D"/>
<path d="M109.698 365.869C108.59 366.854 107.483 367.839 106.376 368.824C106.176 369.001 106.193 369.338 106.376 369.518C106.576 369.714 106.883 369.698 107.083 369.518C108.19 368.533 109.297 367.548 110.404 366.563C110.605 366.386 110.588 366.049 110.404 365.869C110.204 365.673 109.898 365.689 109.698 365.869Z" fill="#39707A"/>
<path d="M108.61 372.843C108.77 372.657 108.944 372.483 109.134 372.326C109.154 372.31 109.177 372.29 109.197 372.274C109.207 372.267 109.297 372.198 109.244 372.238C109.197 372.274 109.267 372.221 109.277 372.215C109.304 372.195 109.334 372.175 109.361 372.156C109.464 372.087 109.567 372.022 109.674 371.959C109.777 371.901 109.881 371.848 109.988 371.799C110.018 371.786 110.051 371.77 110.081 371.756C110.128 371.734 110.118 371.743 110.074 371.756C110.131 371.734 110.191 371.711 110.248 371.691C110.488 371.606 110.734 371.544 110.988 371.501C111.248 371.459 111.415 371.131 111.338 370.896C111.248 370.624 111.001 370.506 110.721 370.552C109.634 370.739 108.607 371.318 107.9 372.146C107.733 372.342 107.69 372.65 107.9 372.84C108.087 373.01 108.43 373.056 108.61 372.843Z" fill="#39707A"/>
<path d="M107.276 375.176C107.9 374.938 108.52 374.699 109.144 374.463C109.271 374.414 109.374 374.355 109.444 374.237C109.507 374.133 109.534 373.975 109.494 373.858C109.417 373.625 109.141 373.416 108.877 373.514C108.254 373.753 107.633 373.992 107.01 374.227C106.883 374.277 106.78 374.335 106.71 374.453C106.646 374.558 106.62 374.715 106.66 374.833C106.736 375.065 107.013 375.275 107.276 375.176Z" fill="#39707A"/>
<path d="M162.601 368.478C161.04 370.078 159.65 371.835 158.456 373.714C158.116 374.25 158.979 374.745 159.319 374.208C160.47 372.398 161.804 370.713 163.308 369.171C163.754 368.717 163.048 368.023 162.601 368.478Z" fill="#39707A"/>
<path d="M164.108 371.416C163.611 372.025 163.114 372.634 162.617 373.242C162.531 373.347 162.471 373.448 162.471 373.589C162.471 373.71 162.524 373.854 162.617 373.936C162.798 374.1 163.151 374.149 163.324 373.936C163.821 373.327 164.318 372.719 164.815 372.11C164.902 372.005 164.962 371.904 164.962 371.763C164.962 371.642 164.908 371.498 164.815 371.416C164.632 371.253 164.281 371.203 164.108 371.416Z" fill="#39707A"/>
<path d="M128.331 401.331C129.455 400.297 130.779 399.466 132.213 398.909C132.463 398.811 132.64 398.582 132.563 398.304C132.496 398.068 132.2 397.862 131.946 397.96C130.346 398.582 128.882 399.479 127.624 400.634C127.151 401.069 127.861 401.763 128.331 401.331Z" fill="#39707A"/>
<path d="M133.173 405.353C133.67 404.866 134.167 404.378 134.664 403.89C134.851 403.707 134.864 403.377 134.664 403.197C134.464 403.017 134.154 403.004 133.957 403.197C133.46 403.684 132.963 404.172 132.466 404.659C132.28 404.843 132.266 405.173 132.466 405.353C132.666 405.533 132.977 405.55 133.173 405.353Z" fill="#39707A"/>
<path d="M284.108 394.233C285.218 393.85 286.329 393.467 287.439 393.084C287.692 392.996 287.863 392.747 287.789 392.479C287.722 392.237 287.429 392.047 287.172 392.135C286.062 392.518 284.951 392.901 283.841 393.284C283.587 393.372 283.417 393.621 283.491 393.889C283.561 394.132 283.851 394.321 284.108 394.233Z" fill="#39707A"/>
<path d="M280.716 391.559C281.837 391.203 282.957 390.849 284.078 390.492C284.334 390.411 284.501 390.152 284.428 389.887C284.358 389.638 284.071 389.462 283.811 389.543C282.69 389.9 281.57 390.254 280.45 390.61C280.193 390.692 280.026 390.951 280.099 391.212C280.173 391.464 280.46 391.641 280.716 391.559Z" fill="#39707A"/>
<path d="M291.604 383.09C291.657 384.824 292.081 386.513 292.844 388.074C292.961 388.313 293.308 388.375 293.528 388.251C293.778 388.107 293.825 387.819 293.708 387.58C293.024 386.179 292.651 384.641 292.604 383.09C292.584 382.458 291.584 382.458 291.604 383.09Z" fill="#39707A"/>
<path d="M295.359 382.36C295.235 383.509 295.372 384.684 295.749 385.78C295.835 386.032 296.092 386.196 296.366 386.124C296.616 386.055 296.803 385.773 296.716 385.518C296.359 384.484 296.246 383.453 296.362 382.36C296.389 382.105 296.112 381.859 295.862 381.869C295.565 381.879 295.389 382.085 295.359 382.36Z" fill="#39707A"/>
<path d="M307.897 387.2C309.134 386.703 310.371 386.205 311.608 385.711C311.858 385.61 312.035 385.384 311.958 385.109C311.895 384.877 311.595 384.664 311.341 384.765C310.104 385.263 308.867 385.76 307.63 386.254C307.38 386.356 307.203 386.582 307.28 386.857C307.346 387.089 307.647 387.298 307.897 387.2Z" fill="#39707A"/>
<path d="M308.647 391.595C309.891 391.242 311.135 390.889 312.378 390.535C312.639 390.46 312.799 390.188 312.729 389.933C312.659 389.678 312.375 389.517 312.112 389.589C310.868 389.943 309.624 390.296 308.38 390.65C308.12 390.725 307.96 390.997 308.03 391.252C308.104 391.504 308.387 391.667 308.647 391.595Z" fill="#39707A"/>
<path d="M166.083 275.064C167.206 274.724 168.333 274.384 169.457 274.043C169.714 273.965 169.881 273.7 169.807 273.438C169.737 273.186 169.45 273.016 169.19 273.094C168.067 273.435 166.94 273.775 165.816 274.115C165.559 274.194 165.392 274.459 165.466 274.717C165.539 274.973 165.822 275.143 166.083 275.064Z" fill="#CD4739"/>
<path d="M165.949 278.37C166.693 278.37 167.439 278.37 168.183 278.37C168.443 278.37 168.697 278.144 168.683 277.879C168.67 277.614 168.463 277.388 168.183 277.388C167.439 277.388 166.693 277.388 165.949 277.388C165.689 277.388 165.435 277.614 165.449 277.879C165.462 278.144 165.669 278.37 165.949 278.37Z" fill="#CD4739"/>
<path d="M155.755 282.261C155.612 284.087 155.469 285.91 155.325 287.736C155.305 288.001 155.569 288.227 155.825 288.227C156.112 288.227 156.306 288.001 156.326 287.736C156.469 285.91 156.612 284.087 156.756 282.261C156.776 281.996 156.512 281.77 156.256 281.77C155.969 281.77 155.775 281.996 155.755 282.261Z" fill="#CD4739"/>
<path d="M159.167 282.506C158.67 284.083 158.397 285.726 158.35 287.376C158.333 288.007 159.334 288.007 159.35 287.376C159.394 285.808 159.657 284.263 160.131 282.765C160.321 282.162 159.354 281.901 159.167 282.506Z" fill="#CD4739"/>
<path d="M150.563 272.826C151.43 272.957 152.297 273.091 153.164 273.222C153.421 273.261 153.715 273.156 153.781 272.878C153.835 272.643 153.708 272.315 153.431 272.276C152.564 272.145 151.697 272.011 150.83 271.88C150.573 271.841 150.28 271.945 150.213 272.224C150.16 272.456 150.287 272.783 150.563 272.826Z" fill="#CD4739"/>
<path d="M155.425 265.587C155.912 266.922 156.709 268.136 157.773 269.102C157.969 269.282 158.283 269.295 158.48 269.102C158.666 268.919 158.68 268.588 158.48 268.408C157.539 267.554 156.809 266.484 156.389 265.329C156.299 265.08 156.049 264.913 155.772 264.985C155.528 265.05 155.332 265.335 155.425 265.587Z" fill="#CD4739"/>
</svg>
